<svg version="1.1" xmlns="http://www.w3.org/2000/svg" xmlns:xlink="http://www.w3.org/1999/xlink" width="1112.26806640625" height="560"><defs/><g><text fill="#eeeeee" stroke="none" font-family="Arial" font-size="24px" font-style="normal" font-weight="normal" text-decoration="none" x="0" y="0">UNREGISTERED</text><text fill="#eeeeee" stroke="none" font-family="Arial" font-size="24px" font-style="normal" font-weight="normal" text-decoration="none" x="0" y="30">UNREGISTERED</text><text fill="#eeeeee" stroke="none" font-family="Arial" font-size="24px" font-style="normal" font-weight="normal" text-decoration="none" x="0" y="60">UNREGISTERED</text><text fill="#eeeeee" stroke="none" font-family="Arial" font-size="24px" font-style="normal" font-weight="normal" text-decoration="none" x="0" y="90">UNREGISTERED</text><text fill="#eeeeee" stroke="none" font-family="Arial" font-size="24px" font-style="normal" font-weight="normal" text-decoration="none" x="0" y="120">UNREGISTERED</text><text fill="#eeeeee" stroke="none" font-family="Arial" font-size="24px" font-style="normal" font-weight="normal" text-decoration="none" x="0" y="150">UNREGISTERED</text><text fill="#eeeeee" stroke="none" font-family="Arial" font-size="24px" font-style="normal" font-weight="normal" text-decoration="none" x="0" y="180">UNREGISTERED</text><text fill="#eeeeee" stroke="none" font-family="Arial" font-size="24px" font-style="normal" font-weight="normal" text-decoration="none" x="0" y="210">UNREGISTERED</text><text fill="#eeeeee" stroke="none" font-family="Arial" font-size="24px" font-style="normal" font-weight="normal" text-decoration="none" x="0" y="240">UNREGISTERED</text><text fill="#eeeeee" stroke="none" font-family="Arial" font-size="24px" font-style="normal" font-weight="normal" text-decoration="none" x="0" y="270">UNREGISTERED</text><text fill="#eeeeee" stroke="none" font-family="Arial" font-size="24px" font-style="normal" font-weight="normal" text-decoration="none" x="0" y="300">UNREGISTERED</text><text fill="#eeeeee" stroke="none" font-family="Arial" font-size="24px" font-style="normal" font-weight="normal" text-decoration="none" x="0" y="330">UNREGISTERED</text><text fill="#eeeeee" stroke="none" font-family="Arial" font-size="24px" font-style="normal" font-weight="normal" text-decoration="none" x="0" y="360">UNREGISTERED</text><text fill="#eeeeee" stroke="none" font-family="Arial" font-size="24px" font-style="normal" font-weight="normal" text-decoration="none" x="0" y="390">UNREGISTERED</text><text fill="#eeeeee" stroke="none" font-family="Arial" font-size="24px" font-style="normal" font-weight="normal" text-decoration="none" x="0" y="420">UNREGISTERED</text><text fill="#eeeeee" stroke="none" font-family="Arial" font-size="24px" font-style="normal" font-weight="normal" text-decoration="none" x="0" y="450">UNREGISTERED</text><text fill="#eeeeee" stroke="none" font-family="Arial" font-size="24px" font-style="normal" font-weight="normal" text-decoration="none" x="0" y="480">UNREGISTERED</text><text fill="#eeeeee" stroke="none" font-family="Arial" font-size="24px" font-style="normal" font-weight="normal" text-decoration="none" x="0" y="510">UNREGISTERED</text><text fill="#eeeeee" stroke="none" font-family="Arial" font-size="24px" font-style="normal" font-weight="normal" text-decoration="none" x="0" y="540">UNREGISTERED</text><text fill="#eeeeee" stroke="none" font-family="Arial" font-size="24px" font-style="normal" font-weight="normal" text-decoration="none" x="200" y="0">UNREGISTERED</text><text fill="#eeeeee" stroke="none" font-family="Arial" font-size="24px" font-style="normal" font-weight="normal" text-decoration="none" x="200" y="30">UNREGISTERED</text><text fill="#eeeeee" stroke="none" font-family="Arial" font-size="24px" font-style="normal" font-weight="normal" text-decoration="none" x="200" y="60">UNREGISTERED</text><text fill="#eeeeee" stroke="none" font-family="Arial" font-size="24px" font-style="normal" font-weight="normal" text-decoration="none" x="200" y="90">UNREGISTERED</text><text fill="#eeeeee" stroke="none" font-family="Arial" font-size="24px" font-style="normal" font-weight="normal" text-decoration="none" x="200" y="120">UNREGISTERED</text><text fill="#eeeeee" stroke="none" font-family="Arial" font-size="24px" font-style="normal" font-weight="normal" text-decoration="none" x="200" y="150">UNREGISTERED</text><text fill="#eeeeee" stroke="none" font-family="Arial" font-size="24px" font-style="normal" font-weight="normal" text-decoration="none" x="200" y="180">UNREGISTERED</text><text fill="#eeeeee" stroke="none" font-family="Arial" font-size="24px" font-style="normal" font-weight="normal" text-decoration="none" x="200" y="210">UNREGISTERED</text><text fill="#eeeeee" stroke="none" font-family="Arial" font-size="24px" font-style="normal" font-weight="normal" text-decoration="none" x="200" y="240">UNREGISTERED</text><text fill="#eeeeee" stroke="none" font-family="Arial" font-size="24px" font-style="normal" font-weight="normal" text-decoration="none" x="200" y="270">UNREGISTERED</text><text fill="#eeeeee" stroke="none" font-family="Arial" font-size="24px" font-style="normal" font-weight="normal" text-decoration="none" x="200" y="300">UNREGISTERED</text><text fill="#eeeeee" stroke="none" font-family="Arial" font-size="24px" font-style="normal" font-weight="normal" text-decoration="none" x="200" y="330">UNREGISTERED</text><text fill="#eeeeee" stroke="none" font-family="Arial" font-size="24px" font-style="normal" font-weight="normal" text-decoration="none" x="200" y="360">UNREGISTERED</text><text fill="#eeeeee" stroke="none" font-family="Arial" font-size="24px" font-style="normal" font-weight="normal" text-decoration="none" x="200" y="390">UNREGISTERED</text><text fill="#eeeeee" stroke="none" font-family="Arial" font-size="24px" font-style="normal" font-weight="normal" text-decoration="none" x="200" y="420">UNREGISTERED</text><text fill="#eeeeee" stroke="none" font-family="Arial" font-size="24px" font-style="normal" font-weight="normal" text-decoration="none" x="200" y="450">UNREGISTERED</text><text fill="#eeeeee" stroke="none" font-family="Arial" font-size="24px" font-style="normal" font-weight="normal" text-decoration="none" x="200" y="480">UNREGISTERED</text><text fill="#eeeeee" stroke="none" font-family="Arial" font-size="24px" font-style="normal" font-weight="normal" text-decoration="none" x="200" y="510">UNREGISTERED</text><text fill="#eeeeee" stroke="none" font-family="Arial" font-size="24px" font-style="normal" font-weight="normal" text-decoration="none" x="200" y="540">UNREGISTERED</text><text fill="#eeeeee" stroke="none" font-family="Arial" font-size="24px" font-style="normal" font-weight="normal" text-decoration="none" x="400" y="0">UNREGISTERED</text><text fill="#eeeeee" stroke="none" font-family="Arial" font-size="24px" font-style="normal" font-weight="normal" text-decoration="none" x="400" y="30">UNREGISTERED</text><text fill="#eeeeee" stroke="none" font-family="Arial" font-size="24px" font-style="normal" font-weight="normal" text-decoration="none" x="400" y="60">UNREGISTERED</text><text fill="#eeeeee" stroke="none" font-family="Arial" font-size="24px" font-style="normal" font-weight="normal" text-decoration="none" x="400" y="90">UNREGISTERED</text><text fill="#eeeeee" stroke="none" font-family="Arial" font-size="24px" font-style="normal" font-weight="normal" text-decoration="none" x="400" y="120">UNREGISTERED</text><text fill="#eeeeee" stroke="none" font-family="Arial" font-size="24px" font-style="normal" font-weight="normal" text-decoration="none" x="400" y="150">UNREGISTERED</text><text fill="#eeeeee" stroke="none" font-family="Arial" font-size="24px" font-style="normal" font-weight="normal" text-decoration="none" x="400" y="180">UNREGISTERED</text><text fill="#eeeeee" stroke="none" font-family="Arial" font-size="24px" font-style="normal" font-weight="normal" text-decoration="none" x="400" y="210">UNREGISTERED</text><text fill="#eeeeee" stroke="none" font-family="Arial" font-size="24px" font-style="normal" font-weight="normal" text-decoration="none" x="400" y="240">UNREGISTERED</text><text fill="#eeeeee" stroke="none" font-family="Arial" font-size="24px" font-style="normal" font-weight="normal" text-decoration="none" x="400" y="270">UNREGISTERED</text><text fill="#eeeeee" stroke="none" font-family="Arial" font-size="24px" font-style="normal" font-weight="normal" text-decoration="none" x="400" y="300">UNREGISTERED</text><text fill="#eeeeee" stroke="none" font-family="Arial" font-size="24px" font-style="normal" font-weight="normal" text-decoration="none" x="400" y="330">UNREGISTERED</text><text fill="#eeeeee" stroke="none" font-family="Arial" font-size="24px" font-style="normal" font-weight="normal" text-decoration="none" x="400" y="360">UNREGISTERED</text><text fill="#eeeeee" stroke="none" font-family="Arial" font-size="24px" font-style="normal" font-weight="normal" text-decoration="none" x="400" y="390">UNREGISTERED</text><text fill="#eeeeee" stroke="none" font-family="Arial" font-size="24px" font-style="normal" font-weight="normal" text-decoration="none" x="400" y="420">UNREGISTERED</text><text fill="#eeeeee" stroke="none" font-family="Arial" font-size="24px" font-style="normal" font-weight="normal" text-decoration="none" x="400" y="450">UNREGISTERED</text><text fill="#eeeeee" stroke="none" font-family="Arial" font-size="24px" font-style="normal" font-weight="normal" text-decoration="none" x="400" y="480">UNREGISTERED</text><text fill="#eeeeee" stroke="none" font-family="Arial" font-size="24px" font-style="normal" font-weight="normal" text-decoration="none" x="400" y="510">UNREGISTERED</text><text fill="#eeeeee" stroke="none" font-family="Arial" font-size="24px" font-style="normal" font-weight="normal" text-decoration="none" x="400" y="540">UNREGISTERED</text><text fill="#eeeeee" stroke="none" font-family="Arial" font-size="24px" font-style="normal" font-weight="normal" text-decoration="none" x="600" y="0">UNREGISTERED</text><text fill="#eeeeee" stroke="none" font-family="Arial" font-size="24px" font-style="normal" font-weight="normal" text-decoration="none" x="600" y="30">UNREGISTERED</text><text fill="#eeeeee" stroke="none" font-family="Arial" font-size="24px" font-style="normal" font-weight="normal" text-decoration="none" x="600" y="60">UNREGISTERED</text><text fill="#eeeeee" stroke="none" font-family="Arial" font-size="24px" font-style="normal" font-weight="normal" text-decoration="none" x="600" y="90">UNREGISTERED</text><text fill="#eeeeee" stroke="none" font-family="Arial" font-size="24px" font-style="normal" font-weight="normal" text-decoration="none" x="600" y="120">UNREGISTERED</text><text fill="#eeeeee" stroke="none" font-family="Arial" font-size="24px" font-style="normal" font-weight="normal" text-decoration="none" x="600" y="150">UNREGISTERED</text><text fill="#eeeeee" stroke="none" font-family="Arial" font-size="24px" font-style="normal" font-weight="normal" text-decoration="none" x="600" y="180">UNREGISTERED</text><text fill="#eeeeee" stroke="none" font-family="Arial" font-size="24px" font-style="normal" font-weight="normal" text-decoration="none" x="600" y="210">UNREGISTERED</text><text fill="#eeeeee" stroke="none" font-family="Arial" font-size="24px" font-style="normal" font-weight="normal" text-decoration="none" x="600" y="240">UNREGISTERED</text><text fill="#eeeeee" stroke="none" font-family="Arial" font-size="24px" font-style="normal" font-weight="normal" text-decoration="none" x="600" y="270">UNREGISTERED</text><text fill="#eeeeee" stroke="none" font-family="Arial" font-size="24px" font-style="normal" font-weight="normal" text-decoration="none" x="600" y="300">UNREGISTERED</text><text fill="#eeeeee" stroke="none" font-family="Arial" font-size="24px" font-style="normal" font-weight="normal" text-decoration="none" x="600" y="330">UNREGISTERED</text><text fill="#eeeeee" stroke="none" font-family="Arial" font-size="24px" font-style="normal" font-weight="normal" text-decoration="none" x="600" y="360">UNREGISTERED</text><text fill="#eeeeee" stroke="none" font-family="Arial" font-size="24px" font-style="normal" font-weight="normal" text-decoration="none" x="600" y="390">UNREGISTERED</text><text fill="#eeeeee" stroke="none" font-family="Arial" font-size="24px" font-style="normal" font-weight="normal" text-decoration="none" x="600" y="420">UNREGISTERED</text><text fill="#eeeeee" stroke="none" font-family="Arial" font-size="24px" font-style="normal" font-weight="normal" text-decoration="none" x="600" y="450">UNREGISTERED</text><text fill="#eeeeee" stroke="none" font-family="Arial" font-size="24px" font-style="normal" font-weight="normal" text-decoration="none" x="600" y="480">UNREGISTERED</text><text fill="#eeeeee" stroke="none" font-family="Arial" font-size="24px" font-style="normal" font-weight="normal" text-decoration="none" x="600" y="510">UNREGISTERED</text><text fill="#eeeeee" stroke="none" font-family="Arial" font-size="24px" font-style="normal" font-weight="normal" text-decoration="none" x="600" y="540">UNREGISTERED</text><text fill="#eeeeee" stroke="none" font-family="Arial" font-size="24px" font-style="normal" font-weight="normal" text-decoration="none" x="800" y="0">UNREGISTERED</text><text fill="#eeeeee" stroke="none" font-family="Arial" font-size="24px" font-style="normal" font-weight="normal" text-decoration="none" x="800" y="30">UNREGISTERED</text><text fill="#eeeeee" stroke="none" font-family="Arial" font-size="24px" font-style="normal" font-weight="normal" text-decoration="none" x="800" y="60">UNREGISTERED</text><text fill="#eeeeee" stroke="none" font-family="Arial" font-size="24px" font-style="normal" font-weight="normal" text-decoration="none" x="800" y="90">UNREGISTERED</text><text fill="#eeeeee" stroke="none" font-family="Arial" font-size="24px" font-style="normal" font-weight="normal" text-decoration="none" x="800" y="120">UNREGISTERED</text><text fill="#eeeeee" stroke="none" font-family="Arial" font-size="24px" font-style="normal" font-weight="normal" text-decoration="none" x="800" y="150">UNREGISTERED</text><text fill="#eeeeee" stroke="none" font-family="Arial" font-size="24px" font-style="normal" font-weight="normal" text-decoration="none" x="800" y="180">UNREGISTERED</text><text fill="#eeeeee" stroke="none" font-family="Arial" font-size="24px" font-style="normal" font-weight="normal" text-decoration="none" x="800" y="210">UNREGISTERED</text><text fill="#eeeeee" stroke="none" font-family="Arial" font-size="24px" font-style="normal" font-weight="normal" text-decoration="none" x="800" y="240">UNREGISTERED</text><text fill="#eeeeee" stroke="none" font-family="Arial" font-size="24px" font-style="normal" font-weight="normal" text-decoration="none" x="800" y="270">UNREGISTERED</text><text fill="#eeeeee" stroke="none" font-family="Arial" font-size="24px" font-style="normal" font-weight="normal" text-decoration="none" x="800" y="300">UNREGISTERED</text><text fill="#eeeeee" stroke="none" font-family="Arial" font-size="24px" font-style="normal" font-weight="normal" text-decoration="none" x="800" y="330">UNREGISTERED</text><text fill="#eeeeee" stroke="none" font-family="Arial" font-size="24px" font-style="normal" font-weight="normal" text-decoration="none" x="800" y="360">UNREGISTERED</text><text fill="#eeeeee" stroke="none" font-family="Arial" font-size="24px" font-style="normal" font-weight="normal" text-decoration="none" x="800" y="390">UNREGISTERED</text><text fill="#eeeeee" stroke="none" font-family="Arial" font-size="24px" font-style="normal" font-weight="normal" text-decoration="none" x="800" y="420">UNREGISTERED</text><text fill="#eeeeee" stroke="none" font-family="Arial" font-size="24px" font-style="normal" font-weight="normal" text-decoration="none" x="800" y="450">UNREGISTERED</text><text fill="#eeeeee" stroke="none" font-family="Arial" font-size="24px" font-style="normal" font-weight="normal" text-decoration="none" x="800" y="480">UNREGISTERED</text><text fill="#eeeeee" stroke="none" font-family="Arial" font-size="24px" font-style="normal" font-weight="normal" text-decoration="none" x="800" y="510">UNREGISTERED</text><text fill="#eeeeee" stroke="none" font-family="Arial" font-size="24px" font-style="normal" font-weight="normal" text-decoration="none" x="800" y="540">UNREGISTERED</text><text fill="#eeeeee" stroke="none" font-family="Arial" font-size="24px" font-style="normal" font-weight="normal" text-decoration="none" x="1000" y="0">UNREGISTERED</text><text fill="#eeeeee" stroke="none" font-family="Arial" font-size="24px" font-style="normal" font-weight="normal" text-decoration="none" x="1000" y="30">UNREGISTERED</text><text fill="#eeeeee" stroke="none" font-family="Arial" font-size="24px" font-style="normal" font-weight="normal" text-decoration="none" x="1000" y="60">UNREGISTERED</text><text fill="#eeeeee" stroke="none" font-family="Arial" font-size="24px" font-style="normal" font-weight="normal" text-decoration="none" x="1000" y="90">UNREGISTERED</text><text fill="#eeeeee" stroke="none" font-family="Arial" font-size="24px" font-style="normal" font-weight="normal" text-decoration="none" x="1000" y="120">UNREGISTERED</text><text fill="#eeeeee" stroke="none" font-family="Arial" font-size="24px" font-style="normal" font-weight="normal" text-decoration="none" x="1000" y="150">UNREGISTERED</text><text fill="#eeeeee" stroke="none" font-family="Arial" font-size="24px" font-style="normal" font-weight="normal" text-decoration="none" x="1000" y="180">UNREGISTERED</text><text fill="#eeeeee" stroke="none" font-family="Arial" font-size="24px" font-style="normal" font-weight="normal" text-decoration="none" x="1000" y="210">UNREGISTERED</text><text fill="#eeeeee" stroke="none" font-family="Arial" font-size="24px" font-style="normal" font-weight="normal" text-decoration="none" x="1000" y="240">UNREGISTERED</text><text fill="#eeeeee" stroke="none" font-family="Arial" font-size="24px" font-style="normal" font-weight="normal" text-decoration="none" x="1000" y="270">UNREGISTERED</text><text fill="#eeeeee" stroke="none" font-family="Arial" font-size="24px" font-style="normal" font-weight="normal" text-decoration="none" x="1000" y="300">UNREGISTERED</text><text fill="#eeeeee" stroke="none" font-family="Arial" font-size="24px" font-style="normal" font-weight="normal" text-decoration="none" x="1000" y="330">UNREGISTERED</text><text fill="#eeeeee" stroke="none" font-family="Arial" font-size="24px" font-style="normal" font-weight="normal" text-decoration="none" x="1000" y="360">UNREGISTERED</text><text fill="#eeeeee" stroke="none" font-family="Arial" font-size="24px" font-style="normal" font-weight="normal" text-decoration="none" x="1000" y="390">UNREGISTERED</text><text fill="#eeeeee" stroke="none" font-family="Arial" font-size="24px" font-style="normal" font-weight="normal" text-decoration="none" x="1000" y="420">UNREGISTERED</text><text fill="#eeeeee" stroke="none" font-family="Arial" font-size="24px" font-style="normal" font-weight="normal" text-decoration="none" x="1000" y="450">UNREGISTERED</text><text fill="#eeeeee" stroke="none" font-family="Arial" font-size="24px" font-style="normal" font-weight="normal" text-decoration="none" x="1000" y="480">UNREGISTERED</text><text fill="#eeeeee" stroke="none" font-family="Arial" font-size="24px" font-style="normal" font-weight="normal" text-decoration="none" x="1000" y="510">UNREGISTERED</text><text fill="#eeeeee" stroke="none" font-family="Arial" font-size="24px" font-style="normal" font-weight="normal" text-decoration="none" x="1000" y="540">UNREGISTERED</text><g transform="translate(-110,-110) scale(1,1)"><path fill="#C0C0C0" stroke="none" d="M 127 144.5 C 127 139.2532944 131.2532944 135 136.5 135 C 141.7467056 135 146 139.2532944 146 144.5 C 146 149.7467056 141.7467056 154 136.5 154 C 131.2532944 154 127 149.7467056 127 144.5 Z" opacity="0.2"/></g><g transform="translate(-110,-110) scale(1,1)"><path fill="#000000" stroke="none" d="M 120 137.5 C 120 132.2532944 124.2532944 128 129.5 128 C 134.7467056 128 139 132.2532944 139 137.5 C 139 142.7467056 134.7467056 147 129.5 147 C 124.2532944 147 120 142.7467056 120 137.5 Z"/></g><g transform="translate(-110,-110) scale(1,1)"><path fill="#C0C0C0" stroke="none" d="M 241 127 L 370.8544921875 127 Q 380.8544921875 127 380.8544921875 137 L 380.8544921875 157 Q 380.8544921875 167 370.8544921875 167 L 241 167 Q 231 167 231 157 L 231 137 Q 231 127 241 127 Z" opacity="0.2"/></g><g transform="translate(-110,-110) scale(1,1)"><path fill="#ffffff" stroke="none" d="M 234 120 L 363.8544921875 120 Q 373.8544921875 120 373.8544921875 130 L 373.8544921875 150 Q 373.8544921875 160 363.8544921875 160 L 234 160 Q 224 160 224 150 L 224 130 Q 224 120 234 120 Z"/></g><g transform="translate(-110,-110) scale(1,1)"><path fill="none" stroke="#000000" d="M 234 120 L 363.8544921875 120 Q 373.8544921875 120 373.8544921875 130 L 373.8544921875 150 Q 373.8544921875 160 363.8544921875 160 L 234 160 Q 224 160 224 150 L 224 130 Q 224 120 234 120 Z" stroke-miterlimit="10"/></g><g transform="translate(-110,-110) scale(1,1)"><g><path fill="none" stroke="none"/><text fill="#000000" stroke="none" font-family="Arial" font-size="13px" font-style="normal" font-weight="bold" text-decoration="none" x="232.825927734375" y="138">Trabalhador e Cliente</text></g></g><g transform="translate(-110,-110) scale(1,1)"><path fill="#C0C0C0" stroke="none" d="M 457 127 L 511.5078125 127 Q 521.5078125 127 521.5078125 137 L 521.5078125 157 Q 521.5078125 167 511.5078125 167 L 457 167 Q 447 167 447 157 L 447 137 Q 447 127 457 127 Z" opacity="0.2"/></g><g transform="translate(-110,-110) scale(1,1)"><path fill="#ffffff" stroke="none" d="M 450 120 L 504.5078125 120 Q 514.5078125 120 514.5078125 130 L 514.5078125 150 Q 514.5078125 160 504.5078125 160 L 450 160 Q 440 160 440 150 L 440 130 Q 440 120 450 120 Z"/></g><g transform="translate(-110,-110) scale(1,1)"><path fill="none" stroke="#000000" d="M 450 120 L 504.5078125 120 Q 514.5078125 120 514.5078125 130 L 514.5078125 150 Q 514.5078125 160 504.5078125 160 L 450 160 Q 440 160 440 150 L 440 130 Q 440 120 450 120 Z" stroke-miterlimit="10"/></g><g transform="translate(-110,-110) scale(1,1)"><g><path fill="none" stroke="none"/><text fill="#000000" stroke="none" font-family="Arial" font-size="13px" font-style="normal" font-weight="bold" text-decoration="none" x="444.5" y="138">Tela Inicial</text></g></g><g transform="translate(-110,-110) scale(1,1)"><path fill="#C0C0C0" stroke="none" d="M 585 127 L 690.7841796875 127 Q 700.7841796875 127 700.7841796875 137 L 700.7841796875 157 Q 700.7841796875 167 690.7841796875 167 L 585 167 Q 575 167 575 157 L 575 137 Q 575 127 585 127 Z" opacity="0.2"/></g><g transform="translate(-110,-110) scale(1,1)"><path fill="#ffffff" stroke="none" d="M 578 120 L 683.7841796875 120 Q 693.7841796875 120 693.7841796875 130 L 693.7841796875 150 Q 693.7841796875 160 683.7841796875 160 L 578 160 Q 568 160 568 150 L 568 130 Q 568 120 578 120 Z"/></g><g transform="translate(-110,-110) scale(1,1)"><path fill="none" stroke="#000000" d="M 578 120 L 683.7841796875 120 Q 693.7841796875 120 693.7841796875 130 L 693.7841796875 150 Q 693.7841796875 160 683.7841796875 160 L 578 160 Q 568 160 568 150 L 568 130 Q 568 120 578 120 Z" stroke-miterlimit="10"/></g><g transform="translate(-110,-110) scale(1,1)"><g><path fill="none" stroke="none"/><text fill="#000000" stroke="none" font-family="Arial" font-size="13px" font-style="normal" font-weight="bold" text-decoration="none" x="572.5" y="138">Tela de pagamento</text></g></g><g transform="translate(-110,-110) scale(1,1)"><path fill="none" stroke="#000000" d="M 140 137 L 223 139" stroke-miterlimit="10"/></g><g transform="translate(-110,-110) scale(1,1)"><path fill="none" stroke="#000000" d="M 212.73886953710684 142.96348352128354 L 223 139 L 212.94167899202768 134.54689114206911" stroke-miterlimit="10"/></g><g transform="translate(-110,-110) scale(1,1)"><path fill="none" stroke="#000000" d="M 375 140 L 439 140" stroke-miterlimit="10"/></g><g transform="translate(-110,-110) scale(1,1)"><path fill="none" stroke="#000000" d="M 428.83732514237585 144.209517756016 L 439 140 L 428.83732514237585 135.790482243984" stroke-miterlimit="10"/></g><g transform="translate(-110,-110) scale(1,1)"><path fill="none" stroke="#000000" d="M 516 140 L 567 140" stroke-miterlimit="10"/></g><g transform="translate(-110,-110) scale(1,1)"><path fill="none" stroke="#000000" d="M 556.8373251423759 144.209517756016 L 567 140 L 556.8373251423758 135.790482243984" stroke-miterlimit="10"/></g><g transform="translate(-110,-110) scale(1,1)"><path fill="#C0C0C0" stroke="none" d="M 775 143 L 799 127 L 822 143 L 799 158 L 775 143" opacity="0.2"/></g><g transform="translate(-110,-110) scale(1,1)"><path fill="#ffffff" stroke="none" d="M 768 135.5 L 791.5 120 L 815 135.5 L 791.5 151 L 768 135.5"/></g><g transform="translate(-110,-110) scale(1,1)"><path fill="none" stroke="#000000" d="M 768 135.5 L 791.5 120 L 815 135.5 L 791.5 151 L 768 135.5 L 768 135.5" stroke-miterlimit="10"/></g><g transform="translate(-110,-110) scale(1,1)"><path fill="#C0C0C0" stroke="none" d="M 1001 127 L 1145.32080078125 127 Q 1155.32080078125 127 1155.32080078125 137 L 1155.32080078125 157 Q 1155.32080078125 167 1145.32080078125 167 L 1001 167 Q 991 167 991 157 L 991 137 Q 991 127 1001 127 Z" opacity="0.2"/></g><g transform="translate(-110,-110) scale(1,1)"><path fill="#ffffff" stroke="none" d="M 994 120 L 1138.32080078125 120 Q 1148.32080078125 120 1148.32080078125 130 L 1148.32080078125 150 Q 1148.32080078125 160 1138.32080078125 160 L 994 160 Q 984 160 984 150 L 984 130 Q 984 120 994 120 Z"/></g><g transform="translate(-110,-110) scale(1,1)"><path fill="none" stroke="#000000" d="M 994 120 L 1138.32080078125 120 Q 1148.32080078125 120 1148.32080078125 130 L 1148.32080078125 150 Q 1148.32080078125 160 1138.32080078125 160 L 994 160 Q 984 160 984 150 L 984 130 Q 984 120 994 120 Z" stroke-miterlimit="10"/></g><g transform="translate(-110,-110) scale(1,1)"><g><path fill="none" stroke="none"/><text fill="#000000" stroke="none" font-family="Arial" font-size="13px" font-style="normal" font-weight="bold" text-decoration="none" x="988.5" y="138">Adicionar conta bancária</text></g></g><g transform="translate(-110,-110) scale(1,1)"><path fill="#C0C0C0" stroke="none" d="M 713 287 L 893.419921875 287 Q 903.419921875 287 903.419921875 297 L 903.419921875 317 Q 903.419921875 327 893.419921875 327 L 713 327 Q 703 327 703 317 L 703 297 Q 703 287 713 287 Z" opacity="0.2"/></g><g transform="translate(-110,-110) scale(1,1)"><path fill="#ffffff" stroke="none" d="M 706 280 L 886.419921875 280 Q 896.419921875 280 896.419921875 290 L 896.419921875 310 Q 896.419921875 320 886.419921875 320 L 706 320 Q 696 320 696 310 L 696 290 Q 696 280 706 280 Z"/></g><g transform="translate(-110,-110) scale(1,1)"><path fill="none" stroke="#000000" d="M 706 280 L 886.419921875 280 Q 896.419921875 280 896.419921875 290 L 896.419921875 310 Q 896.419921875 320 886.419921875 320 L 706 320 Q 696 320 696 310 L 696 290 Q 696 280 706 280 Z" stroke-miterlimit="10"/></g><g transform="translate(-110,-110) scale(1,1)"><g><path fill="none" stroke="none"/><text fill="#000000" stroke="none" font-family="Arial" font-size="13px" font-style="normal" font-weight="bold" text-decoration="none" x="700.5" y="298">Adicionar forma de pagamento</text></g></g><g transform="translate(-110,-110) scale(1,1)"><path fill="none" stroke="#000000" d="M 695 138 L 767 136" stroke-miterlimit="10"/></g><g transform="translate(-110,-110) scale(1,1)"><path fill="none" stroke="#000000" d="M 756.9581296224949 140.49008232902074 L 767 136 L 756.7243576973333 132.07429302320625" stroke-miterlimit="10"/></g><g transform="translate(-110,-110) scale(1,1)"><path fill="none" stroke="#000000" d="M 816 135 L 983 138" stroke-miterlimit="10"/></g><g transform="translate(-110,-110) scale(1,1)"><path fill="none" stroke="#000000" d="M 972.7633566524165 142.02630512683456 L 983 138 L 972.9145724140246 133.60862773064642" stroke-miterlimit="10"/></g><g transform="translate(-110,-110) scale(1,1)"><g><path fill="none" stroke="none"/><text fill="#000000" stroke="none" font-family="Arial" font-size="13px" font-style="normal" font-weight="normal" text-decoration="none" x="848" y="157">se for trabalhador</text></g></g><g transform="translate(-110,-110) scale(1,1)"><path fill="none" stroke="#000000" d="M 792 152 L 795 279" stroke-miterlimit="10"/></g><g transform="translate(-110,-110) scale(1,1)"><path fill="none" stroke="#000000" d="M 790.5516599746361 268.93956904408435 L 795 279 L 798.9683475536286 268.7407496524546" stroke-miterlimit="10"/></g><g transform="translate(-110,-110) scale(1,1)"><g><path fill="none" stroke="none"/><text fill="#000000" stroke="none" font-family="Arial" font-size="13px" font-style="normal" font-weight="normal" text-decoration="none" x="770.5" y="219">se for cliente</text></g></g><g transform="translate(-110,-110) scale(1,1)"><path fill="#C0C0C0" stroke="none" d="M 1167 327 L 1188 311 L 1208 327 L 1188 342 L 1167 327" opacity="0.2"/></g><g transform="translate(-110,-110) scale(1,1)"><path fill="#ffffff" stroke="none" d="M 1160 319.5 L 1180.5 304 L 1201 319.5 L 1180.5 335 L 1160 319.5"/></g><g transform="translate(-110,-110) scale(1,1)"><path fill="none" stroke="#000000" d="M 1160 319.5 L 1180.5 304 L 1201 319.5 L 1180.5 335 L 1160 319.5 L 1160 319.5" stroke-miterlimit="10"/></g><g transform="translate(-110,-110) scale(1,1)"><path fill="none" stroke="#000000" d="M 1149 143 L 1184 144 L 1180 303" stroke-miterlimit="10"/></g><g transform="translate(-110,-110) scale(1,1)"><path fill="none" stroke="#000000" d="M 1176.047397596508 292.73467320345276 L 1180 303 L 1184.4637702260911 292.9464058482221" stroke-miterlimit="10"/></g><g transform="translate(-110,-110) scale(1,1)"><path fill="none" stroke="#000000" d="M 1159 319 L 1064 320 L 1066 161" stroke-miterlimit="10"/></g><g transform="translate(-110,-110) scale(1,1)"><path fill="none" stroke="#000000" d="M 1070.0813625008097 171.2148166962009 L 1066 161 L 1061.6629929463418 171.1089252552642" stroke-miterlimit="10"/></g><g transform="translate(-110,-110) scale(1,1)"><g><path fill="none" stroke="none"/><text fill="#000000" stroke="none" font-family="Arial" font-size="13px" font-style="normal" font-weight="normal" text-decoration="none" x="970.5" y="324">nao conseguiu adicionar</text></g></g><g transform="translate(-110,-110) scale(1,1)"><path fill="#C0C0C0" stroke="none" d="M 775 471 L 799 455 L 822 471 L 799 486 L 775 471" opacity="0.2"/></g><g transform="translate(-110,-110) scale(1,1)"><path fill="#ffffff" stroke="none" d="M 768 463.5 L 791.5 448 L 815 463.5 L 791.5 479 L 768 463.5"/></g><g transform="translate(-110,-110) scale(1,1)"><path fill="none" stroke="#000000" d="M 768 463.5 L 791.5 448 L 815 463.5 L 791.5 479 L 768 463.5 L 768 463.5" stroke-miterlimit="10"/></g><g transform="translate(-110,-110) scale(1,1)"><path fill="none" stroke="#000000" d="M 795 321 L 791 447" stroke-miterlimit="10"/></g><g transform="translate(-110,-110) scale(1,1)"><path fill="none" stroke="#000000" d="M 787.1150639893677 436.7088741046816 L 791 447 L 795.5298603090303 436.976010495782" stroke-miterlimit="10"/></g><g transform="translate(-110,-110) scale(1,1)"><path fill="none" stroke="#000000" d="M 767 463 L 640 464 L 640 304 L 695 303" stroke-miterlimit="10"/></g><g transform="translate(-110,-110) scale(1,1)"><path fill="none" stroke="#000000" d="M 684.9155285459009 307.3935675130194 L 695 303 L 684.7624804680675 298.97592323218123" stroke-miterlimit="10"/></g><g transform="translate(-110,-110) scale(1,1)"><g><path fill="none" stroke="none"/><text fill="#000000" stroke="none" font-family="Arial" font-size="13px" font-style="normal" font-weight="normal" text-decoration="none" x="554.5" y="388">nao conseguiu adicionar</text></g></g><g transform="translate(-110,-110) scale(1,1)"><path fill="#C0C0C0" stroke="none" d="M 791 643.5 C 791 636.59644 796.59644 631 803.5 631 C 810.40356 631 816 636.59644 816 643.5 C 816 650.40356 810.40356 656 803.5 656 C 796.59644 656 791 650.40356 791 643.5 Z" opacity="0.2"/></g><g transform="translate(-110,-110) scale(1,1)"><path fill="none" stroke="#000000" d="M 784 636.5 C 784 629.59644 789.59644 624 796.5 624 C 803.40356 624 809 629.59644 809 636.5 C 809 643.40356 803.40356 649 796.5 649 C 789.59644 649 784 643.40356 784 636.5 Z" stroke-miterlimit="10"/></g><g transform="translate(-110,-110) scale(1,1)"><path fill="#000000" stroke="none" d="M 789 636.5 C 789 632.357864 792.357864 629 796.5 629 C 800.642136 629 804 632.357864 804 636.5 C 804 640.642136 800.642136 644 796.5 644 C 792.357864 644 789 640.642136 789 636.5 Z"/></g><g transform="translate(-110,-110) scale(1,1)"><path fill="none" stroke="#000000" d="M 791 480 L 796 623" stroke-miterlimit="10"/></g><g transform="translate(-110,-110) scale(1,1)"><path fill="none" stroke="#000000" d="M 791.4379317970521 612.9906277064117 L 796 623 L 799.851825661677 612.696435613243" stroke-miterlimit="10"/></g><g transform="translate(-110,-110) scale(1,1)"><g><path fill="none" stroke="none"/><text fill="#000000" stroke="none" font-family="Arial" font-size="13px" font-style="normal" font-weight="normal" text-decoration="none" x="777.5" y="555">conseguiu</text></g></g><g transform="translate(-110,-110) scale(1,1)"><path fill="none" stroke="#000000" d="M 1180 336 L 1184 640 L 810 636" stroke-miterlimit="10"/></g><g transform="translate(-110,-110) scale(1,1)"><path fill="none" stroke="#000000" d="M 820.2071126739514 631.8994084742247 L 810 636 L 820.117074662838 640.3179625133345" stroke-miterlimit="10"/></g><g transform="translate(-110,-110) scale(1,1)"><g><path fill="none" stroke="none"/><text fill="#000000" stroke="none" font-family="Arial" font-size="13px" font-style="normal" font-weight="normal" text-decoration="none" x="1153.5" y="659">conseguiu</text></g></g></g></svg>