<svg version="1.1" xmlns="http://www.w3.org/2000/svg" xmlns:xlink="http://www.w3.org/1999/xlink" width="1139" height="587"><defs/><g><text fill="#eeeeee" stroke="none" font-family="Arial" font-size="24px" font-style="normal" font-weight="normal" text-decoration="none" x="0" y="0">UNREGISTERED</text><text fill="#eeeeee" stroke="none" font-family="Arial" font-size="24px" font-style="normal" font-weight="normal" text-decoration="none" x="0" y="30">UNREGISTERED</text><text fill="#eeeeee" stroke="none" font-family="Arial" font-size="24px" font-style="normal" font-weight="normal" text-decoration="none" x="0" y="60">UNREGISTERED</text><text fill="#eeeeee" stroke="none" font-family="Arial" font-size="24px" font-style="normal" font-weight="normal" text-decoration="none" x="0" y="90">UNREGISTERED</text><text fill="#eeeeee" stroke="none" font-family="Arial" font-size="24px" font-style="normal" font-weight="normal" text-decoration="none" x="0" y="120">UNREGISTERED</text><text fill="#eeeeee" stroke="none" font-family="Arial" font-size="24px" font-style="normal" font-weight="normal" text-decoration="none" x="0" y="150">UNREGISTERED</text><text fill="#eeeeee" stroke="none" font-family="Arial" font-size="24px" font-style="normal" font-weight="normal" text-decoration="none" x="0" y="180">UNREGISTERED</text><text fill="#eeeeee" stroke="none" font-family="Arial" font-size="24px" font-style="normal" font-weight="normal" text-decoration="none" x="0" y="210">UNREGISTERED</text><text fill="#eeeeee" stroke="none" font-family="Arial" font-size="24px" font-style="normal" font-weight="normal" text-decoration="none" x="0" y="240">UNREGISTERED</text><text fill="#eeeeee" stroke="none" font-family="Arial" font-size="24px" font-style="normal" font-weight="normal" text-decoration="none" x="0" y="270">UNREGISTERED</text><text fill="#eeeeee" stroke="none" font-family="Arial" font-size="24px" font-style="normal" font-weight="normal" text-decoration="none" x="0" y="300">UNREGISTERED</text><text fill="#eeeeee" stroke="none" font-family="Arial" font-size="24px" font-style="normal" font-weight="normal" text-decoration="none" x="0" y="330">UNREGISTERED</text><text fill="#eeeeee" stroke="none" font-family="Arial" font-size="24px" font-style="normal" font-weight="normal" text-decoration="none" x="0" y="360">UNREGISTERED</text><text fill="#eeeeee" stroke="none" font-family="Arial" font-size="24px" font-style="normal" font-weight="normal" text-decoration="none" x="0" y="390">UNREGISTERED</text><text fill="#eeeeee" stroke="none" font-family="Arial" font-size="24px" font-style="normal" font-weight="normal" text-decoration="none" x="0" y="420">UNREGISTERED</text><text fill="#eeeeee" stroke="none" font-family="Arial" font-size="24px" font-style="normal" font-weight="normal" text-decoration="none" x="0" y="450">UNREGISTERED</text><text fill="#eeeeee" stroke="none" font-family="Arial" font-size="24px" font-style="normal" font-weight="normal" text-decoration="none" x="0" y="480">UNREGISTERED</text><text fill="#eeeeee" stroke="none" font-family="Arial" font-size="24px" font-style="normal" font-weight="normal" text-decoration="none" x="0" y="510">UNREGISTERED</text><text fill="#eeeeee" stroke="none" font-family="Arial" font-size="24px" font-style="normal" font-weight="normal" text-decoration="none" x="0" y="540">UNREGISTERED</text><text fill="#eeeeee" stroke="none" font-family="Arial" font-size="24px" font-style="normal" font-weight="normal" text-decoration="none" x="0" y="570">UNREGISTERED</text><text fill="#eeeeee" stroke="none" font-family="Arial" font-size="24px" font-style="normal" font-weight="normal" text-decoration="none" x="200" y="0">UNREGISTERED</text><text fill="#eeeeee" stroke="none" font-family="Arial" font-size="24px" font-style="normal" font-weight="normal" text-decoration="none" x="200" y="30">UNREGISTERED</text><text fill="#eeeeee" stroke="none" font-family="Arial" font-size="24px" font-style="normal" font-weight="normal" text-decoration="none" x="200" y="60">UNREGISTERED</text><text fill="#eeeeee" stroke="none" font-family="Arial" font-size="24px" font-style="normal" font-weight="normal" text-decoration="none" x="200" y="90">UNREGISTERED</text><text fill="#eeeeee" stroke="none" font-family="Arial" font-size="24px" font-style="normal" font-weight="normal" text-decoration="none" x="200" y="120">UNREGISTERED</text><text fill="#eeeeee" stroke="none" font-family="Arial" font-size="24px" font-style="normal" font-weight="normal" text-decoration="none" x="200" y="150">UNREGISTERED</text><text fill="#eeeeee" stroke="none" font-family="Arial" font-size="24px" font-style="normal" font-weight="normal" text-decoration="none" x="200" y="180">UNREGISTERED</text><text fill="#eeeeee" stroke="none" font-family="Arial" font-size="24px" font-style="normal" font-weight="normal" text-decoration="none" x="200" y="210">UNREGISTERED</text><text fill="#eeeeee" stroke="none" font-family="Arial" font-size="24px" font-style="normal" font-weight="normal" text-decoration="none" x="200" y="240">UNREGISTERED</text><text fill="#eeeeee" stroke="none" font-family="Arial" font-size="24px" font-style="normal" font-weight="normal" text-decoration="none" x="200" y="270">UNREGISTERED</text><text fill="#eeeeee" stroke="none" font-family="Arial" font-size="24px" font-style="normal" font-weight="normal" text-decoration="none" x="200" y="300">UNREGISTERED</text><text fill="#eeeeee" stroke="none" font-family="Arial" font-size="24px" font-style="normal" font-weight="normal" text-decoration="none" x="200" y="330">UNREGISTERED</text><text fill="#eeeeee" stroke="none" font-family="Arial" font-size="24px" font-style="normal" font-weight="normal" text-decoration="none" x="200" y="360">UNREGISTERED</text><text fill="#eeeeee" stroke="none" font-family="Arial" font-size="24px" font-style="normal" font-weight="normal" text-decoration="none" x="200" y="390">UNREGISTERED</text><text fill="#eeeeee" stroke="none" font-family="Arial" font-size="24px" font-style="normal" font-weight="normal" text-decoration="none" x="200" y="420">UNREGISTERED</text><text fill="#eeeeee" stroke="none" font-family="Arial" font-size="24px" font-style="normal" font-weight="normal" text-decoration="none" x="200" y="450">UNREGISTERED</text><text fill="#eeeeee" stroke="none" font-family="Arial" font-size="24px" font-style="normal" font-weight="normal" text-decoration="none" x="200" y="480">UNREGISTERED</text><text fill="#eeeeee" stroke="none" font-family="Arial" font-size="24px" font-style="normal" font-weight="normal" text-decoration="none" x="200" y="510">UNREGISTERED</text><text fill="#eeeeee" stroke="none" font-family="Arial" font-size="24px" font-style="normal" font-weight="normal" text-decoration="none" x="200" y="540">UNREGISTERED</text><text fill="#eeeeee" stroke="none" font-family="Arial" font-size="24px" font-style="normal" font-weight="normal" text-decoration="none" x="200" y="570">UNREGISTERED</text><text fill="#eeeeee" stroke="none" font-family="Arial" font-size="24px" font-style="normal" font-weight="normal" text-decoration="none" x="400" y="0">UNREGISTERED</text><text fill="#eeeeee" stroke="none" font-family="Arial" font-size="24px" font-style="normal" font-weight="normal" text-decoration="none" x="400" y="30">UNREGISTERED</text><text fill="#eeeeee" stroke="none" font-family="Arial" font-size="24px" font-style="normal" font-weight="normal" text-decoration="none" x="400" y="60">UNREGISTERED</text><text fill="#eeeeee" stroke="none" font-family="Arial" font-size="24px" font-style="normal" font-weight="normal" text-decoration="none" x="400" y="90">UNREGISTERED</text><text fill="#eeeeee" stroke="none" font-family="Arial" font-size="24px" font-style="normal" font-weight="normal" text-decoration="none" x="400" y="120">UNREGISTERED</text><text fill="#eeeeee" stroke="none" font-family="Arial" font-size="24px" font-style="normal" font-weight="normal" text-decoration="none" x="400" y="150">UNREGISTERED</text><text fill="#eeeeee" stroke="none" font-family="Arial" font-size="24px" font-style="normal" font-weight="normal" text-decoration="none" x="400" y="180">UNREGISTERED</text><text fill="#eeeeee" stroke="none" font-family="Arial" font-size="24px" font-style="normal" font-weight="normal" text-decoration="none" x="400" y="210">UNREGISTERED</text><text fill="#eeeeee" stroke="none" font-family="Arial" font-size="24px" font-style="normal" font-weight="normal" text-decoration="none" x="400" y="240">UNREGISTERED</text><text fill="#eeeeee" stroke="none" font-family="Arial" font-size="24px" font-style="normal" font-weight="normal" text-decoration="none" x="400" y="270">UNREGISTERED</text><text fill="#eeeeee" stroke="none" font-family="Arial" font-size="24px" font-style="normal" font-weight="normal" text-decoration="none" x="400" y="300">UNREGISTERED</text><text fill="#eeeeee" stroke="none" font-family="Arial" font-size="24px" font-style="normal" font-weight="normal" text-decoration="none" x="400" y="330">UNREGISTERED</text><text fill="#eeeeee" stroke="none" font-family="Arial" font-size="24px" font-style="normal" font-weight="normal" text-decoration="none" x="400" y="360">UNREGISTERED</text><text fill="#eeeeee" stroke="none" font-family="Arial" font-size="24px" font-style="normal" font-weight="normal" text-decoration="none" x="400" y="390">UNREGISTERED</text><text fill="#eeeeee" stroke="none" font-family="Arial" font-size="24px" font-style="normal" font-weight="normal" text-decoration="none" x="400" y="420">UNREGISTERED</text><text fill="#eeeeee" stroke="none" font-family="Arial" font-size="24px" font-style="normal" font-weight="normal" text-decoration="none" x="400" y="450">UNREGISTERED</text><text fill="#eeeeee" stroke="none" font-family="Arial" font-size="24px" font-style="normal" font-weight="normal" text-decoration="none" x="400" y="480">UNREGISTERED</text><text fill="#eeeeee" stroke="none" font-family="Arial" font-size="24px" font-style="normal" font-weight="normal" text-decoration="none" x="400" y="510">UNREGISTERED</text><text fill="#eeeeee" stroke="none" font-family="Arial" font-size="24px" font-style="normal" font-weight="normal" text-decoration="none" x="400" y="540">UNREGISTERED</text><text fill="#eeeeee" stroke="none" font-family="Arial" font-size="24px" font-style="normal" font-weight="normal" text-decoration="none" x="400" y="570">UNREGISTERED</text><text fill="#eeeeee" stroke="none" font-family="Arial" font-size="24px" font-style="normal" font-weight="normal" text-decoration="none" x="600" y="0">UNREGISTERED</text><text fill="#eeeeee" stroke="none" font-family="Arial" font-size="24px" font-style="normal" font-weight="normal" text-decoration="none" x="600" y="30">UNREGISTERED</text><text fill="#eeeeee" stroke="none" font-family="Arial" font-size="24px" font-style="normal" font-weight="normal" text-decoration="none" x="600" y="60">UNREGISTERED</text><text fill="#eeeeee" stroke="none" font-family="Arial" font-size="24px" font-style="normal" font-weight="normal" text-decoration="none" x="600" y="90">UNREGISTERED</text><text fill="#eeeeee" stroke="none" font-family="Arial" font-size="24px" font-style="normal" font-weight="normal" text-decoration="none" x="600" y="120">UNREGISTERED</text><text fill="#eeeeee" stroke="none" font-family="Arial" font-size="24px" font-style="normal" font-weight="normal" text-decoration="none" x="600" y="150">UNREGISTERED</text><text fill="#eeeeee" stroke="none" font-family="Arial" font-size="24px" font-style="normal" font-weight="normal" text-decoration="none" x="600" y="180">UNREGISTERED</text><text fill="#eeeeee" stroke="none" font-family="Arial" font-size="24px" font-style="normal" font-weight="normal" text-decoration="none" x="600" y="210">UNREGISTERED</text><text fill="#eeeeee" stroke="none" font-family="Arial" font-size="24px" font-style="normal" font-weight="normal" text-decoration="none" x="600" y="240">UNREGISTERED</text><text fill="#eeeeee" stroke="none" font-family="Arial" font-size="24px" font-style="normal" font-weight="normal" text-decoration="none" x="600" y="270">UNREGISTERED</text><text fill="#eeeeee" stroke="none" font-family="Arial" font-size="24px" font-style="normal" font-weight="normal" text-decoration="none" x="600" y="300">UNREGISTERED</text><text fill="#eeeeee" stroke="none" font-family="Arial" font-size="24px" font-style="normal" font-weight="normal" text-decoration="none" x="600" y="330">UNREGISTERED</text><text fill="#eeeeee" stroke="none" font-family="Arial" font-size="24px" font-style="normal" font-weight="normal" text-decoration="none" x="600" y="360">UNREGISTERED</text><text fill="#eeeeee" stroke="none" font-family="Arial" font-size="24px" font-style="normal" font-weight="normal" text-decoration="none" x="600" y="390">UNREGISTERED</text><text fill="#eeeeee" stroke="none" font-family="Arial" font-size="24px" font-style="normal" font-weight="normal" text-decoration="none" x="600" y="420">UNREGISTERED</text><text fill="#eeeeee" stroke="none" font-family="Arial" font-size="24px" font-style="normal" font-weight="normal" text-decoration="none" x="600" y="450">UNREGISTERED</text><text fill="#eeeeee" stroke="none" font-family="Arial" font-size="24px" font-style="normal" font-weight="normal" text-decoration="none" x="600" y="480">UNREGISTERED</text><text fill="#eeeeee" stroke="none" font-family="Arial" font-size="24px" font-style="normal" font-weight="normal" text-decoration="none" x="600" y="510">UNREGISTERED</text><text fill="#eeeeee" stroke="none" font-family="Arial" font-size="24px" font-style="normal" font-weight="normal" text-decoration="none" x="600" y="540">UNREGISTERED</text><text fill="#eeeeee" stroke="none" font-family="Arial" font-size="24px" font-style="normal" font-weight="normal" text-decoration="none" x="600" y="570">UNREGISTERED</text><text fill="#eeeeee" stroke="none" font-family="Arial" font-size="24px" font-style="normal" font-weight="normal" text-decoration="none" x="800" y="0">UNREGISTERED</text><text fill="#eeeeee" stroke="none" font-family="Arial" font-size="24px" font-style="normal" font-weight="normal" text-decoration="none" x="800" y="30">UNREGISTERED</text><text fill="#eeeeee" stroke="none" font-family="Arial" font-size="24px" font-style="normal" font-weight="normal" text-decoration="none" x="800" y="60">UNREGISTERED</text><text fill="#eeeeee" stroke="none" font-family="Arial" font-size="24px" font-style="normal" font-weight="normal" text-decoration="none" x="800" y="90">UNREGISTERED</text><text fill="#eeeeee" stroke="none" font-family="Arial" font-size="24px" font-style="normal" font-weight="normal" text-decoration="none" x="800" y="120">UNREGISTERED</text><text fill="#eeeeee" stroke="none" font-family="Arial" font-size="24px" font-style="normal" font-weight="normal" text-decoration="none" x="800" y="150">UNREGISTERED</text><text fill="#eeeeee" stroke="none" font-family="Arial" font-size="24px" font-style="normal" font-weight="normal" text-decoration="none" x="800" y="180">UNREGISTERED</text><text fill="#eeeeee" stroke="none" font-family="Arial" font-size="24px" font-style="normal" font-weight="normal" text-decoration="none" x="800" y="210">UNREGISTERED</text><text fill="#eeeeee" stroke="none" font-family="Arial" font-size="24px" font-style="normal" font-weight="normal" text-decoration="none" x="800" y="240">UNREGISTERED</text><text fill="#eeeeee" stroke="none" font-family="Arial" font-size="24px" font-style="normal" font-weight="normal" text-decoration="none" x="800" y="270">UNREGISTERED</text><text fill="#eeeeee" stroke="none" font-family="Arial" font-size="24px" font-style="normal" font-weight="normal" text-decoration="none" x="800" y="300">UNREGISTERED</text><text fill="#eeeeee" stroke="none" font-family="Arial" font-size="24px" font-style="normal" font-weight="normal" text-decoration="none" x="800" y="330">UNREGISTERED</text><text fill="#eeeeee" stroke="none" font-family="Arial" font-size="24px" font-style="normal" font-weight="normal" text-decoration="none" x="800" y="360">UNREGISTERED</text><text fill="#eeeeee" stroke="none" font-family="Arial" font-size="24px" font-style="normal" font-weight="normal" text-decoration="none" x="800" y="390">UNREGISTERED</text><text fill="#eeeeee" stroke="none" font-family="Arial" font-size="24px" font-style="normal" font-weight="normal" text-decoration="none" x="800" y="420">UNREGISTERED</text><text fill="#eeeeee" stroke="none" font-family="Arial" font-size="24px" font-style="normal" font-weight="normal" text-decoration="none" x="800" y="450">UNREGISTERED</text><text fill="#eeeeee" stroke="none" font-family="Arial" font-size="24px" font-style="normal" font-weight="normal" text-decoration="none" x="800" y="480">UNREGISTERED</text><text fill="#eeeeee" stroke="none" font-family="Arial" font-size="24px" font-style="normal" font-weight="normal" text-decoration="none" x="800" y="510">UNREGISTERED</text><text fill="#eeeeee" stroke="none" font-family="Arial" font-size="24px" font-style="normal" font-weight="normal" text-decoration="none" x="800" y="540">UNREGISTERED</text><text fill="#eeeeee" stroke="none" font-family="Arial" font-size="24px" font-style="normal" font-weight="normal" text-decoration="none" x="800" y="570">UNREGISTERED</text><text fill="#eeeeee" stroke="none" font-family="Arial" font-size="24px" font-style="normal" font-weight="normal" text-decoration="none" x="1000" y="0">UNREGISTERED</text><text fill="#eeeeee" stroke="none" font-family="Arial" font-size="24px" font-style="normal" font-weight="normal" text-decoration="none" x="1000" y="30">UNREGISTERED</text><text fill="#eeeeee" stroke="none" font-family="Arial" font-size="24px" font-style="normal" font-weight="normal" text-decoration="none" x="1000" y="60">UNREGISTERED</text><text fill="#eeeeee" stroke="none" font-family="Arial" font-size="24px" font-style="normal" font-weight="normal" text-decoration="none" x="1000" y="90">UNREGISTERED</text><text fill="#eeeeee" stroke="none" font-family="Arial" font-size="24px" font-style="normal" font-weight="normal" text-decoration="none" x="1000" y="120">UNREGISTERED</text><text fill="#eeeeee" stroke="none" font-family="Arial" font-size="24px" font-style="normal" font-weight="normal" text-decoration="none" x="1000" y="150">UNREGISTERED</text><text fill="#eeeeee" stroke="none" font-family="Arial" font-size="24px" font-style="normal" font-weight="normal" text-decoration="none" x="1000" y="180">UNREGISTERED</text><text fill="#eeeeee" stroke="none" font-family="Arial" font-size="24px" font-style="normal" font-weight="normal" text-decoration="none" x="1000" y="210">UNREGISTERED</text><text fill="#eeeeee" stroke="none" font-family="Arial" font-size="24px" font-style="normal" font-weight="normal" text-decoration="none" x="1000" y="240">UNREGISTERED</text><text fill="#eeeeee" stroke="none" font-family="Arial" font-size="24px" font-style="normal" font-weight="normal" text-decoration="none" x="1000" y="270">UNREGISTERED</text><text fill="#eeeeee" stroke="none" font-family="Arial" font-size="24px" font-style="normal" font-weight="normal" text-decoration="none" x="1000" y="300">UNREGISTERED</text><text fill="#eeeeee" stroke="none" font-family="Arial" font-size="24px" font-style="normal" font-weight="normal" text-decoration="none" x="1000" y="330">UNREGISTERED</text><text fill="#eeeeee" stroke="none" font-family="Arial" font-size="24px" font-style="normal" font-weight="normal" text-decoration="none" x="1000" y="360">UNREGISTERED</text><text fill="#eeeeee" stroke="none" font-family="Arial" font-size="24px" font-style="normal" font-weight="normal" text-decoration="none" x="1000" y="390">UNREGISTERED</text><text fill="#eeeeee" stroke="none" font-family="Arial" font-size="24px" font-style="normal" font-weight="normal" text-decoration="none" x="1000" y="420">UNREGISTERED</text><text fill="#eeeeee" stroke="none" font-family="Arial" font-size="24px" font-style="normal" font-weight="normal" text-decoration="none" x="1000" y="450">UNREGISTERED</text><text fill="#eeeeee" stroke="none" font-family="Arial" font-size="24px" font-style="normal" font-weight="normal" text-decoration="none" x="1000" y="480">UNREGISTERED</text><text fill="#eeeeee" stroke="none" font-family="Arial" font-size="24px" font-style="normal" font-weight="normal" text-decoration="none" x="1000" y="510">UNREGISTERED</text><text fill="#eeeeee" stroke="none" font-family="Arial" font-size="24px" font-style="normal" font-weight="normal" text-decoration="none" x="1000" y="540">UNREGISTERED</text><text fill="#eeeeee" stroke="none" font-family="Arial" font-size="24px" font-style="normal" font-weight="normal" text-decoration="none" x="1000" y="570">UNREGISTERED</text><g transform="translate(-118,-78) scale(1,1)"><path fill="#C0C0C0" stroke="none" d="M 1127 499.5 C 1127 492.59644 1132.59644 487 1139.5 487 C 1146.40356 487 1152 492.59644 1152 499.5 C 1152 506.40356 1146.40356 512 1139.5 512 C 1132.59644 512 1127 506.40356 1127 499.5 Z" opacity="0.2"/></g><g transform="translate(-118,-78) scale(1,1)"><path fill="none" stroke="#000000" d="M 1120 492.5 C 1120 485.59644 1125.59644 480 1132.5 480 C 1139.40356 480 1145 485.59644 1145 492.5 C 1145 499.40356 1139.40356 505 1132.5 505 C 1125.59644 505 1120 499.40356 1120 492.5 Z" stroke-miterlimit="10"/></g><g transform="translate(-118,-78) scale(1,1)"><path fill="#000000" stroke="none" d="M 1125 492.5 C 1125 488.357864 1128.357864 485 1132.5 485 C 1136.642136 485 1140 488.357864 1140 492.5 C 1140 496.642136 1136.642136 500 1132.5 500 C 1128.357864 500 1125 496.642136 1125 492.5 Z"/></g><g transform="translate(-118,-78) scale(1,1)"><path fill="#C0C0C0" stroke="none" d="M 135 168.5 C 135 163.2532944 139.2532944 159 144.5 159 C 149.7467056 159 154 163.2532944 154 168.5 C 154 173.7467056 149.7467056 178 144.5 178 C 139.2532944 178 135 173.7467056 135 168.5 Z" opacity="0.2"/></g><g transform="translate(-118,-78) scale(1,1)"><path fill="#000000" stroke="none" d="M 128 161.5 C 128 156.2532944 132.2532944 152 137.5 152 C 142.7467056 152 147 156.2532944 147 161.5 C 147 166.7467056 142.7467056 171 137.5 171 C 132.2532944 171 128 166.7467056 128 161.5 Z"/></g><g transform="translate(-118,-78) scale(1,1)"><path fill="#C0C0C0" stroke="none" d="M 1041 95 L 1244 95 Q 1254 95 1254 105 L 1254 236 Q 1254 246 1244 246 L 1041 246 Q 1031 246 1031 236 L 1031 105 Q 1031 95 1041 95 Z" opacity="0.2"/></g><g transform="translate(-118,-78) scale(1,1)"><path fill="#ffffff" stroke="none" d="M 1034 88 L 1237 88 Q 1247 88 1247 98 L 1247 229 Q 1247 239 1237 239 L 1034 239 Q 1024 239 1024 229 L 1024 98 Q 1024 88 1034 88 Z"/></g><g transform="translate(-118,-78) scale(1,1)"><path fill="none" stroke="#000000" d="M 1034 88 L 1237 88 Q 1247 88 1247 98 L 1247 229 Q 1247 239 1237 239 L 1034 239 Q 1024 239 1024 229 L 1024 98 Q 1024 88 1034 88 Z" stroke-miterlimit="10"/></g><g transform="translate(-118,-78) scale(1,1)"><path fill="none" stroke="#000000" d="M 1024 113 L 1247 113" stroke-miterlimit="10"/></g><g transform="translate(-118,-78) scale(1,1)"><g><path fill="none" stroke="none"/><text fill="#000000" stroke="none" font-family="Arial" font-size="13px" font-style="normal" font-weight="bold" text-decoration="none" x="1103.714111328125" y="106">Cria conta</text></g></g><g transform="translate(-118,-78) scale(1,1)"><g><path fill="none" stroke="none"/><text fill="#000000" stroke="none" font-family="Arial" font-size="13px" font-style="normal" font-weight="normal" text-decoration="none" x="1029" y="129">do/CriaConta</text></g></g><g transform="translate(-118,-78) scale(1,1)"><path fill="none" stroke="#000000" d="M 369 160 L 559 162" stroke-miterlimit="10"/></g><g transform="translate(-118,-78) scale(1,1)"><path fill="none" stroke="#000000" d="M 548.7935798661309 166.10231496242707 L 559 162 L 548.8821963832071 157.68374584019753" stroke-miterlimit="10"/></g><g transform="translate(-118,-78) scale(1,1)"><g><path fill="none" stroke="none"/><text fill="#000000" stroke="none" font-family="Arial" font-size="13px" font-style="normal" font-weight="normal" text-decoration="none" x="375.5" y="151">Verifica se a pessoa tem conta</text></g></g><g transform="translate(-118,-78) scale(1,1)"><path fill="#C0C0C0" stroke="none" d="M 577 103 L 740 103 Q 750 103 750 113 L 750 228 Q 750 238 740 238 L 577 238 Q 567 238 567 228 L 567 113 Q 567 103 577 103 Z" opacity="0.2"/></g><g transform="translate(-118,-78) scale(1,1)"><path fill="#ffffff" stroke="none" d="M 570 96 L 733 96 Q 743 96 743 106 L 743 221 Q 743 231 733 231 L 570 231 Q 560 231 560 221 L 560 106 Q 560 96 570 96 Z"/></g><g transform="translate(-118,-78) scale(1,1)"><path fill="none" stroke="#000000" d="M 570 96 L 733 96 Q 743 96 743 106 L 743 221 Q 743 231 733 231 L 570 231 Q 560 231 560 221 L 560 106 Q 560 96 570 96 Z" stroke-miterlimit="10"/></g><g transform="translate(-118,-78) scale(1,1)"><path fill="none" stroke="#000000" d="M 560 121 L 743 121" stroke-miterlimit="10"/></g><g transform="translate(-118,-78) scale(1,1)"><g><path fill="none" stroke="none"/><text fill="#000000" stroke="none" font-family="Arial" font-size="13px" font-style="normal" font-weight="bold" text-decoration="none" x="608.15185546875" y="114">Verifica Conta</text></g></g><g transform="translate(-118,-78) scale(1,1)"><g><path fill="none" stroke="none"/><text fill="#000000" stroke="none" font-family="Arial" font-size="13px" font-style="normal" font-weight="normal" text-decoration="none" x="565" y="137">do/verificaConta</text></g></g><g transform="translate(-118,-78) scale(1,1)"><path fill="#ffffff" stroke="none" d="M 1064 600 L 1188 600 L 1198 610 L 1198 654 L 1064 654 L 1064 600"/></g><g transform="translate(-118,-78) scale(1,1)"><path fill="none" stroke="#000000" d="M 1064 600 L 1188 600 L 1198 610 L 1198 654 L 1064 654 L 1064 600 L 1064 600" stroke-miterlimit="10"/></g><g transform="translate(-118,-78) scale(1,1)"><path fill="none" stroke="#000000" d="M 1188 600 L 1188 610 L 1198 610 L 1188 600" stroke-miterlimit="10"/></g><g transform="translate(-118,-78) scale(1,1)"><g><path fill="none" stroke="none"/><text fill="#000000" stroke="none" font-family="Arial" font-size="13px" font-style="normal" font-weight="normal" text-decoration="none" x="1069" y="615">Estado Final</text></g></g><g transform="translate(-118,-78) scale(1,1)"><path fill="none" stroke="#000000" d="M 1132 506 L 1131 599" stroke-miterlimit="10" stroke-dasharray="3"/></g><g transform="translate(-118,-78) scale(1,1)"><path fill="#ffffff" stroke="none" d="M 760 536 L 925 536 L 935 546 L 935 639 L 760 639 L 760 536"/></g><g transform="translate(-118,-78) scale(1,1)"><path fill="none" stroke="#000000" d="M 760 536 L 925 536 L 935 546 L 935 639 L 760 639 L 760 536 L 760 536" stroke-miterlimit="10"/></g><g transform="translate(-118,-78) scale(1,1)"><path fill="none" stroke="#000000" d="M 925 536 L 925 546 L 935 546 L 925 536" stroke-miterlimit="10"/></g><g transform="translate(-118,-78) scale(1,1)"><g><path fill="none" stroke="none"/><text fill="#000000" stroke="none" font-family="Arial" font-size="13px" font-style="normal" font-weight="normal" text-decoration="none" x="765" y="551">Entra na conta criada</text></g></g><g transform="translate(-118,-78) scale(1,1)"><g><path fill="none" stroke="none"/><text fill="#000000" stroke="none" font-family="Arial" font-size="13px" font-style="normal" font-weight="normal" text-decoration="none" x="861" y="255">Caso a conta exista</text></g></g><g transform="translate(-118,-78) scale(1,1)"><path fill="none" stroke="#000000" d="M 873 168 L 1023 165" stroke-miterlimit="10"/></g><g transform="translate(-118,-78) scale(1,1)"><path fill="none" stroke="#000000" d="M 1012.9235305898891 169.41188896359589 L 1023 165 L 1012.755183545691 160.9945367536925" stroke-miterlimit="10"/></g><g transform="translate(-118,-78) scale(1,1)"><g><path fill="none" stroke="none"/><text fill="#000000" stroke="none" font-family="Arial" font-size="13px" font-style="normal" font-weight="normal" text-decoration="none" x="871.5" y="154">Caso não tenha conta</text></g></g><g transform="translate(-118,-78) scale(1,1)"><path fill="none" stroke="#000000" d="M 1134 240 L 1132 479" stroke-miterlimit="10"/></g><g transform="translate(-118,-78) scale(1,1)"><path fill="none" stroke="#000000" d="M 1127.875669952491 468.8024560967253 L 1132 479 L 1136.2944107010082 468.872905810102" stroke-miterlimit="10"/></g><g transform="translate(-118,-78) scale(1,1)"><path fill="#C0C0C0" stroke="none" d="M 327 167.5 L 351.5 151 L 375 167.5 L 351.5 183 L 327 167.5" opacity="0.2"/></g><g transform="translate(-118,-78) scale(1,1)"><path fill="#ffffff" stroke="none" d="M 320 160 L 344 144 L 368 160 L 344 176 L 320 160"/></g><g transform="translate(-118,-78) scale(1,1)"><path fill="none" stroke="#000000" d="M 320 160 L 344 144 L 368 160 L 344 176 L 320 160 L 320 160" stroke-miterlimit="10"/></g><g transform="translate(-118,-78) scale(1,1)"><path fill="none" stroke="#000000" d="M 148 161 L 319 160" stroke-miterlimit="10"/></g><g transform="translate(-118,-78) scale(1,1)"><path fill="none" stroke="#000000" d="M 308.8621155543031 164.26887560906812 L 319 160 L 308.81288227034815 155.84998405277602" stroke-miterlimit="10"/></g><g transform="translate(-118,-78) scale(1,1)"><g><path fill="none" stroke="none"/><text fill="#000000" stroke="none" font-family="Arial" font-size="13px" font-style="normal" font-weight="normal" text-decoration="none" x="147.5" y="150">Conta Cliente ou Trabalhador</text></g></g><g transform="translate(-118,-78) scale(1,1)"><path fill="#C0C0C0" stroke="none" d="M 823 175.5 L 851.5 151 L 879 175.5 L 851.5 199 L 823 175.5" opacity="0.2"/></g><g transform="translate(-118,-78) scale(1,1)"><path fill="#ffffff" stroke="none" d="M 816 168 L 844 144 L 872 168 L 844 192 L 816 168"/></g><g transform="translate(-118,-78) scale(1,1)"><path fill="none" stroke="#000000" d="M 816 168 L 844 144 L 872 168 L 844 192 L 816 168 L 816 168" stroke-miterlimit="10"/></g><g transform="translate(-118,-78) scale(1,1)"><path fill="none" stroke="#000000" d="M 744 165 L 815 167" stroke-miterlimit="10"/></g><g transform="translate(-118,-78) scale(1,1)"><path fill="none" stroke="#000000" d="M 804.7228238043909 170.92168961602107 L 815 167 L 804.9598856994386 162.50599234183326" stroke-miterlimit="10"/></g><g transform="translate(-118,-78) scale(1,1)"><path fill="#C0C0C0" stroke="none" d="M 839 451.5 C 839 444.59644 844.59644 439 851.5 439 C 858.40356 439 864 444.59644 864 451.5 C 864 458.40356 858.40356 464 851.5 464 C 844.59644 464 839 458.40356 839 451.5 Z" opacity="0.2"/></g><g transform="translate(-118,-78) scale(1,1)"><path fill="none" stroke="#000000" d="M 832 444.5 C 832 437.59644 837.59644 432 844.5 432 C 851.40356 432 857 437.59644 857 444.5 C 857 451.40356 851.40356 457 844.5 457 C 837.59644 457 832 451.40356 832 444.5 Z" stroke-miterlimit="10"/></g><g transform="translate(-118,-78) scale(1,1)"><path fill="#000000" stroke="none" d="M 837 444.5 C 837 440.357864 840.357864 437 844.5 437 C 848.642136 437 852 440.357864 852 444.5 C 852 448.642136 848.642136 452 844.5 452 C 840.357864 452 837 448.642136 837 444.5 Z"/></g><g transform="translate(-118,-78) scale(1,1)"><path fill="none" stroke="#000000" d="M 844 193 L 844 431" stroke-miterlimit="10"/></g><g transform="translate(-118,-78) scale(1,1)"><path fill="none" stroke="#000000" d="M 839.790482243984 420.83732514237585 L 844 431 L 848.209517756016 420.83732514237585" stroke-miterlimit="10"/></g><g transform="translate(-118,-78) scale(1,1)"><path fill="none" stroke="#000000" d="M 844 458 L 847 535" stroke-miterlimit="10" stroke-dasharray="3"/></g></g></svg>