<svg version="1.1" xmlns="http://www.w3.org/2000/svg" xmlns:xlink="http://www.w3.org/1999/xlink" width="1147" height="499"><defs/><g><text fill="#eeeeee" stroke="none" font-family="Arial" font-size="24px" font-style="normal" font-weight="normal" text-decoration="none" x="0" y="0">UNREGISTERED</text><text fill="#eeeeee" stroke="none" font-family="Arial" font-size="24px" font-style="normal" font-weight="normal" text-decoration="none" x="0" y="30">UNREGISTERED</text><text fill="#eeeeee" stroke="none" font-family="Arial" font-size="24px" font-style="normal" font-weight="normal" text-decoration="none" x="0" y="60">UNREGISTERED</text><text fill="#eeeeee" stroke="none" font-family="Arial" font-size="24px" font-style="normal" font-weight="normal" text-decoration="none" x="0" y="90">UNREGISTERED</text><text fill="#eeeeee" stroke="none" font-family="Arial" font-size="24px" font-style="normal" font-weight="normal" text-decoration="none" x="0" y="120">UNREGISTERED</text><text fill="#eeeeee" stroke="none" font-family="Arial" font-size="24px" font-style="normal" font-weight="normal" text-decoration="none" x="0" y="150">UNREGISTERED</text><text fill="#eeeeee" stroke="none" font-family="Arial" font-size="24px" font-style="normal" font-weight="normal" text-decoration="none" x="0" y="180">UNREGISTERED</text><text fill="#eeeeee" stroke="none" font-family="Arial" font-size="24px" font-style="normal" font-weight="normal" text-decoration="none" x="0" y="210">UNREGISTERED</text><text fill="#eeeeee" stroke="none" font-family="Arial" font-size="24px" font-style="normal" font-weight="normal" text-decoration="none" x="0" y="240">UNREGISTERED</text><text fill="#eeeeee" stroke="none" font-family="Arial" font-size="24px" font-style="normal" font-weight="normal" text-decoration="none" x="0" y="270">UNREGISTERED</text><text fill="#eeeeee" stroke="none" font-family="Arial" font-size="24px" font-style="normal" font-weight="normal" text-decoration="none" x="0" y="300">UNREGISTERED</text><text fill="#eeeeee" stroke="none" font-family="Arial" font-size="24px" font-style="normal" font-weight="normal" text-decoration="none" x="0" y="330">UNREGISTERED</text><text fill="#eeeeee" stroke="none" font-family="Arial" font-size="24px" font-style="normal" font-weight="normal" text-decoration="none" x="0" y="360">UNREGISTERED</text><text fill="#eeeeee" stroke="none" font-family="Arial" font-size="24px" font-style="normal" font-weight="normal" text-decoration="none" x="0" y="390">UNREGISTERED</text><text fill="#eeeeee" stroke="none" font-family="Arial" font-size="24px" font-style="normal" font-weight="normal" text-decoration="none" x="0" y="420">UNREGISTERED</text><text fill="#eeeeee" stroke="none" font-family="Arial" font-size="24px" font-style="normal" font-weight="normal" text-decoration="none" x="0" y="450">UNREGISTERED</text><text fill="#eeeeee" stroke="none" font-family="Arial" font-size="24px" font-style="normal" font-weight="normal" text-decoration="none" x="0" y="480">UNREGISTERED</text><text fill="#eeeeee" stroke="none" font-family="Arial" font-size="24px" font-style="normal" font-weight="normal" text-decoration="none" x="200" y="0">UNREGISTERED</text><text fill="#eeeeee" stroke="none" font-family="Arial" font-size="24px" font-style="normal" font-weight="normal" text-decoration="none" x="200" y="30">UNREGISTERED</text><text fill="#eeeeee" stroke="none" font-family="Arial" font-size="24px" font-style="normal" font-weight="normal" text-decoration="none" x="200" y="60">UNREGISTERED</text><text fill="#eeeeee" stroke="none" font-family="Arial" font-size="24px" font-style="normal" font-weight="normal" text-decoration="none" x="200" y="90">UNREGISTERED</text><text fill="#eeeeee" stroke="none" font-family="Arial" font-size="24px" font-style="normal" font-weight="normal" text-decoration="none" x="200" y="120">UNREGISTERED</text><text fill="#eeeeee" stroke="none" font-family="Arial" font-size="24px" font-style="normal" font-weight="normal" text-decoration="none" x="200" y="150">UNREGISTERED</text><text fill="#eeeeee" stroke="none" font-family="Arial" font-size="24px" font-style="normal" font-weight="normal" text-decoration="none" x="200" y="180">UNREGISTERED</text><text fill="#eeeeee" stroke="none" font-family="Arial" font-size="24px" font-style="normal" font-weight="normal" text-decoration="none" x="200" y="210">UNREGISTERED</text><text fill="#eeeeee" stroke="none" font-family="Arial" font-size="24px" font-style="normal" font-weight="normal" text-decoration="none" x="200" y="240">UNREGISTERED</text><text fill="#eeeeee" stroke="none" font-family="Arial" font-size="24px" font-style="normal" font-weight="normal" text-decoration="none" x="200" y="270">UNREGISTERED</text><text fill="#eeeeee" stroke="none" font-family="Arial" font-size="24px" font-style="normal" font-weight="normal" text-decoration="none" x="200" y="300">UNREGISTERED</text><text fill="#eeeeee" stroke="none" font-family="Arial" font-size="24px" font-style="normal" font-weight="normal" text-decoration="none" x="200" y="330">UNREGISTERED</text><text fill="#eeeeee" stroke="none" font-family="Arial" font-size="24px" font-style="normal" font-weight="normal" text-decoration="none" x="200" y="360">UNREGISTERED</text><text fill="#eeeeee" stroke="none" font-family="Arial" font-size="24px" font-style="normal" font-weight="normal" text-decoration="none" x="200" y="390">UNREGISTERED</text><text fill="#eeeeee" stroke="none" font-family="Arial" font-size="24px" font-style="normal" font-weight="normal" text-decoration="none" x="200" y="420">UNREGISTERED</text><text fill="#eeeeee" stroke="none" font-family="Arial" font-size="24px" font-style="normal" font-weight="normal" text-decoration="none" x="200" y="450">UNREGISTERED</text><text fill="#eeeeee" stroke="none" font-family="Arial" font-size="24px" font-style="normal" font-weight="normal" text-decoration="none" x="200" y="480">UNREGISTERED</text><text fill="#eeeeee" stroke="none" font-family="Arial" font-size="24px" font-style="normal" font-weight="normal" text-decoration="none" x="400" y="0">UNREGISTERED</text><text fill="#eeeeee" stroke="none" font-family="Arial" font-size="24px" font-style="normal" font-weight="normal" text-decoration="none" x="400" y="30">UNREGISTERED</text><text fill="#eeeeee" stroke="none" font-family="Arial" font-size="24px" font-style="normal" font-weight="normal" text-decoration="none" x="400" y="60">UNREGISTERED</text><text fill="#eeeeee" stroke="none" font-family="Arial" font-size="24px" font-style="normal" font-weight="normal" text-decoration="none" x="400" y="90">UNREGISTERED</text><text fill="#eeeeee" stroke="none" font-family="Arial" font-size="24px" font-style="normal" font-weight="normal" text-decoration="none" x="400" y="120">UNREGISTERED</text><text fill="#eeeeee" stroke="none" font-family="Arial" font-size="24px" font-style="normal" font-weight="normal" text-decoration="none" x="400" y="150">UNREGISTERED</text><text fill="#eeeeee" stroke="none" font-family="Arial" font-size="24px" font-style="normal" font-weight="normal" text-decoration="none" x="400" y="180">UNREGISTERED</text><text fill="#eeeeee" stroke="none" font-family="Arial" font-size="24px" font-style="normal" font-weight="normal" text-decoration="none" x="400" y="210">UNREGISTERED</text><text fill="#eeeeee" stroke="none" font-family="Arial" font-size="24px" font-style="normal" font-weight="normal" text-decoration="none" x="400" y="240">UNREGISTERED</text><text fill="#eeeeee" stroke="none" font-family="Arial" font-size="24px" font-style="normal" font-weight="normal" text-decoration="none" x="400" y="270">UNREGISTERED</text><text fill="#eeeeee" stroke="none" font-family="Arial" font-size="24px" font-style="normal" font-weight="normal" text-decoration="none" x="400" y="300">UNREGISTERED</text><text fill="#eeeeee" stroke="none" font-family="Arial" font-size="24px" font-style="normal" font-weight="normal" text-decoration="none" x="400" y="330">UNREGISTERED</text><text fill="#eeeeee" stroke="none" font-family="Arial" font-size="24px" font-style="normal" font-weight="normal" text-decoration="none" x="400" y="360">UNREGISTERED</text><text fill="#eeeeee" stroke="none" font-family="Arial" font-size="24px" font-style="normal" font-weight="normal" text-decoration="none" x="400" y="390">UNREGISTERED</text><text fill="#eeeeee" stroke="none" font-family="Arial" font-size="24px" font-style="normal" font-weight="normal" text-decoration="none" x="400" y="420">UNREGISTERED</text><text fill="#eeeeee" stroke="none" font-family="Arial" font-size="24px" font-style="normal" font-weight="normal" text-decoration="none" x="400" y="450">UNREGISTERED</text><text fill="#eeeeee" stroke="none" font-family="Arial" font-size="24px" font-style="normal" font-weight="normal" text-decoration="none" x="400" y="480">UNREGISTERED</text><text fill="#eeeeee" stroke="none" font-family="Arial" font-size="24px" font-style="normal" font-weight="normal" text-decoration="none" x="600" y="0">UNREGISTERED</text><text fill="#eeeeee" stroke="none" font-family="Arial" font-size="24px" font-style="normal" font-weight="normal" text-decoration="none" x="600" y="30">UNREGISTERED</text><text fill="#eeeeee" stroke="none" font-family="Arial" font-size="24px" font-style="normal" font-weight="normal" text-decoration="none" x="600" y="60">UNREGISTERED</text><text fill="#eeeeee" stroke="none" font-family="Arial" font-size="24px" font-style="normal" font-weight="normal" text-decoration="none" x="600" y="90">UNREGISTERED</text><text fill="#eeeeee" stroke="none" font-family="Arial" font-size="24px" font-style="normal" font-weight="normal" text-decoration="none" x="600" y="120">UNREGISTERED</text><text fill="#eeeeee" stroke="none" font-family="Arial" font-size="24px" font-style="normal" font-weight="normal" text-decoration="none" x="600" y="150">UNREGISTERED</text><text fill="#eeeeee" stroke="none" font-family="Arial" font-size="24px" font-style="normal" font-weight="normal" text-decoration="none" x="600" y="180">UNREGISTERED</text><text fill="#eeeeee" stroke="none" font-family="Arial" font-size="24px" font-style="normal" font-weight="normal" text-decoration="none" x="600" y="210">UNREGISTERED</text><text fill="#eeeeee" stroke="none" font-family="Arial" font-size="24px" font-style="normal" font-weight="normal" text-decoration="none" x="600" y="240">UNREGISTERED</text><text fill="#eeeeee" stroke="none" font-family="Arial" font-size="24px" font-style="normal" font-weight="normal" text-decoration="none" x="600" y="270">UNREGISTERED</text><text fill="#eeeeee" stroke="none" font-family="Arial" font-size="24px" font-style="normal" font-weight="normal" text-decoration="none" x="600" y="300">UNREGISTERED</text><text fill="#eeeeee" stroke="none" font-family="Arial" font-size="24px" font-style="normal" font-weight="normal" text-decoration="none" x="600" y="330">UNREGISTERED</text><text fill="#eeeeee" stroke="none" font-family="Arial" font-size="24px" font-style="normal" font-weight="normal" text-decoration="none" x="600" y="360">UNREGISTERED</text><text fill="#eeeeee" stroke="none" font-family="Arial" font-size="24px" font-style="normal" font-weight="normal" text-decoration="none" x="600" y="390">UNREGISTERED</text><text fill="#eeeeee" stroke="none" font-family="Arial" font-size="24px" font-style="normal" font-weight="normal" text-decoration="none" x="600" y="420">UNREGISTERED</text><text fill="#eeeeee" stroke="none" font-family="Arial" font-size="24px" font-style="normal" font-weight="normal" text-decoration="none" x="600" y="450">UNREGISTERED</text><text fill="#eeeeee" stroke="none" font-family="Arial" font-size="24px" font-style="normal" font-weight="normal" text-decoration="none" x="600" y="480">UNREGISTERED</text><text fill="#eeeeee" stroke="none" font-family="Arial" font-size="24px" font-style="normal" font-weight="normal" text-decoration="none" x="800" y="0">UNREGISTERED</text><text fill="#eeeeee" stroke="none" font-family="Arial" font-size="24px" font-style="normal" font-weight="normal" text-decoration="none" x="800" y="30">UNREGISTERED</text><text fill="#eeeeee" stroke="none" font-family="Arial" font-size="24px" font-style="normal" font-weight="normal" text-decoration="none" x="800" y="60">UNREGISTERED</text><text fill="#eeeeee" stroke="none" font-family="Arial" font-size="24px" font-style="normal" font-weight="normal" text-decoration="none" x="800" y="90">UNREGISTERED</text><text fill="#eeeeee" stroke="none" font-family="Arial" font-size="24px" font-style="normal" font-weight="normal" text-decoration="none" x="800" y="120">UNREGISTERED</text><text fill="#eeeeee" stroke="none" font-family="Arial" font-size="24px" font-style="normal" font-weight="normal" text-decoration="none" x="800" y="150">UNREGISTERED</text><text fill="#eeeeee" stroke="none" font-family="Arial" font-size="24px" font-style="normal" font-weight="normal" text-decoration="none" x="800" y="180">UNREGISTERED</text><text fill="#eeeeee" stroke="none" font-family="Arial" font-size="24px" font-style="normal" font-weight="normal" text-decoration="none" x="800" y="210">UNREGISTERED</text><text fill="#eeeeee" stroke="none" font-family="Arial" font-size="24px" font-style="normal" font-weight="normal" text-decoration="none" x="800" y="240">UNREGISTERED</text><text fill="#eeeeee" stroke="none" font-family="Arial" font-size="24px" font-style="normal" font-weight="normal" text-decoration="none" x="800" y="270">UNREGISTERED</text><text fill="#eeeeee" stroke="none" font-family="Arial" font-size="24px" font-style="normal" font-weight="normal" text-decoration="none" x="800" y="300">UNREGISTERED</text><text fill="#eeeeee" stroke="none" font-family="Arial" font-size="24px" font-style="normal" font-weight="normal" text-decoration="none" x="800" y="330">UNREGISTERED</text><text fill="#eeeeee" stroke="none" font-family="Arial" font-size="24px" font-style="normal" font-weight="normal" text-decoration="none" x="800" y="360">UNREGISTERED</text><text fill="#eeeeee" stroke="none" font-family="Arial" font-size="24px" font-style="normal" font-weight="normal" text-decoration="none" x="800" y="390">UNREGISTERED</text><text fill="#eeeeee" stroke="none" font-family="Arial" font-size="24px" font-style="normal" font-weight="normal" text-decoration="none" x="800" y="420">UNREGISTERED</text><text fill="#eeeeee" stroke="none" font-family="Arial" font-size="24px" font-style="normal" font-weight="normal" text-decoration="none" x="800" y="450">UNREGISTERED</text><text fill="#eeeeee" stroke="none" font-family="Arial" font-size="24px" font-style="normal" font-weight="normal" text-decoration="none" x="800" y="480">UNREGISTERED</text><text fill="#eeeeee" stroke="none" font-family="Arial" font-size="24px" font-style="normal" font-weight="normal" text-decoration="none" x="1000" y="0">UNREGISTERED</text><text fill="#eeeeee" stroke="none" font-family="Arial" font-size="24px" font-style="normal" font-weight="normal" text-decoration="none" x="1000" y="30">UNREGISTERED</text><text fill="#eeeeee" stroke="none" font-family="Arial" font-size="24px" font-style="normal" font-weight="normal" text-decoration="none" x="1000" y="60">UNREGISTERED</text><text fill="#eeeeee" stroke="none" font-family="Arial" font-size="24px" font-style="normal" font-weight="normal" text-decoration="none" x="1000" y="90">UNREGISTERED</text><text fill="#eeeeee" stroke="none" font-family="Arial" font-size="24px" font-style="normal" font-weight="normal" text-decoration="none" x="1000" y="120">UNREGISTERED</text><text fill="#eeeeee" stroke="none" font-family="Arial" font-size="24px" font-style="normal" font-weight="normal" text-decoration="none" x="1000" y="150">UNREGISTERED</text><text fill="#eeeeee" stroke="none" font-family="Arial" font-size="24px" font-style="normal" font-weight="normal" text-decoration="none" x="1000" y="180">UNREGISTERED</text><text fill="#eeeeee" stroke="none" font-family="Arial" font-size="24px" font-style="normal" font-weight="normal" text-decoration="none" x="1000" y="210">UNREGISTERED</text><text fill="#eeeeee" stroke="none" font-family="Arial" font-size="24px" font-style="normal" font-weight="normal" text-decoration="none" x="1000" y="240">UNREGISTERED</text><text fill="#eeeeee" stroke="none" font-family="Arial" font-size="24px" font-style="normal" font-weight="normal" text-decoration="none" x="1000" y="270">UNREGISTERED</text><text fill="#eeeeee" stroke="none" font-family="Arial" font-size="24px" font-style="normal" font-weight="normal" text-decoration="none" x="1000" y="300">UNREGISTERED</text><text fill="#eeeeee" stroke="none" font-family="Arial" font-size="24px" font-style="normal" font-weight="normal" text-decoration="none" x="1000" y="330">UNREGISTERED</text><text fill="#eeeeee" stroke="none" font-family="Arial" font-size="24px" font-style="normal" font-weight="normal" text-decoration="none" x="1000" y="360">UNREGISTERED</text><text fill="#eeeeee" stroke="none" font-family="Arial" font-size="24px" font-style="normal" font-weight="normal" text-decoration="none" x="1000" y="390">UNREGISTERED</text><text fill="#eeeeee" stroke="none" font-family="Arial" font-size="24px" font-style="normal" font-weight="normal" text-decoration="none" x="1000" y="420">UNREGISTERED</text><text fill="#eeeeee" stroke="none" font-family="Arial" font-size="24px" font-style="normal" font-weight="normal" text-decoration="none" x="1000" y="450">UNREGISTERED</text><text fill="#eeeeee" stroke="none" font-family="Arial" font-size="24px" font-style="normal" font-weight="normal" text-decoration="none" x="1000" y="480">UNREGISTERED</text><g transform="translate(-110,-126) scale(1,1)"><path fill="#C0C0C0" stroke="none" d="M 127 176.5 C 127 171.2532944 131.2532944 167 136.5 167 C 141.7467056 167 146 171.2532944 146 176.5 C 146 181.7467056 141.7467056 186 136.5 186 C 131.2532944 186 127 181.7467056 127 176.5 Z" opacity="0.2"/></g><g transform="translate(-110,-126) scale(1,1)"><path fill="#000000" stroke="none" d="M 120 169.5 C 120 164.2532944 124.2532944 160 129.5 160 C 134.7467056 160 139 164.2532944 139 169.5 C 139 174.7467056 134.7467056 179 129.5 179 C 124.2532944 179 120 174.7467056 120 169.5 Z"/></g><g transform="translate(-110,-126) scale(1,1)"><path fill="#C0C0C0" stroke="none" d="M 441 143 L 588 143 Q 598 143 598 153 L 598 204 Q 598 214 588 214 L 441 214 Q 431 214 431 204 L 431 153 Q 431 143 441 143 Z" opacity="0.2"/></g><g transform="translate(-110,-126) scale(1,1)"><path fill="#ffffff" stroke="none" d="M 434 136 L 581 136 Q 591 136 591 146 L 591 197 Q 591 207 581 207 L 434 207 Q 424 207 424 197 L 424 146 Q 424 136 434 136 Z"/></g><g transform="translate(-110,-126) scale(1,1)"><path fill="none" stroke="#000000" d="M 434 136 L 581 136 Q 591 136 591 146 L 591 197 Q 591 207 581 207 L 434 207 Q 424 207 424 197 L 424 146 Q 424 136 434 136 Z" stroke-miterlimit="10"/></g><g transform="translate(-110,-126) scale(1,1)"><path fill="none" stroke="#000000" d="M 424 161 L 591 161" stroke-miterlimit="10"/></g><g transform="translate(-110,-126) scale(1,1)"><g><path fill="none" stroke="none"/><text fill="#000000" stroke="none" font-family="Arial" font-size="13px" font-style="normal" font-weight="bold" text-decoration="none" x="489.812255859375" y="154">Login</text></g></g><g transform="translate(-110,-126) scale(1,1)"><g><path fill="none" stroke="none"/><text fill="#000000" stroke="none" font-family="Arial" font-size="13px" font-style="normal" font-weight="normal" text-decoration="none" x="429" y="177">do/contaTrabalhador</text></g></g><g transform="translate(-110,-126) scale(1,1)"><path fill="none" stroke="#000000" d="M 140 169 L 423 171" stroke-miterlimit="10"/></g><g transform="translate(-110,-126) scale(1,1)"><path fill="none" stroke="#000000" d="M 412.8078304181908 175.137593408691 L 423 171 L 412.86732741662127 166.71876813077762" stroke-miterlimit="10"/></g><g transform="translate(-110,-126) scale(1,1)"><g><path fill="none" stroke="none"/><text fill="#000000" stroke="none" font-family="Arial" font-size="13px" font-style="normal" font-weight="normal" text-decoration="none" x="226" y="161">Conta Trabalhador</text></g></g><g transform="translate(-110,-126) scale(1,1)"><path fill="#C0C0C0" stroke="none" d="M 881 143 L 1004 143 Q 1014 143 1014 153 L 1014 204 Q 1014 214 1004 214 L 881 214 Q 871 214 871 204 L 871 153 Q 871 143 881 143 Z" opacity="0.2"/></g><g transform="translate(-110,-126) scale(1,1)"><path fill="#ffffff" stroke="none" d="M 874 136 L 997 136 Q 1007 136 1007 146 L 1007 197 Q 1007 207 997 207 L 874 207 Q 864 207 864 197 L 864 146 Q 864 136 874 136 Z"/></g><g transform="translate(-110,-126) scale(1,1)"><path fill="none" stroke="#000000" d="M 874 136 L 997 136 Q 1007 136 1007 146 L 1007 197 Q 1007 207 997 207 L 874 207 Q 864 207 864 197 L 864 146 Q 864 136 874 136 Z" stroke-miterlimit="10"/></g><g transform="translate(-110,-126) scale(1,1)"><path fill="none" stroke="#000000" d="M 864 161 L 1007 161" stroke-miterlimit="10"/></g><g transform="translate(-110,-126) scale(1,1)"><g><path fill="none" stroke="none"/><text fill="#000000" stroke="none" font-family="Arial" font-size="13px" font-style="normal" font-weight="bold" text-decoration="none" x="882.38916015625" y="154">Cadastra Serviço</text></g></g><g transform="translate(-110,-126) scale(1,1)"><g><path fill="none" stroke="none"/><text fill="#000000" stroke="none" font-family="Arial" font-size="13px" font-style="normal" font-weight="normal" text-decoration="none" x="869" y="177">do/cadastraServiço</text></g></g><g transform="translate(-110,-126) scale(1,1)"><path fill="none" stroke="#000000" d="M 592 171 L 863 171" stroke-miterlimit="10"/></g><g transform="translate(-110,-126) scale(1,1)"><path fill="none" stroke="#000000" d="M 852.8373251423759 175.209517756016 L 863 171 L 852.8373251423758 166.790482243984" stroke-miterlimit="10"/></g><g transform="translate(-110,-126) scale(1,1)"><path fill="#C0C0C0" stroke="none" d="M 935 320.5 L 946.5 311 L 957 320.5 L 946.5 329 L 935 320.5" opacity="0.2"/></g><g transform="translate(-110,-126) scale(1,1)"><path fill="#ffffff" stroke="none" d="M 928 313 L 939 304 L 950 313 L 939 322 L 928 313"/></g><g transform="translate(-110,-126) scale(1,1)"><path fill="none" stroke="#000000" d="M 928 313 L 939 304 L 950 313 L 939 322 L 928 313 L 928 313" stroke-miterlimit="10"/></g><g transform="translate(-110,-126) scale(1,1)"><path fill="none" stroke="#000000" d="M 936 208 L 939 303" stroke-miterlimit="10"/></g><g transform="translate(-110,-126) scale(1,1)"><path fill="none" stroke="#000000" d="M 934.4718129287297 292.97525452454875 L 939 303 L 942.8866537207844 292.7095227100628" stroke-miterlimit="10"/></g><g transform="translate(-110,-126) scale(1,1)"><g><path fill="none" stroke="none"/><text fill="#000000" stroke="none" font-family="Arial" font-size="13px" font-style="normal" font-weight="normal" text-decoration="none" x="866.5" y="259">Ter ou não serviço disponível</text></g></g><g transform="translate(-110,-126) scale(1,1)"><path fill="#C0C0C0" stroke="none" d="M 687 315.5 C 687 308.59644 692.59644 303 699.5 303 C 706.40356 303 712 308.59644 712 315.5 C 712 322.40356 706.40356 328 699.5 328 C 692.59644 328 687 322.40356 687 315.5 Z" opacity="0.2"/></g><g transform="translate(-110,-126) scale(1,1)"><path fill="none" stroke="#000000" d="M 680 308.5 C 680 301.59644 685.59644 296 692.5 296 C 699.40356 296 705 301.59644 705 308.5 C 705 315.40356 699.40356 321 692.5 321 C 685.59644 321 680 315.40356 680 308.5 Z" stroke-miterlimit="10"/></g><g transform="translate(-110,-126) scale(1,1)"><path fill="#000000" stroke="none" d="M 685 308.5 C 685 304.357864 688.357864 301 692.5 301 C 696.642136 301 700 304.357864 700 308.5 C 700 312.642136 696.642136 316 692.5 316 C 688.357864 316 685 312.642136 685 308.5 Z"/></g><g transform="translate(-110,-126) scale(1,1)"><path fill="none" stroke="#000000" d="M 927 313 L 706 308" stroke-miterlimit="10"/></g><g transform="translate(-110,-126) scale(1,1)"><path fill="none" stroke="#000000" d="M 716.2552884899047 304.0214251309258 L 706 308 L 716.0648613036167 312.4383067648552" stroke-miterlimit="10"/></g><g transform="translate(-110,-126) scale(1,1)"><g><path fill="none" stroke="none"/><text fill="#000000" stroke="none" font-family="Arial" font-size="13px" font-style="normal" font-weight="normal" text-decoration="none" x="760.5" y="329">Não possui serviço</text></g></g><g transform="translate(-110,-126) scale(1,1)"><path fill="#ffffff" stroke="none" d="M 504 288 L 562 288 L 572 298 L 572 337 L 504 337 L 504 288"/></g><g transform="translate(-110,-126) scale(1,1)"><path fill="none" stroke="#000000" d="M 504 288 L 562 288 L 572 298 L 572 337 L 504 337 L 504 288 L 504 288" stroke-miterlimit="10"/></g><g transform="translate(-110,-126) scale(1,1)"><path fill="none" stroke="#000000" d="M 562 288 L 562 298 L 572 298 L 562 288" stroke-miterlimit="10"/></g><g transform="translate(-110,-126) scale(1,1)"><g><path fill="none" stroke="none"/><text fill="#000000" stroke="none" font-family="Arial" font-size="13px" font-style="normal" font-weight="normal" text-decoration="none" x="509" y="303">Aguarda</text><text fill="#000000" stroke="none" font-family="Arial" font-size="13px" font-style="normal" font-weight="normal" text-decoration="none" x="509" y="316">serviço</text><text fill="#000000" stroke="none" font-family="Arial" font-size="13px" font-style="normal" font-weight="normal" text-decoration="none" x="509" y="326">novo</text></g></g><g transform="translate(-110,-126) scale(1,1)"><path fill="none" stroke="#000000" d="M 574 312 L 679 308" stroke-miterlimit="10" stroke-dasharray="3"/></g><g transform="translate(-110,-126) scale(1,1)"><path fill="#C0C0C0" stroke="none" d="M 1097 287 L 1244 287 Q 1254 287 1254 297 L 1254 340 Q 1254 350 1244 350 L 1097 350 Q 1087 350 1087 340 L 1087 297 Q 1087 287 1097 287 Z" opacity="0.2"/></g><g transform="translate(-110,-126) scale(1,1)"><path fill="#ffffff" stroke="none" d="M 1090 280 L 1237 280 Q 1247 280 1247 290 L 1247 333 Q 1247 343 1237 343 L 1090 343 Q 1080 343 1080 333 L 1080 290 Q 1080 280 1090 280 Z"/></g><g transform="translate(-110,-126) scale(1,1)"><path fill="none" stroke="#000000" d="M 1090 280 L 1237 280 Q 1247 280 1247 290 L 1247 333 Q 1247 343 1237 343 L 1090 343 Q 1080 343 1080 333 L 1080 290 Q 1080 280 1090 280 Z" stroke-miterlimit="10"/></g><g transform="translate(-110,-126) scale(1,1)"><path fill="none" stroke="#000000" d="M 1080 305 L 1247 305" stroke-miterlimit="10"/></g><g transform="translate(-110,-126) scale(1,1)"><g><path fill="none" stroke="none"/><text fill="#000000" stroke="none" font-family="Arial" font-size="13px" font-style="normal" font-weight="bold" text-decoration="none" x="1140.013671875" y="298">Serviço</text></g></g><g transform="translate(-110,-126) scale(1,1)"><g><path fill="none" stroke="none"/><text fill="#000000" stroke="none" font-family="Arial" font-size="13px" font-style="normal" font-weight="normal" text-decoration="none" x="1085" y="321">do/servicoDisponivel</text></g></g><g transform="translate(-110,-126) scale(1,1)"><path fill="none" stroke="#000000" d="M 951 313 L 1079 312" stroke-miterlimit="10"/></g><g transform="translate(-110,-126) scale(1,1)"><path fill="none" stroke="#000000" d="M 1068.870521122291 316.2887827720749 L 1079 312 L 1068.8047494145158 307.87000417685624" stroke-miterlimit="10"/></g><g transform="translate(-110,-126) scale(1,1)"><g><path fill="none" stroke="none"/><text fill="#000000" stroke="none" font-family="Arial" font-size="13px" font-style="normal" font-weight="normal" text-decoration="none" x="962.5" y="302">Serviço disponível</text></g></g><g transform="translate(-110,-126) scale(1,1)"><path fill="#C0C0C0" stroke="none" d="M 889 455 L 998.6181640625 455 Q 1008.6181640625 455 1008.6181640625 465 L 1008.6181640625 484 Q 1008.6181640625 494 998.6181640625 494 L 889 494 Q 879 494 879 484 L 879 465 Q 879 455 889 455 Z" opacity="0.2"/></g><g transform="translate(-110,-126) scale(1,1)"><path fill="#ffffff" stroke="none" d="M 882 448 L 991.6181640625 448 Q 1001.6181640625 448 1001.6181640625 458 L 1001.6181640625 477 Q 1001.6181640625 487 991.6181640625 487 L 882 487 Q 872 487 872 477 L 872 458 Q 872 448 882 448 Z"/></g><g transform="translate(-110,-126) scale(1,1)"><path fill="none" stroke="#000000" d="M 882 448 L 991.6181640625 448 Q 1001.6181640625 448 1001.6181640625 458 L 1001.6181640625 477 Q 1001.6181640625 487 991.6181640625 487 L 882 487 Q 872 487 872 477 L 872 458 Q 872 448 882 448 Z" stroke-miterlimit="10"/></g><g transform="translate(-110,-126) scale(1,1)"><g><path fill="none" stroke="none"/><text fill="#000000" stroke="none" font-family="Arial" font-size="13px" font-style="normal" font-weight="bold" text-decoration="none" x="876.5" y="466">Acompanha pedido</text></g></g><g transform="translate(-110,-126) scale(1,1)"><path fill="none" stroke="#000000" d="M 939 323 L 936 447" stroke-miterlimit="10"/></g><g transform="translate(-110,-126) scale(1,1)"><path fill="none" stroke="#000000" d="M 932.037512917137 436.7384847065288 L 936 447 L 940.4540855626063 436.9421114640805" stroke-miterlimit="10"/></g><g transform="translate(-110,-126) scale(1,1)"><g><path fill="none" stroke="none"/><text fill="#000000" stroke="none" font-family="Arial" font-size="13px" font-style="normal" font-weight="normal" text-decoration="none" x="885" y="415">Possui serviço</text><text fill="#000000" stroke="none" font-family="Arial" font-size="13px" font-style="normal" font-weight="normal" text-decoration="none" x="885" y="428">em andamento</text></g></g><g transform="translate(-110,-126) scale(1,1)"><path fill="none" stroke="#000000" d="M 1115 344 L 965 447" stroke-miterlimit="10"/></g><g transform="translate(-110,-126) scale(1,1)"><path fill="none" stroke="#000000" d="M 970.9948789530947 437.77712483345124 L 965 447 L 975.7605771324295 444.71746198782216" stroke-miterlimit="10"/></g><g transform="translate(-110,-126) scale(1,1)"><g><path fill="none" stroke="none"/><text fill="#000000" stroke="none" font-family="Arial" font-size="13px" font-style="normal" font-weight="normal" text-decoration="none" x="1063" y="421">Pedido entra</text><text fill="#000000" stroke="none" font-family="Arial" font-size="13px" font-style="normal" font-weight="normal" text-decoration="none" x="1063" y="434">em andamento</text></g></g><g transform="translate(-110,-126) scale(1,1)"><path fill="none" stroke="#000000" d="M 872 467 L 720 467 L 720 448 L 872 448" stroke-miterlimit="10"/></g><g transform="translate(-110,-126) scale(1,1)"><path fill="none" stroke="#000000" d="M 861.8373251423759 452.209517756016 L 872 448 L 861.8373251423758 443.790482243984" stroke-miterlimit="10"/></g><g transform="translate(-110,-126) scale(1,1)"><g><path fill="none" stroke="none"/><text fill="#000000" stroke="none" font-family="Arial" font-size="13px" font-style="normal" font-weight="normal" text-decoration="none" x="599.5" y="461">Enquanto o pedido nao for finalizado</text></g></g><g transform="translate(-110,-126) scale(1,1)"><path fill="#C0C0C0" stroke="none" d="M 881 559 L 1004 559 Q 1014 559 1014 569 L 1014 612 Q 1014 622 1004 622 L 881 622 Q 871 622 871 612 L 871 569 Q 871 559 881 559 Z" opacity="0.2"/></g><g transform="translate(-110,-126) scale(1,1)"><path fill="#ffffff" stroke="none" d="M 874 552 L 997 552 Q 1007 552 1007 562 L 1007 605 Q 1007 615 997 615 L 874 615 Q 864 615 864 605 L 864 562 Q 864 552 874 552 Z"/></g><g transform="translate(-110,-126) scale(1,1)"><path fill="none" stroke="#000000" d="M 874 552 L 997 552 Q 1007 552 1007 562 L 1007 605 Q 1007 615 997 615 L 874 615 Q 864 615 864 605 L 864 562 Q 864 552 874 552 Z" stroke-miterlimit="10"/></g><g transform="translate(-110,-126) scale(1,1)"><path fill="none" stroke="#000000" d="M 864 577 L 1007 577" stroke-miterlimit="10"/></g><g transform="translate(-110,-126) scale(1,1)"><g><path fill="none" stroke="none"/><text fill="#000000" stroke="none" font-family="Arial" font-size="13px" font-style="normal" font-weight="bold" text-decoration="none" x="900.464111328125" y="570">Pagamento</text></g></g><g transform="translate(-110,-126) scale(1,1)"><g><path fill="none" stroke="none"/><text fill="#000000" stroke="none" font-family="Arial" font-size="13px" font-style="normal" font-weight="normal" text-decoration="none" x="869" y="593">do/liberaPagemento</text></g></g><g transform="translate(-110,-126) scale(1,1)"><path fill="none" stroke="#000000" d="M 936 488 L 935 551" stroke-miterlimit="10"/></g><g transform="translate(-110,-126) scale(1,1)"><path fill="none" stroke="#000000" d="M 930.9523044249755 540.7717958305514 L 935 551 L 939.3702795382991 540.9054144831438" stroke-miterlimit="10"/></g><g transform="translate(-110,-126) scale(1,1)"><g><path fill="none" stroke="none"/><text fill="#000000" stroke="none" font-family="Arial" font-size="13px" font-style="normal" font-weight="normal" text-decoration="none" x="903.5" y="523">Pedio finalizado</text></g></g><g transform="translate(-110,-126) scale(1,1)"><path fill="#C0C0C0" stroke="none" d="M 569 559 L 684 559 Q 694 559 694 569 L 694 612 Q 694 622 684 622 L 569 622 Q 559 622 559 612 L 559 569 Q 559 559 569 559 Z" opacity="0.2"/></g><g transform="translate(-110,-126) scale(1,1)"><path fill="#ffffff" stroke="none" d="M 562 552 L 677 552 Q 687 552 687 562 L 687 605 Q 687 615 677 615 L 562 615 Q 552 615 552 605 L 552 562 Q 552 552 562 552 Z"/></g><g transform="translate(-110,-126) scale(1,1)"><path fill="none" stroke="#000000" d="M 562 552 L 677 552 Q 687 552 687 562 L 687 605 Q 687 615 677 615 L 562 615 Q 552 615 552 605 L 552 562 Q 552 552 562 552 Z" stroke-miterlimit="10"/></g><g transform="translate(-110,-126) scale(1,1)"><path fill="none" stroke="#000000" d="M 552 577 L 687 577" stroke-miterlimit="10"/></g><g transform="translate(-110,-126) scale(1,1)"><g><path fill="none" stroke="none"/><text fill="#000000" stroke="none" font-family="Arial" font-size="13px" font-style="normal" font-weight="bold" text-decoration="none" x="589.389892578125" y="570">Avaliação</text></g></g><g transform="translate(-110,-126) scale(1,1)"><g><path fill="none" stroke="none"/><text fill="#000000" stroke="none" font-family="Arial" font-size="13px" font-style="normal" font-weight="normal" text-decoration="none" x="557" y="593">do/atualizaAvaliacao</text></g></g><g transform="translate(-110,-126) scale(1,1)"><path fill="none" stroke="#000000" d="M 863 583 L 688 583" stroke-miterlimit="10"/></g><g transform="translate(-110,-126) scale(1,1)"><path fill="none" stroke="#000000" d="M 698.1626748576241 578.790482243984 L 688 583 L 698.1626748576241 587.209517756016" stroke-miterlimit="10"/></g><g transform="translate(-110,-126) scale(1,1)"><g><path fill="none" stroke="none"/><text fill="#000000" stroke="none" font-family="Arial" font-size="13px" font-style="normal" font-weight="normal" text-decoration="none" x="707.5" y="603">Trabalhador é avaliado</text></g></g><g transform="translate(-110,-126) scale(1,1)"><path fill="#C0C0C0" stroke="none" d="M 319 587.5 C 319 580.59644 324.59644 575 331.5 575 C 338.40356 575 344 580.59644 344 587.5 C 344 594.40356 338.40356 600 331.5 600 C 324.59644 600 319 594.40356 319 587.5 Z" opacity="0.2"/></g><g transform="translate(-110,-126) scale(1,1)"><path fill="none" stroke="#000000" d="M 312 580.5 C 312 573.59644 317.59644 568 324.5 568 C 331.40356 568 337 573.59644 337 580.5 C 337 587.40356 331.40356 593 324.5 593 C 317.59644 593 312 587.40356 312 580.5 Z" stroke-miterlimit="10"/></g><g transform="translate(-110,-126) scale(1,1)"><path fill="#000000" stroke="none" d="M 317 580.5 C 317 576.357864 320.357864 573 324.5 573 C 328.642136 573 332 576.357864 332 580.5 C 332 584.642136 328.642136 588 324.5 588 C 320.357864 588 317 584.642136 317 580.5 Z"/></g><g transform="translate(-110,-126) scale(1,1)"><path fill="none" stroke="#000000" d="M 551 582 L 338 580" stroke-miterlimit="10"/></g><g transform="translate(-110,-126) scale(1,1)"><path fill="none" stroke="#000000" d="M 348.20175113242635 575.8860877704991 L 338 580 L 348.1227026404026 584.3047521710298" stroke-miterlimit="10"/></g><g transform="translate(-110,-126) scale(1,1)"><g><path fill="none" stroke="none"/><text fill="#000000" stroke="none" font-family="Arial" font-size="13px" font-style="normal" font-weight="normal" text-decoration="none" x="393.491455078125" y="600">Pedido finalizado</text></g></g><g transform="translate(-110,-126) scale(1,1)"><path fill="#ffffff" stroke="none" d="M 288 456 L 346 456 L 356 466 L 356 494 L 288 494 L 288 456"/></g><g transform="translate(-110,-126) scale(1,1)"><path fill="none" stroke="#000000" d="M 288 456 L 346 456 L 356 466 L 356 494 L 288 494 L 288 456 L 288 456" stroke-miterlimit="10"/></g><g transform="translate(-110,-126) scale(1,1)"><path fill="none" stroke="#000000" d="M 346 456 L 346 466 L 356 466 L 346 456" stroke-miterlimit="10"/></g><g transform="translate(-110,-126) scale(1,1)"><g><path fill="none" stroke="none"/><text fill="#000000" stroke="none" font-family="Arial" font-size="13px" font-style="normal" font-weight="normal" text-decoration="none" x="293" y="471">Pedido</text><text fill="#000000" stroke="none" font-family="Arial" font-size="13px" font-style="normal" font-weight="normal" text-decoration="none" x="293" y="484">feito</text></g></g><g transform="translate(-110,-126) scale(1,1)"><path fill="none" stroke="#000000" d="M 324 567 L 322 496" stroke-miterlimit="10" stroke-dasharray="3"/></g></g></svg>