<svg version="1.1" xmlns="http://www.w3.org/2000/svg" xmlns:xlink="http://www.w3.org/1999/xlink" width="1051.06982421875" height="612"><defs/><g><text fill="#eeeeee" stroke="none" font-family="Arial" font-size="24px" font-style="normal" font-weight="normal" text-decoration="none" x="0" y="0">UNREGISTERED</text><text fill="#eeeeee" stroke="none" font-family="Arial" font-size="24px" font-style="normal" font-weight="normal" text-decoration="none" x="0" y="30">UNREGISTERED</text><text fill="#eeeeee" stroke="none" font-family="Arial" font-size="24px" font-style="normal" font-weight="normal" text-decoration="none" x="0" y="60">UNREGISTERED</text><text fill="#eeeeee" stroke="none" font-family="Arial" font-size="24px" font-style="normal" font-weight="normal" text-decoration="none" x="0" y="90">UNREGISTERED</text><text fill="#eeeeee" stroke="none" font-family="Arial" font-size="24px" font-style="normal" font-weight="normal" text-decoration="none" x="0" y="120">UNREGISTERED</text><text fill="#eeeeee" stroke="none" font-family="Arial" font-size="24px" font-style="normal" font-weight="normal" text-decoration="none" x="0" y="150">UNREGISTERED</text><text fill="#eeeeee" stroke="none" font-family="Arial" font-size="24px" font-style="normal" font-weight="normal" text-decoration="none" x="0" y="180">UNREGISTERED</text><text fill="#eeeeee" stroke="none" font-family="Arial" font-size="24px" font-style="normal" font-weight="normal" text-decoration="none" x="0" y="210">UNREGISTERED</text><text fill="#eeeeee" stroke="none" font-family="Arial" font-size="24px" font-style="normal" font-weight="normal" text-decoration="none" x="0" y="240">UNREGISTERED</text><text fill="#eeeeee" stroke="none" font-family="Arial" font-size="24px" font-style="normal" font-weight="normal" text-decoration="none" x="0" y="270">UNREGISTERED</text><text fill="#eeeeee" stroke="none" font-family="Arial" font-size="24px" font-style="normal" font-weight="normal" text-decoration="none" x="0" y="300">UNREGISTERED</text><text fill="#eeeeee" stroke="none" font-family="Arial" font-size="24px" font-style="normal" font-weight="normal" text-decoration="none" x="0" y="330">UNREGISTERED</text><text fill="#eeeeee" stroke="none" font-family="Arial" font-size="24px" font-style="normal" font-weight="normal" text-decoration="none" x="0" y="360">UNREGISTERED</text><text fill="#eeeeee" stroke="none" font-family="Arial" font-size="24px" font-style="normal" font-weight="normal" text-decoration="none" x="0" y="390">UNREGISTERED</text><text fill="#eeeeee" stroke="none" font-family="Arial" font-size="24px" font-style="normal" font-weight="normal" text-decoration="none" x="0" y="420">UNREGISTERED</text><text fill="#eeeeee" stroke="none" font-family="Arial" font-size="24px" font-style="normal" font-weight="normal" text-decoration="none" x="0" y="450">UNREGISTERED</text><text fill="#eeeeee" stroke="none" font-family="Arial" font-size="24px" font-style="normal" font-weight="normal" text-decoration="none" x="0" y="480">UNREGISTERED</text><text fill="#eeeeee" stroke="none" font-family="Arial" font-size="24px" font-style="normal" font-weight="normal" text-decoration="none" x="0" y="510">UNREGISTERED</text><text fill="#eeeeee" stroke="none" font-family="Arial" font-size="24px" font-style="normal" font-weight="normal" text-decoration="none" x="0" y="540">UNREGISTERED</text><text fill="#eeeeee" stroke="none" font-family="Arial" font-size="24px" font-style="normal" font-weight="normal" text-decoration="none" x="0" y="570">UNREGISTERED</text><text fill="#eeeeee" stroke="none" font-family="Arial" font-size="24px" font-style="normal" font-weight="normal" text-decoration="none" x="0" y="600">UNREGISTERED</text><text fill="#eeeeee" stroke="none" font-family="Arial" font-size="24px" font-style="normal" font-weight="normal" text-decoration="none" x="200" y="0">UNREGISTERED</text><text fill="#eeeeee" stroke="none" font-family="Arial" font-size="24px" font-style="normal" font-weight="normal" text-decoration="none" x="200" y="30">UNREGISTERED</text><text fill="#eeeeee" stroke="none" font-family="Arial" font-size="24px" font-style="normal" font-weight="normal" text-decoration="none" x="200" y="60">UNREGISTERED</text><text fill="#eeeeee" stroke="none" font-family="Arial" font-size="24px" font-style="normal" font-weight="normal" text-decoration="none" x="200" y="90">UNREGISTERED</text><text fill="#eeeeee" stroke="none" font-family="Arial" font-size="24px" font-style="normal" font-weight="normal" text-decoration="none" x="200" y="120">UNREGISTERED</text><text fill="#eeeeee" stroke="none" font-family="Arial" font-size="24px" font-style="normal" font-weight="normal" text-decoration="none" x="200" y="150">UNREGISTERED</text><text fill="#eeeeee" stroke="none" font-family="Arial" font-size="24px" font-style="normal" font-weight="normal" text-decoration="none" x="200" y="180">UNREGISTERED</text><text fill="#eeeeee" stroke="none" font-family="Arial" font-size="24px" font-style="normal" font-weight="normal" text-decoration="none" x="200" y="210">UNREGISTERED</text><text fill="#eeeeee" stroke="none" font-family="Arial" font-size="24px" font-style="normal" font-weight="normal" text-decoration="none" x="200" y="240">UNREGISTERED</text><text fill="#eeeeee" stroke="none" font-family="Arial" font-size="24px" font-style="normal" font-weight="normal" text-decoration="none" x="200" y="270">UNREGISTERED</text><text fill="#eeeeee" stroke="none" font-family="Arial" font-size="24px" font-style="normal" font-weight="normal" text-decoration="none" x="200" y="300">UNREGISTERED</text><text fill="#eeeeee" stroke="none" font-family="Arial" font-size="24px" font-style="normal" font-weight="normal" text-decoration="none" x="200" y="330">UNREGISTERED</text><text fill="#eeeeee" stroke="none" font-family="Arial" font-size="24px" font-style="normal" font-weight="normal" text-decoration="none" x="200" y="360">UNREGISTERED</text><text fill="#eeeeee" stroke="none" font-family="Arial" font-size="24px" font-style="normal" font-weight="normal" text-decoration="none" x="200" y="390">UNREGISTERED</text><text fill="#eeeeee" stroke="none" font-family="Arial" font-size="24px" font-style="normal" font-weight="normal" text-decoration="none" x="200" y="420">UNREGISTERED</text><text fill="#eeeeee" stroke="none" font-family="Arial" font-size="24px" font-style="normal" font-weight="normal" text-decoration="none" x="200" y="450">UNREGISTERED</text><text fill="#eeeeee" stroke="none" font-family="Arial" font-size="24px" font-style="normal" font-weight="normal" text-decoration="none" x="200" y="480">UNREGISTERED</text><text fill="#eeeeee" stroke="none" font-family="Arial" font-size="24px" font-style="normal" font-weight="normal" text-decoration="none" x="200" y="510">UNREGISTERED</text><text fill="#eeeeee" stroke="none" font-family="Arial" font-size="24px" font-style="normal" font-weight="normal" text-decoration="none" x="200" y="540">UNREGISTERED</text><text fill="#eeeeee" stroke="none" font-family="Arial" font-size="24px" font-style="normal" font-weight="normal" text-decoration="none" x="200" y="570">UNREGISTERED</text><text fill="#eeeeee" stroke="none" font-family="Arial" font-size="24px" font-style="normal" font-weight="normal" text-decoration="none" x="200" y="600">UNREGISTERED</text><text fill="#eeeeee" stroke="none" font-family="Arial" font-size="24px" font-style="normal" font-weight="normal" text-decoration="none" x="400" y="0">UNREGISTERED</text><text fill="#eeeeee" stroke="none" font-family="Arial" font-size="24px" font-style="normal" font-weight="normal" text-decoration="none" x="400" y="30">UNREGISTERED</text><text fill="#eeeeee" stroke="none" font-family="Arial" font-size="24px" font-style="normal" font-weight="normal" text-decoration="none" x="400" y="60">UNREGISTERED</text><text fill="#eeeeee" stroke="none" font-family="Arial" font-size="24px" font-style="normal" font-weight="normal" text-decoration="none" x="400" y="90">UNREGISTERED</text><text fill="#eeeeee" stroke="none" font-family="Arial" font-size="24px" font-style="normal" font-weight="normal" text-decoration="none" x="400" y="120">UNREGISTERED</text><text fill="#eeeeee" stroke="none" font-family="Arial" font-size="24px" font-style="normal" font-weight="normal" text-decoration="none" x="400" y="150">UNREGISTERED</text><text fill="#eeeeee" stroke="none" font-family="Arial" font-size="24px" font-style="normal" font-weight="normal" text-decoration="none" x="400" y="180">UNREGISTERED</text><text fill="#eeeeee" stroke="none" font-family="Arial" font-size="24px" font-style="normal" font-weight="normal" text-decoration="none" x="400" y="210">UNREGISTERED</text><text fill="#eeeeee" stroke="none" font-family="Arial" font-size="24px" font-style="normal" font-weight="normal" text-decoration="none" x="400" y="240">UNREGISTERED</text><text fill="#eeeeee" stroke="none" font-family="Arial" font-size="24px" font-style="normal" font-weight="normal" text-decoration="none" x="400" y="270">UNREGISTERED</text><text fill="#eeeeee" stroke="none" font-family="Arial" font-size="24px" font-style="normal" font-weight="normal" text-decoration="none" x="400" y="300">UNREGISTERED</text><text fill="#eeeeee" stroke="none" font-family="Arial" font-size="24px" font-style="normal" font-weight="normal" text-decoration="none" x="400" y="330">UNREGISTERED</text><text fill="#eeeeee" stroke="none" font-family="Arial" font-size="24px" font-style="normal" font-weight="normal" text-decoration="none" x="400" y="360">UNREGISTERED</text><text fill="#eeeeee" stroke="none" font-family="Arial" font-size="24px" font-style="normal" font-weight="normal" text-decoration="none" x="400" y="390">UNREGISTERED</text><text fill="#eeeeee" stroke="none" font-family="Arial" font-size="24px" font-style="normal" font-weight="normal" text-decoration="none" x="400" y="420">UNREGISTERED</text><text fill="#eeeeee" stroke="none" font-family="Arial" font-size="24px" font-style="normal" font-weight="normal" text-decoration="none" x="400" y="450">UNREGISTERED</text><text fill="#eeeeee" stroke="none" font-family="Arial" font-size="24px" font-style="normal" font-weight="normal" text-decoration="none" x="400" y="480">UNREGISTERED</text><text fill="#eeeeee" stroke="none" font-family="Arial" font-size="24px" font-style="normal" font-weight="normal" text-decoration="none" x="400" y="510">UNREGISTERED</text><text fill="#eeeeee" stroke="none" font-family="Arial" font-size="24px" font-style="normal" font-weight="normal" text-decoration="none" x="400" y="540">UNREGISTERED</text><text fill="#eeeeee" stroke="none" font-family="Arial" font-size="24px" font-style="normal" font-weight="normal" text-decoration="none" x="400" y="570">UNREGISTERED</text><text fill="#eeeeee" stroke="none" font-family="Arial" font-size="24px" font-style="normal" font-weight="normal" text-decoration="none" x="400" y="600">UNREGISTERED</text><text fill="#eeeeee" stroke="none" font-family="Arial" font-size="24px" font-style="normal" font-weight="normal" text-decoration="none" x="600" y="0">UNREGISTERED</text><text fill="#eeeeee" stroke="none" font-family="Arial" font-size="24px" font-style="normal" font-weight="normal" text-decoration="none" x="600" y="30">UNREGISTERED</text><text fill="#eeeeee" stroke="none" font-family="Arial" font-size="24px" font-style="normal" font-weight="normal" text-decoration="none" x="600" y="60">UNREGISTERED</text><text fill="#eeeeee" stroke="none" font-family="Arial" font-size="24px" font-style="normal" font-weight="normal" text-decoration="none" x="600" y="90">UNREGISTERED</text><text fill="#eeeeee" stroke="none" font-family="Arial" font-size="24px" font-style="normal" font-weight="normal" text-decoration="none" x="600" y="120">UNREGISTERED</text><text fill="#eeeeee" stroke="none" font-family="Arial" font-size="24px" font-style="normal" font-weight="normal" text-decoration="none" x="600" y="150">UNREGISTERED</text><text fill="#eeeeee" stroke="none" font-family="Arial" font-size="24px" font-style="normal" font-weight="normal" text-decoration="none" x="600" y="180">UNREGISTERED</text><text fill="#eeeeee" stroke="none" font-family="Arial" font-size="24px" font-style="normal" font-weight="normal" text-decoration="none" x="600" y="210">UNREGISTERED</text><text fill="#eeeeee" stroke="none" font-family="Arial" font-size="24px" font-style="normal" font-weight="normal" text-decoration="none" x="600" y="240">UNREGISTERED</text><text fill="#eeeeee" stroke="none" font-family="Arial" font-size="24px" font-style="normal" font-weight="normal" text-decoration="none" x="600" y="270">UNREGISTERED</text><text fill="#eeeeee" stroke="none" font-family="Arial" font-size="24px" font-style="normal" font-weight="normal" text-decoration="none" x="600" y="300">UNREGISTERED</text><text fill="#eeeeee" stroke="none" font-family="Arial" font-size="24px" font-style="normal" font-weight="normal" text-decoration="none" x="600" y="330">UNREGISTERED</text><text fill="#eeeeee" stroke="none" font-family="Arial" font-size="24px" font-style="normal" font-weight="normal" text-decoration="none" x="600" y="360">UNREGISTERED</text><text fill="#eeeeee" stroke="none" font-family="Arial" font-size="24px" font-style="normal" font-weight="normal" text-decoration="none" x="600" y="390">UNREGISTERED</text><text fill="#eeeeee" stroke="none" font-family="Arial" font-size="24px" font-style="normal" font-weight="normal" text-decoration="none" x="600" y="420">UNREGISTERED</text><text fill="#eeeeee" stroke="none" font-family="Arial" font-size="24px" font-style="normal" font-weight="normal" text-decoration="none" x="600" y="450">UNREGISTERED</text><text fill="#eeeeee" stroke="none" font-family="Arial" font-size="24px" font-style="normal" font-weight="normal" text-decoration="none" x="600" y="480">UNREGISTERED</text><text fill="#eeeeee" stroke="none" font-family="Arial" font-size="24px" font-style="normal" font-weight="normal" text-decoration="none" x="600" y="510">UNREGISTERED</text><text fill="#eeeeee" stroke="none" font-family="Arial" font-size="24px" font-style="normal" font-weight="normal" text-decoration="none" x="600" y="540">UNREGISTERED</text><text fill="#eeeeee" stroke="none" font-family="Arial" font-size="24px" font-style="normal" font-weight="normal" text-decoration="none" x="600" y="570">UNREGISTERED</text><text fill="#eeeeee" stroke="none" font-family="Arial" font-size="24px" font-style="normal" font-weight="normal" text-decoration="none" x="600" y="600">UNREGISTERED</text><text fill="#eeeeee" stroke="none" font-family="Arial" font-size="24px" font-style="normal" font-weight="normal" text-decoration="none" x="800" y="0">UNREGISTERED</text><text fill="#eeeeee" stroke="none" font-family="Arial" font-size="24px" font-style="normal" font-weight="normal" text-decoration="none" x="800" y="30">UNREGISTERED</text><text fill="#eeeeee" stroke="none" font-family="Arial" font-size="24px" font-style="normal" font-weight="normal" text-decoration="none" x="800" y="60">UNREGISTERED</text><text fill="#eeeeee" stroke="none" font-family="Arial" font-size="24px" font-style="normal" font-weight="normal" text-decoration="none" x="800" y="90">UNREGISTERED</text><text fill="#eeeeee" stroke="none" font-family="Arial" font-size="24px" font-style="normal" font-weight="normal" text-decoration="none" x="800" y="120">UNREGISTERED</text><text fill="#eeeeee" stroke="none" font-family="Arial" font-size="24px" font-style="normal" font-weight="normal" text-decoration="none" x="800" y="150">UNREGISTERED</text><text fill="#eeeeee" stroke="none" font-family="Arial" font-size="24px" font-style="normal" font-weight="normal" text-decoration="none" x="800" y="180">UNREGISTERED</text><text fill="#eeeeee" stroke="none" font-family="Arial" font-size="24px" font-style="normal" font-weight="normal" text-decoration="none" x="800" y="210">UNREGISTERED</text><text fill="#eeeeee" stroke="none" font-family="Arial" font-size="24px" font-style="normal" font-weight="normal" text-decoration="none" x="800" y="240">UNREGISTERED</text><text fill="#eeeeee" stroke="none" font-family="Arial" font-size="24px" font-style="normal" font-weight="normal" text-decoration="none" x="800" y="270">UNREGISTERED</text><text fill="#eeeeee" stroke="none" font-family="Arial" font-size="24px" font-style="normal" font-weight="normal" text-decoration="none" x="800" y="300">UNREGISTERED</text><text fill="#eeeeee" stroke="none" font-family="Arial" font-size="24px" font-style="normal" font-weight="normal" text-decoration="none" x="800" y="330">UNREGISTERED</text><text fill="#eeeeee" stroke="none" font-family="Arial" font-size="24px" font-style="normal" font-weight="normal" text-decoration="none" x="800" y="360">UNREGISTERED</text><text fill="#eeeeee" stroke="none" font-family="Arial" font-size="24px" font-style="normal" font-weight="normal" text-decoration="none" x="800" y="390">UNREGISTERED</text><text fill="#eeeeee" stroke="none" font-family="Arial" font-size="24px" font-style="normal" font-weight="normal" text-decoration="none" x="800" y="420">UNREGISTERED</text><text fill="#eeeeee" stroke="none" font-family="Arial" font-size="24px" font-style="normal" font-weight="normal" text-decoration="none" x="800" y="450">UNREGISTERED</text><text fill="#eeeeee" stroke="none" font-family="Arial" font-size="24px" font-style="normal" font-weight="normal" text-decoration="none" x="800" y="480">UNREGISTERED</text><text fill="#eeeeee" stroke="none" font-family="Arial" font-size="24px" font-style="normal" font-weight="normal" text-decoration="none" x="800" y="510">UNREGISTERED</text><text fill="#eeeeee" stroke="none" font-family="Arial" font-size="24px" font-style="normal" font-weight="normal" text-decoration="none" x="800" y="540">UNREGISTERED</text><text fill="#eeeeee" stroke="none" font-family="Arial" font-size="24px" font-style="normal" font-weight="normal" text-decoration="none" x="800" y="570">UNREGISTERED</text><text fill="#eeeeee" stroke="none" font-family="Arial" font-size="24px" font-style="normal" font-weight="normal" text-decoration="none" x="800" y="600">UNREGISTERED</text><text fill="#eeeeee" stroke="none" font-family="Arial" font-size="24px" font-style="normal" font-weight="normal" text-decoration="none" x="1000" y="0">UNREGISTERED</text><text fill="#eeeeee" stroke="none" font-family="Arial" font-size="24px" font-style="normal" font-weight="normal" text-decoration="none" x="1000" y="30">UNREGISTERED</text><text fill="#eeeeee" stroke="none" font-family="Arial" font-size="24px" font-style="normal" font-weight="normal" text-decoration="none" x="1000" y="60">UNREGISTERED</text><text fill="#eeeeee" stroke="none" font-family="Arial" font-size="24px" font-style="normal" font-weight="normal" text-decoration="none" x="1000" y="90">UNREGISTERED</text><text fill="#eeeeee" stroke="none" font-family="Arial" font-size="24px" font-style="normal" font-weight="normal" text-decoration="none" x="1000" y="120">UNREGISTERED</text><text fill="#eeeeee" stroke="none" font-family="Arial" font-size="24px" font-style="normal" font-weight="normal" text-decoration="none" x="1000" y="150">UNREGISTERED</text><text fill="#eeeeee" stroke="none" font-family="Arial" font-size="24px" font-style="normal" font-weight="normal" text-decoration="none" x="1000" y="180">UNREGISTERED</text><text fill="#eeeeee" stroke="none" font-family="Arial" font-size="24px" font-style="normal" font-weight="normal" text-decoration="none" x="1000" y="210">UNREGISTERED</text><text fill="#eeeeee" stroke="none" font-family="Arial" font-size="24px" font-style="normal" font-weight="normal" text-decoration="none" x="1000" y="240">UNREGISTERED</text><text fill="#eeeeee" stroke="none" font-family="Arial" font-size="24px" font-style="normal" font-weight="normal" text-decoration="none" x="1000" y="270">UNREGISTERED</text><text fill="#eeeeee" stroke="none" font-family="Arial" font-size="24px" font-style="normal" font-weight="normal" text-decoration="none" x="1000" y="300">UNREGISTERED</text><text fill="#eeeeee" stroke="none" font-family="Arial" font-size="24px" font-style="normal" font-weight="normal" text-decoration="none" x="1000" y="330">UNREGISTERED</text><text fill="#eeeeee" stroke="none" font-family="Arial" font-size="24px" font-style="normal" font-weight="normal" text-decoration="none" x="1000" y="360">UNREGISTERED</text><text fill="#eeeeee" stroke="none" font-family="Arial" font-size="24px" font-style="normal" font-weight="normal" text-decoration="none" x="1000" y="390">UNREGISTERED</text><text fill="#eeeeee" stroke="none" font-family="Arial" font-size="24px" font-style="normal" font-weight="normal" text-decoration="none" x="1000" y="420">UNREGISTERED</text><text fill="#eeeeee" stroke="none" font-family="Arial" font-size="24px" font-style="normal" font-weight="normal" text-decoration="none" x="1000" y="450">UNREGISTERED</text><text fill="#eeeeee" stroke="none" font-family="Arial" font-size="24px" font-style="normal" font-weight="normal" text-decoration="none" x="1000" y="480">UNREGISTERED</text><text fill="#eeeeee" stroke="none" font-family="Arial" font-size="24px" font-style="normal" font-weight="normal" text-decoration="none" x="1000" y="510">UNREGISTERED</text><text fill="#eeeeee" stroke="none" font-family="Arial" font-size="24px" font-style="normal" font-weight="normal" text-decoration="none" x="1000" y="540">UNREGISTERED</text><text fill="#eeeeee" stroke="none" font-family="Arial" font-size="24px" font-style="normal" font-weight="normal" text-decoration="none" x="1000" y="570">UNREGISTERED</text><text fill="#eeeeee" stroke="none" font-family="Arial" font-size="24px" font-style="normal" font-weight="normal" text-decoration="none" x="1000" y="600">UNREGISTERED</text><g transform="translate(-102,-46) scale(1,1)"><path fill="#C0C0C0" stroke="none" d="M 151 128.5 C 151 123.2532944 155.2532944 119 160.5 119 C 165.7467056 119 170 123.2532944 170 128.5 C 170 133.7467056 165.7467056 138 160.5 138 C 155.2532944 138 151 133.7467056 151 128.5 Z" opacity="0.2"/></g><g transform="translate(-102,-46) scale(1,1)"><path fill="#000000" stroke="none" d="M 144 121.5 C 144 116.2532944 148.2532944 112 153.5 112 C 158.7467056 112 163 116.2532944 163 121.5 C 163 126.7467056 158.7467056 131 153.5 131 C 148.2532944 131 144 126.7467056 144 121.5 Z"/></g><g transform="translate(-102,-46) scale(1,1)"><path fill="#C0C0C0" stroke="none" d="M 233 111 L 398.26806640625 111 Q 408.26806640625 111 408.26806640625 121 L 408.26806640625 141 Q 408.26806640625 151 398.26806640625 151 L 233 151 Q 223 151 223 141 L 223 121 Q 223 111 233 111 Z" opacity="0.2"/></g><g transform="translate(-102,-46) scale(1,1)"><path fill="#ffffff" stroke="none" d="M 226 104 L 391.26806640625 104 Q 401.26806640625 104 401.26806640625 114 L 401.26806640625 134 Q 401.26806640625 144 391.26806640625 144 L 226 144 Q 216 144 216 134 L 216 114 Q 216 104 226 104 Z"/></g><g transform="translate(-102,-46) scale(1,1)"><path fill="none" stroke="#000000" d="M 226 104 L 391.26806640625 104 Q 401.26806640625 104 401.26806640625 114 L 401.26806640625 134 Q 401.26806640625 144 391.26806640625 144 L 226 144 Q 216 144 216 134 L 216 114 Q 216 104 226 104 Z" stroke-miterlimit="10"/></g><g transform="translate(-102,-46) scale(1,1)"><g><path fill="none" stroke="none"/><text fill="#000000" stroke="none" font-family="Arial" font-size="13px" font-style="normal" font-weight="bold" text-decoration="none" x="220.5" y="122">Trabalhador loga no sistema</text></g></g><g transform="translate(-102,-46) scale(1,1)"><path fill="#C0C0C0" stroke="none" d="M 473 111 L 527.5078125 111 Q 537.5078125 111 537.5078125 121 L 537.5078125 141 Q 537.5078125 151 527.5078125 151 L 473 151 Q 463 151 463 141 L 463 121 Q 463 111 473 111 Z" opacity="0.2"/></g><g transform="translate(-102,-46) scale(1,1)"><path fill="#ffffff" stroke="none" d="M 466 104 L 520.5078125 104 Q 530.5078125 104 530.5078125 114 L 530.5078125 134 Q 530.5078125 144 520.5078125 144 L 466 144 Q 456 144 456 134 L 456 114 Q 456 104 466 104 Z"/></g><g transform="translate(-102,-46) scale(1,1)"><path fill="none" stroke="#000000" d="M 466 104 L 520.5078125 104 Q 530.5078125 104 530.5078125 114 L 530.5078125 134 Q 530.5078125 144 520.5078125 144 L 466 144 Q 456 144 456 134 L 456 114 Q 456 104 466 104 Z" stroke-miterlimit="10"/></g><g transform="translate(-102,-46) scale(1,1)"><g><path fill="none" stroke="none"/><text fill="#000000" stroke="none" font-family="Arial" font-size="13px" font-style="normal" font-weight="bold" text-decoration="none" x="460.5" y="122">Tela inicial</text></g></g><g transform="translate(-102,-46) scale(1,1)"><path fill="#C0C0C0" stroke="none" d="M 593 111 L 700 111 Q 710 111 710 121 L 710 141 Q 710 151 700 151 L 593 151 Q 583 151 583 141 L 583 121 Q 583 111 593 111 Z" opacity="0.2"/></g><g transform="translate(-102,-46) scale(1,1)"><path fill="#ffffff" stroke="none" d="M 586 104 L 693 104 Q 703 104 703 114 L 703 134 Q 703 144 693 144 L 586 144 Q 576 144 576 134 L 576 114 Q 576 104 586 104 Z"/></g><g transform="translate(-102,-46) scale(1,1)"><path fill="none" stroke="#000000" d="M 586 104 L 693 104 Q 703 104 703 114 L 703 134 Q 703 144 693 144 L 586 144 Q 576 144 576 134 L 576 114 Q 576 104 586 104 Z" stroke-miterlimit="10"/></g><g transform="translate(-102,-46) scale(1,1)"><g><path fill="none" stroke="none"/><text fill="#000000" stroke="none" font-family="Arial" font-size="13px" font-style="normal" font-weight="bold" text-decoration="none" x="589.39794921875" y="122">Tela de serviços</text></g></g><g transform="translate(-102,-46) scale(1,1)"><path fill="#C0C0C0" stroke="none" d="M 823 135.5 L 848 119 L 872 135.5 L 848 151 L 823 135.5" opacity="0.2"/></g><g transform="translate(-102,-46) scale(1,1)"><path fill="#ffffff" stroke="none" d="M 816 128 L 840.5 112 L 865 128 L 840.5 144 L 816 128"/></g><g transform="translate(-102,-46) scale(1,1)"><path fill="none" stroke="#000000" d="M 816 128 L 840.5 112 L 865 128 L 840.5 144 L 816 128 L 816 128" stroke-miterlimit="10"/></g><g transform="translate(-102,-46) scale(1,1)"><path fill="#C0C0C0" stroke="none" d="M 969 111 L 1140.06982421875 111 Q 1150.06982421875 111 1150.06982421875 121 L 1150.06982421875 141 Q 1150.06982421875 151 1140.06982421875 151 L 969 151 Q 959 151 959 141 L 959 121 Q 959 111 969 111 Z" opacity="0.2"/></g><g transform="translate(-102,-46) scale(1,1)"><path fill="#ffffff" stroke="none" d="M 962 104 L 1133.06982421875 104 Q 1143.06982421875 104 1143.06982421875 114 L 1143.06982421875 134 Q 1143.06982421875 144 1133.06982421875 144 L 962 144 Q 952 144 952 134 L 952 114 Q 952 104 962 104 Z"/></g><g transform="translate(-102,-46) scale(1,1)"><path fill="none" stroke="#000000" d="M 962 104 L 1133.06982421875 104 Q 1143.06982421875 104 1143.06982421875 114 L 1143.06982421875 134 Q 1143.06982421875 144 1133.06982421875 144 L 962 144 Q 952 144 952 134 L 952 114 Q 952 104 962 104 Z" stroke-miterlimit="10"/></g><g transform="translate(-102,-46) scale(1,1)"><g><path fill="none" stroke="none"/><text fill="#000000" stroke="none" font-family="Arial" font-size="13px" font-style="normal" font-weight="bold" text-decoration="none" x="956.5" y="122">Adicionar serviços prestados</text></g></g><g transform="translate(-102,-46) scale(1,1)"><path fill="none" stroke="#000000" d="M 164 121 L 215 122" stroke-miterlimit="10"/></g><g transform="translate(-102,-46) scale(1,1)"><path fill="none" stroke="#000000" d="M 204.7567544868664 126.00947893842438 L 215 122 L 204.92180188992006 117.59206138268908" stroke-miterlimit="10"/></g><g transform="translate(-102,-46) scale(1,1)"><path fill="none" stroke="#000000" d="M 402 124 L 455 124" stroke-miterlimit="10"/></g><g transform="translate(-102,-46) scale(1,1)"><path fill="none" stroke="#000000" d="M 444.83732514237585 128.209517756016 L 455 124 L 444.83732514237585 119.79048224398402" stroke-miterlimit="10"/></g><g transform="translate(-102,-46) scale(1,1)"><path fill="none" stroke="#000000" d="M 532 124 L 575 124" stroke-miterlimit="10"/></g><g transform="translate(-102,-46) scale(1,1)"><path fill="none" stroke="#000000" d="M 564.8373251423759 128.209517756016 L 575 124 L 564.8373251423758 119.79048224398402" stroke-miterlimit="10"/></g><g transform="translate(-102,-46) scale(1,1)"><path fill="none" stroke="#000000" d="M 704 125 L 815 128" stroke-miterlimit="10"/></g><g transform="translate(-102,-46) scale(1,1)"><path fill="none" stroke="#000000" d="M 804.7273056044601 131.93341452885946 L 815 128 L 804.9547640452824 123.51745221843089" stroke-miterlimit="10"/></g><g transform="translate(-102,-46) scale(1,1)"><path fill="none" stroke="#000000" d="M 866 127 L 951 126" stroke-miterlimit="10"/></g><g transform="translate(-102,-46) scale(1,1)"><path fill="none" stroke="#000000" d="M 940.887548680089 130.3287790775726 L 951 126 L 940.7885080572621 121.91032613728211" stroke-miterlimit="10"/></g><g transform="translate(-102,-46) scale(1,1)"><path fill="none" stroke="#000000" d="M 1047 103 L 1048 56 L 640 56 L 639 103" stroke-miterlimit="10"/></g><g transform="translate(-102,-46) scale(1,1)"><path fill="none" stroke="#000000" d="M 635.0076129302576 92.75008070834927 L 639 103 L 643.4247434676047 92.92916859212262" stroke-miterlimit="10"/></g><g transform="translate(-102,-46) scale(1,1)"><path fill="#C0C0C0" stroke="none" d="M 769 239 L 933.3349609375 239 Q 943.3349609375 239 943.3349609375 249 L 943.3349609375 269 Q 943.3349609375 279 933.3349609375 279 L 769 279 Q 759 279 759 269 L 759 249 Q 759 239 769 239 Z" opacity="0.2"/></g><g transform="translate(-102,-46) scale(1,1)"><path fill="#ffffff" stroke="none" d="M 762 232 L 926.3349609375 232 Q 936.3349609375 232 936.3349609375 242 L 936.3349609375 262 Q 936.3349609375 272 926.3349609375 272 L 762 272 Q 752 272 752 262 L 752 242 Q 752 232 762 232 Z"/></g><g transform="translate(-102,-46) scale(1,1)"><path fill="none" stroke="#000000" d="M 762 232 L 926.3349609375 232 Q 936.3349609375 232 936.3349609375 242 L 936.3349609375 262 Q 936.3349609375 272 926.3349609375 272 L 762 272 Q 752 272 752 262 L 752 242 Q 752 232 762 232 Z" stroke-miterlimit="10"/></g><g transform="translate(-102,-46) scale(1,1)"><g><path fill="none" stroke="none"/><text fill="#000000" stroke="none" font-family="Arial" font-size="13px" font-style="normal" font-weight="bold" text-decoration="none" x="756.5" y="250">Tela de serviços disponíveis</text></g></g><g transform="translate(-102,-46) scale(1,1)"><path fill="none" stroke="#000000" d="M 841 145 L 843 231" stroke-miterlimit="10"/></g><g transform="translate(-102,-46) scale(1,1)"><path fill="none" stroke="#000000" d="M 838.5553427141674 220.9379414824055 L 843 231 L 846.9721025036246 220.7422028826507" stroke-miterlimit="10"/></g><g transform="translate(-102,-46) scale(1,1)"><path fill="#C0C0C0" stroke="none" d="M 761 343 L 947.26611328125 343 Q 957.26611328125 343 957.26611328125 353 L 957.26611328125 373 Q 957.26611328125 383 947.26611328125 383 L 761 383 Q 751 383 751 373 L 751 353 Q 751 343 761 343 Z" opacity="0.2"/></g><g transform="translate(-102,-46) scale(1,1)"><path fill="#ffffff" stroke="none" d="M 754 336 L 940.26611328125 336 Q 950.26611328125 336 950.26611328125 346 L 950.26611328125 366 Q 950.26611328125 376 940.26611328125 376 L 754 376 Q 744 376 744 366 L 744 346 Q 744 336 754 336 Z"/></g><g transform="translate(-102,-46) scale(1,1)"><path fill="none" stroke="#000000" d="M 754 336 L 940.26611328125 336 Q 950.26611328125 336 950.26611328125 346 L 950.26611328125 366 Q 950.26611328125 376 940.26611328125 376 L 754 376 Q 744 376 744 366 L 744 346 Q 744 336 754 336 Z" stroke-miterlimit="10"/></g><g transform="translate(-102,-46) scale(1,1)"><g><path fill="none" stroke="none"/><text fill="#000000" stroke="none" font-family="Arial" font-size="13px" font-style="normal" font-weight="bold" text-decoration="none" x="748.5" y="354">Seleciona serviço para detalhes</text></g></g><g transform="translate(-102,-46) scale(1,1)"><path fill="none" stroke="#000000" d="M 845 273 L 846 335" stroke-miterlimit="10"/></g><g transform="translate(-102,-46) scale(1,1)"><path fill="none" stroke="#000000" d="M 841.6271368871173 324.90653339055456 L 846 335 L 850.045077524899 324.7707601544613" stroke-miterlimit="10"/></g><g transform="translate(-102,-46) scale(1,1)"><path fill="#C0C0C0" stroke="none" d="M 823 491 L 850.5 471 L 877 491 L 850.5 510 L 823 491" opacity="0.2"/></g><g transform="translate(-102,-46) scale(1,1)"><path fill="#ffffff" stroke="none" d="M 816 483.5 L 843 464 L 870 483.5 L 843 503 L 816 483.5"/></g><g transform="translate(-102,-46) scale(1,1)"><path fill="none" stroke="#000000" d="M 816 483.5 L 843 464 L 870 483.5 L 843 503 L 816 483.5 L 816 483.5" stroke-miterlimit="10"/></g><g transform="translate(-102,-46) scale(1,1)"><path fill="none" stroke="#000000" d="M 846 377 L 844 463" stroke-miterlimit="10"/></g><g transform="translate(-102,-46) scale(1,1)"><path fill="none" stroke="#000000" d="M 840.0278974963754 452.7422028826507 L 844 463 L 848.4446572858326 452.9379414824055" stroke-miterlimit="10"/></g><g transform="translate(-102,-46) scale(1,1)"><path fill="none" stroke="#000000" d="M 871 484 L 992 488 L 992 248 L 937 249" stroke-miterlimit="10"/></g><g transform="translate(-102,-46) scale(1,1)"><path fill="none" stroke="#000000" d="M 947.0844714540991 244.60643248698065 L 937 249 L 947.2375195319325 253.02407676781877" stroke-miterlimit="10"/></g><g transform="translate(-102,-46) scale(1,1)"><g><path fill="none" stroke="none"/><text fill="#000000" stroke="none" font-family="Arial" font-size="13px" font-style="normal" font-weight="normal" text-decoration="none" x="1007" y="382">volta</text></g></g><g transform="translate(-102,-46) scale(1,1)"><path fill="#C0C0C0" stroke="none" d="M 561 471 L 684 471 Q 694 471 694 481 L 694 501 Q 694 511 684 511 L 561 511 Q 551 511 551 501 L 551 481 Q 551 471 561 471 Z" opacity="0.2"/></g><g transform="translate(-102,-46) scale(1,1)"><path fill="#ffffff" stroke="none" d="M 554 464 L 677 464 Q 687 464 687 474 L 687 494 Q 687 504 677 504 L 554 504 Q 544 504 544 494 L 544 474 Q 544 464 554 464 Z"/></g><g transform="translate(-102,-46) scale(1,1)"><path fill="none" stroke="#000000" d="M 554 464 L 677 464 Q 687 464 687 474 L 687 494 Q 687 504 677 504 L 554 504 Q 544 504 544 494 L 544 474 Q 544 464 554 464 Z" stroke-miterlimit="10"/></g><g transform="translate(-102,-46) scale(1,1)"><g><path fill="none" stroke="none"/><text fill="#000000" stroke="none" font-family="Arial" font-size="13px" font-style="normal" font-weight="bold" text-decoration="none" x="552.658203125" y="482">Aguarda pagamento</text></g></g><g transform="translate(-102,-46) scale(1,1)"><path fill="none" stroke="#000000" d="M 815 483 L 688 484" stroke-miterlimit="10"/></g><g transform="translate(-102,-46) scale(1,1)"><path fill="none" stroke="#000000" d="M 698.1292150470941 479.71059415189916 L 688 484 L 698.1955046103504 488.12936868544375" stroke-miterlimit="10"/></g><g transform="translate(-102,-46) scale(1,1)"><g><path fill="none" stroke="none"/><text fill="#000000" stroke="none" font-family="Arial" font-size="13px" font-style="normal" font-weight="normal" text-decoration="none" x="711.5" y="502">aceita serviço</text></g></g><g transform="translate(-102,-46) scale(1,1)"><path fill="#C0C0C0" stroke="none" d="M 351 493 L 371 479 L 390 493 L 371 506 L 351 493" opacity="0.2"/></g><g transform="translate(-102,-46) scale(1,1)"><path fill="#ffffff" stroke="none" d="M 344 485.5 L 363.5 472 L 383 485.5 L 363.5 499 L 344 485.5"/></g><g transform="translate(-102,-46) scale(1,1)"><path fill="none" stroke="#000000" d="M 344 485.5 L 363.5 472 L 383 485.5 L 363.5 499 L 344 485.5 L 344 485.5" stroke-miterlimit="10"/></g><g transform="translate(-102,-46) scale(1,1)"><path fill="none" stroke="#000000" d="M 543 484 L 384 485" stroke-miterlimit="10"/></g><g transform="translate(-102,-46) scale(1,1)"><path fill="none" stroke="#000000" d="M 394.1359994384236 480.72665056609253 L 384 485 L 394.188948300108 489.1455195739167" stroke-miterlimit="10"/></g><g transform="translate(-102,-46) scale(1,1)"><path fill="none" stroke="#000000" d="M 363 471 L 368 248 L 751 251" stroke-miterlimit="10"/></g><g transform="translate(-102,-46) scale(1,1)"><path fill="none" stroke="#000000" d="M 740.8046651774251 255.12978787053186 L 751 251 L 740.8706086023749 246.71101061860497" stroke-miterlimit="10"/></g><g transform="translate(-102,-46) scale(1,1)"><g><path fill="none" stroke="none"/><text fill="#000000" stroke="none" font-family="Arial" font-size="13px" font-style="normal" font-weight="normal" text-decoration="none" x="340.5" y="238">não pago</text></g></g><g transform="translate(-102,-46) scale(1,1)"><path fill="#C0C0C0" stroke="none" d="M 169 471 L 251.9453125 471 Q 261.9453125 471 261.9453125 481 L 261.9453125 501 Q 261.9453125 511 251.9453125 511 L 169 511 Q 159 511 159 501 L 159 481 Q 159 471 169 471 Z" opacity="0.2"/></g><g transform="translate(-102,-46) scale(1,1)"><path fill="#ffffff" stroke="none" d="M 162 464 L 244.9453125 464 Q 254.9453125 464 254.9453125 474 L 254.9453125 494 Q 254.9453125 504 244.9453125 504 L 162 504 Q 152 504 152 494 L 152 474 Q 152 464 162 464 Z"/></g><g transform="translate(-102,-46) scale(1,1)"><path fill="none" stroke="#000000" d="M 162 464 L 244.9453125 464 Q 254.9453125 464 254.9453125 474 L 254.9453125 494 Q 254.9453125 504 244.9453125 504 L 162 504 Q 152 504 152 494 L 152 474 Q 152 464 162 464 Z" stroke-miterlimit="10"/></g><g transform="translate(-102,-46) scale(1,1)"><g><path fill="none" stroke="none"/><text fill="#000000" stroke="none" font-family="Arial" font-size="13px" font-style="normal" font-weight="bold" text-decoration="none" x="156.5" y="482">Realiza serviço</text></g></g><g transform="translate(-102,-46) scale(1,1)"><path fill="none" stroke="#000000" d="M 343 485 L 256 484" stroke-miterlimit="10"/></g><g transform="translate(-102,-46) scale(1,1)"><path fill="none" stroke="#000000" d="M 266.21038565436834 479.9075649316001 L 256 484 L 266.11362152316485 488.3260443463025" stroke-miterlimit="10"/></g><g transform="translate(-102,-46) scale(1,1)"><g><path fill="none" stroke="none"/><text fill="#000000" stroke="none" font-family="Arial" font-size="13px" font-style="normal" font-weight="normal" text-decoration="none" x="283.5" y="502.5">pago</text></g></g><g transform="translate(-102,-46) scale(1,1)"><path fill="#C0C0C0" stroke="none" d="M 129 615 L 294.26806640625 615 Q 304.26806640625 615 304.26806640625 625 L 304.26806640625 645 Q 304.26806640625 655 294.26806640625 655 L 129 655 Q 119 655 119 645 L 119 625 Q 119 615 129 615 Z" opacity="0.2"/></g><g transform="translate(-102,-46) scale(1,1)"><path fill="#ffffff" stroke="none" d="M 122 608 L 287.26806640625 608 Q 297.26806640625 608 297.26806640625 618 L 297.26806640625 638 Q 297.26806640625 648 287.26806640625 648 L 122 648 Q 112 648 112 638 L 112 618 Q 112 608 122 608 Z"/></g><g transform="translate(-102,-46) scale(1,1)"><path fill="none" stroke="#000000" d="M 122 608 L 287.26806640625 608 Q 297.26806640625 608 297.26806640625 618 L 297.26806640625 638 Q 297.26806640625 648 287.26806640625 648 L 122 648 Q 112 648 112 638 L 112 618 Q 112 608 122 608 Z" stroke-miterlimit="10"/></g><g transform="translate(-102,-46) scale(1,1)"><g><path fill="none" stroke="none"/><text fill="#000000" stroke="none" font-family="Arial" font-size="13px" font-style="normal" font-weight="bold" text-decoration="none" x="116.5" y="626">Recebe pagamento na conta</text></g></g><g transform="translate(-102,-46) scale(1,1)"><path fill="#C0C0C0" stroke="none" d="M 489 615 L 571.8818359375 615 Q 581.8818359375 615 581.8818359375 625 L 581.8818359375 645 Q 581.8818359375 655 571.8818359375 655 L 489 655 Q 479 655 479 645 L 479 625 Q 479 615 489 615 Z" opacity="0.2"/></g><g transform="translate(-102,-46) scale(1,1)"><path fill="#ffffff" stroke="none" d="M 482 608 L 564.8818359375 608 Q 574.8818359375 608 574.8818359375 618 L 574.8818359375 638 Q 574.8818359375 648 564.8818359375 648 L 482 648 Q 472 648 472 638 L 472 618 Q 472 608 482 608 Z"/></g><g transform="translate(-102,-46) scale(1,1)"><path fill="none" stroke="#000000" d="M 482 608 L 564.8818359375 608 Q 574.8818359375 608 574.8818359375 618 L 574.8818359375 638 Q 574.8818359375 648 564.8818359375 648 L 482 648 Q 472 648 472 638 L 472 618 Q 472 608 482 608 Z" stroke-miterlimit="10"/></g><g transform="translate(-102,-46) scale(1,1)"><g><path fill="none" stroke="none"/><text fill="#000000" stroke="none" font-family="Arial" font-size="13px" font-style="normal" font-weight="bold" text-decoration="none" x="476.5" y="626">Conclui pedido</text></g></g><g transform="translate(-102,-46) scale(1,1)"><path fill="#C0C0C0" stroke="none" d="M 711 635.5 C 711 628.59644 716.59644 623 723.5 623 C 730.40356 623 736 628.59644 736 635.5 C 736 642.40356 730.40356 648 723.5 648 C 716.59644 648 711 642.40356 711 635.5 Z" opacity="0.2"/></g><g transform="translate(-102,-46) scale(1,1)"><path fill="none" stroke="#000000" d="M 704 628.5 C 704 621.59644 709.59644 616 716.5 616 C 723.40356 616 729 621.59644 729 628.5 C 729 635.40356 723.40356 641 716.5 641 C 709.59644 641 704 635.40356 704 628.5 Z" stroke-miterlimit="10"/></g><g transform="translate(-102,-46) scale(1,1)"><path fill="#000000" stroke="none" d="M 709 628.5 C 709 624.357864 712.357864 621 716.5 621 C 720.642136 621 724 624.357864 724 628.5 C 724 632.642136 720.642136 636 716.5 636 C 712.357864 636 709 632.642136 709 628.5 Z"/></g><g transform="translate(-102,-46) scale(1,1)"><path fill="none" stroke="#000000" d="M 576 628 L 703 628" stroke-miterlimit="10"/></g><g transform="translate(-102,-46) scale(1,1)"><path fill="none" stroke="#000000" d="M 692.8373251423759 632.209517756016 L 703 628 L 692.8373251423758 623.790482243984" stroke-miterlimit="10"/></g><g transform="translate(-102,-46) scale(1,1)"><path fill="none" stroke="#000000" d="M 203 505 L 204 607" stroke-miterlimit="10"/></g><g transform="translate(-102,-46) scale(1,1)"><path fill="none" stroke="#000000" d="M 199.6910552529352 596.8790813081646 L 204 607 L 208.1096861884268 596.7965457107579" stroke-miterlimit="10"/></g><g transform="translate(-102,-46) scale(1,1)"><path fill="none" stroke="#000000" d="M 298 628 L 471 628" stroke-miterlimit="10"/></g><g transform="translate(-102,-46) scale(1,1)"><path fill="none" stroke="#000000" d="M 460.83732514237585 632.209517756016 L 471 628 L 460.83732514237585 623.790482243984" stroke-miterlimit="10"/></g></g></svg>