<svg version="1.1" xmlns="http://www.w3.org/2000/svg" xmlns:xlink="http://www.w3.org/1999/xlink" width="867" height="555"><defs/><g><text fill="#eeeeee" stroke="none" font-family="Arial" font-size="24px" font-style="normal" font-weight="normal" text-decoration="none" x="0" y="0">UNREGISTERED</text><text fill="#eeeeee" stroke="none" font-family="Arial" font-size="24px" font-style="normal" font-weight="normal" text-decoration="none" x="0" y="30">UNREGISTERED</text><text fill="#eeeeee" stroke="none" font-family="Arial" font-size="24px" font-style="normal" font-weight="normal" text-decoration="none" x="0" y="60">UNREGISTERED</text><text fill="#eeeeee" stroke="none" font-family="Arial" font-size="24px" font-style="normal" font-weight="normal" text-decoration="none" x="0" y="90">UNREGISTERED</text><text fill="#eeeeee" stroke="none" font-family="Arial" font-size="24px" font-style="normal" font-weight="normal" text-decoration="none" x="0" y="120">UNREGISTERED</text><text fill="#eeeeee" stroke="none" font-family="Arial" font-size="24px" font-style="normal" font-weight="normal" text-decoration="none" x="0" y="150">UNREGISTERED</text><text fill="#eeeeee" stroke="none" font-family="Arial" font-size="24px" font-style="normal" font-weight="normal" text-decoration="none" x="0" y="180">UNREGISTERED</text><text fill="#eeeeee" stroke="none" font-family="Arial" font-size="24px" font-style="normal" font-weight="normal" text-decoration="none" x="0" y="210">UNREGISTERED</text><text fill="#eeeeee" stroke="none" font-family="Arial" font-size="24px" font-style="normal" font-weight="normal" text-decoration="none" x="0" y="240">UNREGISTERED</text><text fill="#eeeeee" stroke="none" font-family="Arial" font-size="24px" font-style="normal" font-weight="normal" text-decoration="none" x="0" y="270">UNREGISTERED</text><text fill="#eeeeee" stroke="none" font-family="Arial" font-size="24px" font-style="normal" font-weight="normal" text-decoration="none" x="0" y="300">UNREGISTERED</text><text fill="#eeeeee" stroke="none" font-family="Arial" font-size="24px" font-style="normal" font-weight="normal" text-decoration="none" x="0" y="330">UNREGISTERED</text><text fill="#eeeeee" stroke="none" font-family="Arial" font-size="24px" font-style="normal" font-weight="normal" text-decoration="none" x="0" y="360">UNREGISTERED</text><text fill="#eeeeee" stroke="none" font-family="Arial" font-size="24px" font-style="normal" font-weight="normal" text-decoration="none" x="0" y="390">UNREGISTERED</text><text fill="#eeeeee" stroke="none" font-family="Arial" font-size="24px" font-style="normal" font-weight="normal" text-decoration="none" x="0" y="420">UNREGISTERED</text><text fill="#eeeeee" stroke="none" font-family="Arial" font-size="24px" font-style="normal" font-weight="normal" text-decoration="none" x="0" y="450">UNREGISTERED</text><text fill="#eeeeee" stroke="none" font-family="Arial" font-size="24px" font-style="normal" font-weight="normal" text-decoration="none" x="0" y="480">UNREGISTERED</text><text fill="#eeeeee" stroke="none" font-family="Arial" font-size="24px" font-style="normal" font-weight="normal" text-decoration="none" x="0" y="510">UNREGISTERED</text><text fill="#eeeeee" stroke="none" font-family="Arial" font-size="24px" font-style="normal" font-weight="normal" text-decoration="none" x="0" y="540">UNREGISTERED</text><text fill="#eeeeee" stroke="none" font-family="Arial" font-size="24px" font-style="normal" font-weight="normal" text-decoration="none" x="200" y="0">UNREGISTERED</text><text fill="#eeeeee" stroke="none" font-family="Arial" font-size="24px" font-style="normal" font-weight="normal" text-decoration="none" x="200" y="30">UNREGISTERED</text><text fill="#eeeeee" stroke="none" font-family="Arial" font-size="24px" font-style="normal" font-weight="normal" text-decoration="none" x="200" y="60">UNREGISTERED</text><text fill="#eeeeee" stroke="none" font-family="Arial" font-size="24px" font-style="normal" font-weight="normal" text-decoration="none" x="200" y="90">UNREGISTERED</text><text fill="#eeeeee" stroke="none" font-family="Arial" font-size="24px" font-style="normal" font-weight="normal" text-decoration="none" x="200" y="120">UNREGISTERED</text><text fill="#eeeeee" stroke="none" font-family="Arial" font-size="24px" font-style="normal" font-weight="normal" text-decoration="none" x="200" y="150">UNREGISTERED</text><text fill="#eeeeee" stroke="none" font-family="Arial" font-size="24px" font-style="normal" font-weight="normal" text-decoration="none" x="200" y="180">UNREGISTERED</text><text fill="#eeeeee" stroke="none" font-family="Arial" font-size="24px" font-style="normal" font-weight="normal" text-decoration="none" x="200" y="210">UNREGISTERED</text><text fill="#eeeeee" stroke="none" font-family="Arial" font-size="24px" font-style="normal" font-weight="normal" text-decoration="none" x="200" y="240">UNREGISTERED</text><text fill="#eeeeee" stroke="none" font-family="Arial" font-size="24px" font-style="normal" font-weight="normal" text-decoration="none" x="200" y="270">UNREGISTERED</text><text fill="#eeeeee" stroke="none" font-family="Arial" font-size="24px" font-style="normal" font-weight="normal" text-decoration="none" x="200" y="300">UNREGISTERED</text><text fill="#eeeeee" stroke="none" font-family="Arial" font-size="24px" font-style="normal" font-weight="normal" text-decoration="none" x="200" y="330">UNREGISTERED</text><text fill="#eeeeee" stroke="none" font-family="Arial" font-size="24px" font-style="normal" font-weight="normal" text-decoration="none" x="200" y="360">UNREGISTERED</text><text fill="#eeeeee" stroke="none" font-family="Arial" font-size="24px" font-style="normal" font-weight="normal" text-decoration="none" x="200" y="390">UNREGISTERED</text><text fill="#eeeeee" stroke="none" font-family="Arial" font-size="24px" font-style="normal" font-weight="normal" text-decoration="none" x="200" y="420">UNREGISTERED</text><text fill="#eeeeee" stroke="none" font-family="Arial" font-size="24px" font-style="normal" font-weight="normal" text-decoration="none" x="200" y="450">UNREGISTERED</text><text fill="#eeeeee" stroke="none" font-family="Arial" font-size="24px" font-style="normal" font-weight="normal" text-decoration="none" x="200" y="480">UNREGISTERED</text><text fill="#eeeeee" stroke="none" font-family="Arial" font-size="24px" font-style="normal" font-weight="normal" text-decoration="none" x="200" y="510">UNREGISTERED</text><text fill="#eeeeee" stroke="none" font-family="Arial" font-size="24px" font-style="normal" font-weight="normal" text-decoration="none" x="200" y="540">UNREGISTERED</text><text fill="#eeeeee" stroke="none" font-family="Arial" font-size="24px" font-style="normal" font-weight="normal" text-decoration="none" x="400" y="0">UNREGISTERED</text><text fill="#eeeeee" stroke="none" font-family="Arial" font-size="24px" font-style="normal" font-weight="normal" text-decoration="none" x="400" y="30">UNREGISTERED</text><text fill="#eeeeee" stroke="none" font-family="Arial" font-size="24px" font-style="normal" font-weight="normal" text-decoration="none" x="400" y="60">UNREGISTERED</text><text fill="#eeeeee" stroke="none" font-family="Arial" font-size="24px" font-style="normal" font-weight="normal" text-decoration="none" x="400" y="90">UNREGISTERED</text><text fill="#eeeeee" stroke="none" font-family="Arial" font-size="24px" font-style="normal" font-weight="normal" text-decoration="none" x="400" y="120">UNREGISTERED</text><text fill="#eeeeee" stroke="none" font-family="Arial" font-size="24px" font-style="normal" font-weight="normal" text-decoration="none" x="400" y="150">UNREGISTERED</text><text fill="#eeeeee" stroke="none" font-family="Arial" font-size="24px" font-style="normal" font-weight="normal" text-decoration="none" x="400" y="180">UNREGISTERED</text><text fill="#eeeeee" stroke="none" font-family="Arial" font-size="24px" font-style="normal" font-weight="normal" text-decoration="none" x="400" y="210">UNREGISTERED</text><text fill="#eeeeee" stroke="none" font-family="Arial" font-size="24px" font-style="normal" font-weight="normal" text-decoration="none" x="400" y="240">UNREGISTERED</text><text fill="#eeeeee" stroke="none" font-family="Arial" font-size="24px" font-style="normal" font-weight="normal" text-decoration="none" x="400" y="270">UNREGISTERED</text><text fill="#eeeeee" stroke="none" font-family="Arial" font-size="24px" font-style="normal" font-weight="normal" text-decoration="none" x="400" y="300">UNREGISTERED</text><text fill="#eeeeee" stroke="none" font-family="Arial" font-size="24px" font-style="normal" font-weight="normal" text-decoration="none" x="400" y="330">UNREGISTERED</text><text fill="#eeeeee" stroke="none" font-family="Arial" font-size="24px" font-style="normal" font-weight="normal" text-decoration="none" x="400" y="360">UNREGISTERED</text><text fill="#eeeeee" stroke="none" font-family="Arial" font-size="24px" font-style="normal" font-weight="normal" text-decoration="none" x="400" y="390">UNREGISTERED</text><text fill="#eeeeee" stroke="none" font-family="Arial" font-size="24px" font-style="normal" font-weight="normal" text-decoration="none" x="400" y="420">UNREGISTERED</text><text fill="#eeeeee" stroke="none" font-family="Arial" font-size="24px" font-style="normal" font-weight="normal" text-decoration="none" x="400" y="450">UNREGISTERED</text><text fill="#eeeeee" stroke="none" font-family="Arial" font-size="24px" font-style="normal" font-weight="normal" text-decoration="none" x="400" y="480">UNREGISTERED</text><text fill="#eeeeee" stroke="none" font-family="Arial" font-size="24px" font-style="normal" font-weight="normal" text-decoration="none" x="400" y="510">UNREGISTERED</text><text fill="#eeeeee" stroke="none" font-family="Arial" font-size="24px" font-style="normal" font-weight="normal" text-decoration="none" x="400" y="540">UNREGISTERED</text><text fill="#eeeeee" stroke="none" font-family="Arial" font-size="24px" font-style="normal" font-weight="normal" text-decoration="none" x="600" y="0">UNREGISTERED</text><text fill="#eeeeee" stroke="none" font-family="Arial" font-size="24px" font-style="normal" font-weight="normal" text-decoration="none" x="600" y="30">UNREGISTERED</text><text fill="#eeeeee" stroke="none" font-family="Arial" font-size="24px" font-style="normal" font-weight="normal" text-decoration="none" x="600" y="60">UNREGISTERED</text><text fill="#eeeeee" stroke="none" font-family="Arial" font-size="24px" font-style="normal" font-weight="normal" text-decoration="none" x="600" y="90">UNREGISTERED</text><text fill="#eeeeee" stroke="none" font-family="Arial" font-size="24px" font-style="normal" font-weight="normal" text-decoration="none" x="600" y="120">UNREGISTERED</text><text fill="#eeeeee" stroke="none" font-family="Arial" font-size="24px" font-style="normal" font-weight="normal" text-decoration="none" x="600" y="150">UNREGISTERED</text><text fill="#eeeeee" stroke="none" font-family="Arial" font-size="24px" font-style="normal" font-weight="normal" text-decoration="none" x="600" y="180">UNREGISTERED</text><text fill="#eeeeee" stroke="none" font-family="Arial" font-size="24px" font-style="normal" font-weight="normal" text-decoration="none" x="600" y="210">UNREGISTERED</text><text fill="#eeeeee" stroke="none" font-family="Arial" font-size="24px" font-style="normal" font-weight="normal" text-decoration="none" x="600" y="240">UNREGISTERED</text><text fill="#eeeeee" stroke="none" font-family="Arial" font-size="24px" font-style="normal" font-weight="normal" text-decoration="none" x="600" y="270">UNREGISTERED</text><text fill="#eeeeee" stroke="none" font-family="Arial" font-size="24px" font-style="normal" font-weight="normal" text-decoration="none" x="600" y="300">UNREGISTERED</text><text fill="#eeeeee" stroke="none" font-family="Arial" font-size="24px" font-style="normal" font-weight="normal" text-decoration="none" x="600" y="330">UNREGISTERED</text><text fill="#eeeeee" stroke="none" font-family="Arial" font-size="24px" font-style="normal" font-weight="normal" text-decoration="none" x="600" y="360">UNREGISTERED</text><text fill="#eeeeee" stroke="none" font-family="Arial" font-size="24px" font-style="normal" font-weight="normal" text-decoration="none" x="600" y="390">UNREGISTERED</text><text fill="#eeeeee" stroke="none" font-family="Arial" font-size="24px" font-style="normal" font-weight="normal" text-decoration="none" x="600" y="420">UNREGISTERED</text><text fill="#eeeeee" stroke="none" font-family="Arial" font-size="24px" font-style="normal" font-weight="normal" text-decoration="none" x="600" y="450">UNREGISTERED</text><text fill="#eeeeee" stroke="none" font-family="Arial" font-size="24px" font-style="normal" font-weight="normal" text-decoration="none" x="600" y="480">UNREGISTERED</text><text fill="#eeeeee" stroke="none" font-family="Arial" font-size="24px" font-style="normal" font-weight="normal" text-decoration="none" x="600" y="510">UNREGISTERED</text><text fill="#eeeeee" stroke="none" font-family="Arial" font-size="24px" font-style="normal" font-weight="normal" text-decoration="none" x="600" y="540">UNREGISTERED</text><text fill="#eeeeee" stroke="none" font-family="Arial" font-size="24px" font-style="normal" font-weight="normal" text-decoration="none" x="800" y="0">UNREGISTERED</text><text fill="#eeeeee" stroke="none" font-family="Arial" font-size="24px" font-style="normal" font-weight="normal" text-decoration="none" x="800" y="30">UNREGISTERED</text><text fill="#eeeeee" stroke="none" font-family="Arial" font-size="24px" font-style="normal" font-weight="normal" text-decoration="none" x="800" y="60">UNREGISTERED</text><text fill="#eeeeee" stroke="none" font-family="Arial" font-size="24px" font-style="normal" font-weight="normal" text-decoration="none" x="800" y="90">UNREGISTERED</text><text fill="#eeeeee" stroke="none" font-family="Arial" font-size="24px" font-style="normal" font-weight="normal" text-decoration="none" x="800" y="120">UNREGISTERED</text><text fill="#eeeeee" stroke="none" font-family="Arial" font-size="24px" font-style="normal" font-weight="normal" text-decoration="none" x="800" y="150">UNREGISTERED</text><text fill="#eeeeee" stroke="none" font-family="Arial" font-size="24px" font-style="normal" font-weight="normal" text-decoration="none" x="800" y="180">UNREGISTERED</text><text fill="#eeeeee" stroke="none" font-family="Arial" font-size="24px" font-style="normal" font-weight="normal" text-decoration="none" x="800" y="210">UNREGISTERED</text><text fill="#eeeeee" stroke="none" font-family="Arial" font-size="24px" font-style="normal" font-weight="normal" text-decoration="none" x="800" y="240">UNREGISTERED</text><text fill="#eeeeee" stroke="none" font-family="Arial" font-size="24px" font-style="normal" font-weight="normal" text-decoration="none" x="800" y="270">UNREGISTERED</text><text fill="#eeeeee" stroke="none" font-family="Arial" font-size="24px" font-style="normal" font-weight="normal" text-decoration="none" x="800" y="300">UNREGISTERED</text><text fill="#eeeeee" stroke="none" font-family="Arial" font-size="24px" font-style="normal" font-weight="normal" text-decoration="none" x="800" y="330">UNREGISTERED</text><text fill="#eeeeee" stroke="none" font-family="Arial" font-size="24px" font-style="normal" font-weight="normal" text-decoration="none" x="800" y="360">UNREGISTERED</text><text fill="#eeeeee" stroke="none" font-family="Arial" font-size="24px" font-style="normal" font-weight="normal" text-decoration="none" x="800" y="390">UNREGISTERED</text><text fill="#eeeeee" stroke="none" font-family="Arial" font-size="24px" font-style="normal" font-weight="normal" text-decoration="none" x="800" y="420">UNREGISTERED</text><text fill="#eeeeee" stroke="none" font-family="Arial" font-size="24px" font-style="normal" font-weight="normal" text-decoration="none" x="800" y="450">UNREGISTERED</text><text fill="#eeeeee" stroke="none" font-family="Arial" font-size="24px" font-style="normal" font-weight="normal" text-decoration="none" x="800" y="480">UNREGISTERED</text><text fill="#eeeeee" stroke="none" font-family="Arial" font-size="24px" font-style="normal" font-weight="normal" text-decoration="none" x="800" y="510">UNREGISTERED</text><text fill="#eeeeee" stroke="none" font-family="Arial" font-size="24px" font-style="normal" font-weight="normal" text-decoration="none" x="800" y="540">UNREGISTERED</text><g transform="translate(-198,-110) scale(1,1)"><path fill="#C0C0C0" stroke="none" d="M 215 168.5 C 215 163.2532944 219.2532944 159 224.5 159 C 229.7467056 159 234 163.2532944 234 168.5 C 234 173.7467056 229.7467056 178 224.5 178 C 219.2532944 178 215 173.7467056 215 168.5 Z" opacity="0.2"/></g><g transform="translate(-198,-110) scale(1,1)"><path fill="#000000" stroke="none" d="M 208 161.5 C 208 156.2532944 212.2532944 152 217.5 152 C 222.7467056 152 227 156.2532944 227 161.5 C 227 166.7467056 222.7467056 171 217.5 171 C 212.2532944 171 208 166.7467056 208 161.5 Z"/></g><g transform="translate(-198,-110) scale(1,1)"><path fill="#C0C0C0" stroke="none" d="M 361 127 L 508 127 Q 518 127 518 137 L 518 196 Q 518 206 508 206 L 361 206 Q 351 206 351 196 L 351 137 Q 351 127 361 127 Z" opacity="0.2"/></g><g transform="translate(-198,-110) scale(1,1)"><path fill="#ffffff" stroke="none" d="M 354 120 L 501 120 Q 511 120 511 130 L 511 189 Q 511 199 501 199 L 354 199 Q 344 199 344 189 L 344 130 Q 344 120 354 120 Z"/></g><g transform="translate(-198,-110) scale(1,1)"><path fill="none" stroke="#000000" d="M 354 120 L 501 120 Q 511 120 511 130 L 511 189 Q 511 199 501 199 L 354 199 Q 344 199 344 189 L 344 130 Q 344 120 354 120 Z" stroke-miterlimit="10"/></g><g transform="translate(-198,-110) scale(1,1)"><path fill="none" stroke="#000000" d="M 344 145 L 511 145" stroke-miterlimit="10"/></g><g transform="translate(-198,-110) scale(1,1)"><g><path fill="none" stroke="none"/><text fill="#000000" stroke="none" font-family="Arial" font-size="13px" font-style="normal" font-weight="bold" text-decoration="none" x="391.746826171875" y="138">Cria pedido</text></g></g><g transform="translate(-198,-110) scale(1,1)"><g><path fill="none" stroke="none"/><text fill="#000000" stroke="none" font-family="Arial" font-size="13px" font-style="normal" font-weight="normal" text-decoration="none" x="349" y="161">do/criaPedido</text></g></g><g transform="translate(-198,-110) scale(1,1)"><path fill="none" stroke="#000000" d="M 228 161 L 343 160" stroke-miterlimit="10"/></g><g transform="translate(-198,-110) scale(1,1)"><path fill="none" stroke="#000000" d="M 332.8743124610911 164.29772635987734 L 343 160 L 332.80110622430794 155.87900912981485" stroke-miterlimit="10"/></g><g transform="translate(-198,-110) scale(1,1)"><path fill="#C0C0C0" stroke="none" d="M 633 127 L 772 127 Q 782 127 782 137 L 782 196 Q 782 206 772 206 L 633 206 Q 623 206 623 196 L 623 137 Q 623 127 633 127 Z" opacity="0.2"/></g><g transform="translate(-198,-110) scale(1,1)"><path fill="#ffffff" stroke="none" d="M 626 120 L 765 120 Q 775 120 775 130 L 775 189 Q 775 199 765 199 L 626 199 Q 616 199 616 189 L 616 130 Q 616 120 626 120 Z"/></g><g transform="translate(-198,-110) scale(1,1)"><path fill="none" stroke="#000000" d="M 626 120 L 765 120 Q 775 120 775 130 L 775 189 Q 775 199 765 199 L 626 199 Q 616 199 616 189 L 616 130 Q 616 120 626 120 Z" stroke-miterlimit="10"/></g><g transform="translate(-198,-110) scale(1,1)"><path fill="none" stroke="#000000" d="M 616 145 L 775 145" stroke-miterlimit="10"/></g><g transform="translate(-198,-110) scale(1,1)"><g><path fill="none" stroke="none"/><text fill="#000000" stroke="none" font-family="Arial" font-size="13px" font-style="normal" font-weight="bold" text-decoration="none" x="636.990478515625" y="138">Adionando serviço</text></g></g><g transform="translate(-198,-110) scale(1,1)"><g><path fill="none" stroke="none"/><text fill="#000000" stroke="none" font-family="Arial" font-size="13px" font-style="normal" font-weight="normal" text-decoration="none" x="621" y="161">do/adicionaServico</text></g></g><g transform="translate(-198,-110) scale(1,1)"><path fill="none" stroke="#000000" d="M 512 159 L 615 159" stroke-miterlimit="10"/></g><g transform="translate(-198,-110) scale(1,1)"><path fill="none" stroke="#000000" d="M 604.8373251423759 163.209517756016 L 615 159 L 604.8373251423758 154.790482243984" stroke-miterlimit="10"/></g><g transform="translate(-198,-110) scale(1,1)"><path fill="#C0C0C0" stroke="none" d="M 929 127 L 1052 127 Q 1062 127 1062 137 L 1062 188 Q 1062 198 1052 198 L 929 198 Q 919 198 919 188 L 919 137 Q 919 127 929 127 Z" opacity="0.2"/></g><g transform="translate(-198,-110) scale(1,1)"><path fill="#ffffff" stroke="none" d="M 922 120 L 1045 120 Q 1055 120 1055 130 L 1055 181 Q 1055 191 1045 191 L 922 191 Q 912 191 912 181 L 912 130 Q 912 120 922 120 Z"/></g><g transform="translate(-198,-110) scale(1,1)"><path fill="none" stroke="#000000" d="M 922 120 L 1045 120 Q 1055 120 1055 130 L 1055 181 Q 1055 191 1045 191 L 922 191 Q 912 191 912 181 L 912 130 Q 912 120 922 120 Z" stroke-miterlimit="10"/></g><g transform="translate(-198,-110) scale(1,1)"><path fill="none" stroke="#000000" d="M 912 145 L 1055 145" stroke-miterlimit="10"/></g><g transform="translate(-198,-110) scale(1,1)"><g><path fill="none" stroke="none"/><text fill="#000000" stroke="none" font-family="Arial" font-size="13px" font-style="normal" font-weight="bold" text-decoration="none" x="931.86181640625" y="138">Confirma pedido</text></g></g><g transform="translate(-198,-110) scale(1,1)"><g><path fill="none" stroke="none"/><text fill="#000000" stroke="none" font-family="Arial" font-size="13px" font-style="normal" font-weight="normal" text-decoration="none" x="917" y="161">do/confirmaPedido</text></g></g><g transform="translate(-198,-110) scale(1,1)"><path fill="none" stroke="#000000" d="M 776 158 L 911 156" stroke-miterlimit="10"/></g><g transform="translate(-198,-110) scale(1,1)"><path fill="none" stroke="#000000" d="M 900.9007965877964 160.35959750882301 L 911 156 L 900.7760838209158 151.94148574438125" stroke-miterlimit="10"/></g><g transform="translate(-198,-110) scale(1,1)"><path fill="#C0C0C0" stroke="none" d="M 913 303 L 1052 303 Q 1062 303 1062 313 L 1062 372 Q 1062 382 1052 382 L 913 382 Q 903 382 903 372 L 903 313 Q 903 303 913 303 Z" opacity="0.2"/></g><g transform="translate(-198,-110) scale(1,1)"><path fill="#ffffff" stroke="none" d="M 906 296 L 1045 296 Q 1055 296 1055 306 L 1055 365 Q 1055 375 1045 375 L 906 375 Q 896 375 896 365 L 896 306 Q 896 296 906 296 Z"/></g><g transform="translate(-198,-110) scale(1,1)"><path fill="none" stroke="#000000" d="M 906 296 L 1045 296 Q 1055 296 1055 306 L 1055 365 Q 1055 375 1045 375 L 906 375 Q 896 375 896 365 L 896 306 Q 896 296 906 296 Z" stroke-miterlimit="10"/></g><g transform="translate(-198,-110) scale(1,1)"><path fill="none" stroke="#000000" d="M 896 321 L 1055 321" stroke-miterlimit="10"/></g><g transform="translate(-198,-110) scale(1,1)"><g><path fill="none" stroke="none"/><text fill="#000000" stroke="none" font-family="Arial" font-size="13px" font-style="normal" font-weight="bold" text-decoration="none" x="915.19091796875" y="314">Acompanha pedido</text></g></g><g transform="translate(-198,-110) scale(1,1)"><g><path fill="none" stroke="none"/><text fill="#000000" stroke="none" font-family="Arial" font-size="13px" font-style="normal" font-weight="normal" text-decoration="none" x="901" y="337">do/acompanhaPedido</text></g></g><g transform="translate(-198,-110) scale(1,1)"><path fill="none" stroke="#000000" d="M 981 192 L 977 295" stroke-miterlimit="10"/></g><g transform="translate(-198,-110) scale(1,1)"><path fill="none" stroke="#000000" d="M 973.1880226691472 284.6816266384151 L 977 295 L 981.6007167544159 285.0083332048333" stroke-miterlimit="10"/></g><g transform="translate(-198,-110) scale(1,1)"><path fill="#C0C0C0" stroke="none" d="M 695 344.5 L 706.5 335 L 717 344.5 L 706.5 353 L 695 344.5" opacity="0.2"/></g><g transform="translate(-198,-110) scale(1,1)"><path fill="#ffffff" stroke="none" d="M 688 337 L 699 328 L 710 337 L 699 346 L 688 337"/></g><g transform="translate(-198,-110) scale(1,1)"><path fill="none" stroke="#000000" d="M 688 337 L 699 328 L 710 337 L 699 346 L 688 337 L 688 337" stroke-miterlimit="10"/></g><g transform="translate(-198,-110) scale(1,1)"><path fill="none" stroke="#000000" d="M 895 336 L 711 337" stroke-miterlimit="10"/></g><g transform="translate(-198,-110) scale(1,1)"><path fill="none" stroke="#000000" d="M 721.139647298157 332.7353132976762 L 711 337 L 721.1854022502159 341.1542244765174" stroke-miterlimit="10"/></g><g transform="translate(-198,-110) scale(1,1)"><path fill="#C0C0C0" stroke="none" d="M 353 311 L 468 311 Q 478 311 478 321 L 478 364 Q 478 374 468 374 L 353 374 Q 343 374 343 364 L 343 321 Q 343 311 353 311 Z" opacity="0.2"/></g><g transform="translate(-198,-110) scale(1,1)"><path fill="#ffffff" stroke="none" d="M 346 304 L 461 304 Q 471 304 471 314 L 471 357 Q 471 367 461 367 L 346 367 Q 336 367 336 357 L 336 314 Q 336 304 346 304 Z"/></g><g transform="translate(-198,-110) scale(1,1)"><path fill="none" stroke="#000000" d="M 346 304 L 461 304 Q 471 304 471 314 L 471 357 Q 471 367 461 367 L 346 367 Q 336 367 336 357 L 336 314 Q 336 304 346 304 Z" stroke-miterlimit="10"/></g><g transform="translate(-198,-110) scale(1,1)"><path fill="none" stroke="#000000" d="M 336 329 L 471 329" stroke-miterlimit="10"/></g><g transform="translate(-198,-110) scale(1,1)"><g><path fill="none" stroke="none"/><text fill="#000000" stroke="none" font-family="Arial" font-size="13px" font-style="normal" font-weight="bold" text-decoration="none" x="355.4609375" y="322">Cancela pedido</text></g></g><g transform="translate(-198,-110) scale(1,1)"><g><path fill="none" stroke="none"/><text fill="#000000" stroke="none" font-family="Arial" font-size="13px" font-style="normal" font-weight="normal" text-decoration="none" x="341" y="345">do/cancelaPedido</text></g></g><g transform="translate(-198,-110) scale(1,1)"><path fill="none" stroke="#000000" d="M 687 337 L 472 335" stroke-miterlimit="10"/></g><g transform="translate(-198,-110) scale(1,1)"><path fill="none" stroke="#000000" d="M 482.20139179202897 330.885196784107 L 472 335 L 482.12307857089064 339.30386805647834" stroke-miterlimit="10"/></g><g transform="translate(-198,-110) scale(1,1)"><g><path fill="none" stroke="none"/><text fill="#000000" stroke="none" font-family="Arial" font-size="13px" font-style="normal" font-weight="normal" text-decoration="none" x="526.5" y="355">Pedido cancelado</text></g></g><g transform="translate(-198,-110) scale(1,1)"><path fill="#C0C0C0" stroke="none" d="M 633 431 L 780 431 Q 790 431 790 441 L 790 492 Q 790 502 780 502 L 633 502 Q 623 502 623 492 L 623 441 Q 623 431 633 431 Z" opacity="0.2"/></g><g transform="translate(-198,-110) scale(1,1)"><path fill="#ffffff" stroke="none" d="M 626 424 L 773 424 Q 783 424 783 434 L 783 485 Q 783 495 773 495 L 626 495 Q 616 495 616 485 L 616 434 Q 616 424 626 424 Z"/></g><g transform="translate(-198,-110) scale(1,1)"><path fill="none" stroke="#000000" d="M 626 424 L 773 424 Q 783 424 783 434 L 783 485 Q 783 495 773 495 L 626 495 Q 616 495 616 485 L 616 434 Q 616 424 626 424 Z" stroke-miterlimit="10"/></g><g transform="translate(-198,-110) scale(1,1)"><path fill="none" stroke="#000000" d="M 616 449 L 783 449" stroke-miterlimit="10"/></g><g transform="translate(-198,-110) scale(1,1)"><g><path fill="none" stroke="none"/><text fill="#000000" stroke="none" font-family="Arial" font-size="13px" font-style="normal" font-weight="bold" text-decoration="none" x="652.55908203125" y="442">Conclui pedido</text></g></g><g transform="translate(-198,-110) scale(1,1)"><g><path fill="none" stroke="none"/><text fill="#000000" stroke="none" font-family="Arial" font-size="13px" font-style="normal" font-weight="normal" text-decoration="none" x="621" y="465">do/concluiPedido</text></g></g><g transform="translate(-198,-110) scale(1,1)"><path fill="none" stroke="#000000" d="M 699 347 L 699 423" stroke-miterlimit="10"/></g><g transform="translate(-198,-110) scale(1,1)"><path fill="none" stroke="#000000" d="M 694.790482243984 412.83732514237585 L 699 423 L 703.209517756016 412.83732514237585" stroke-miterlimit="10"/></g><g transform="translate(-198,-110) scale(1,1)"><g><path fill="none" stroke="none"/><text fill="#000000" stroke="none" font-family="Arial" font-size="13px" font-style="normal" font-weight="normal" text-decoration="none" x="663.5" y="389">Pedido finalizado</text></g></g><g transform="translate(-198,-110) scale(1,1)"><path fill="#C0C0C0" stroke="none" d="M 345 439 L 476 439 Q 486 439 486 449 L 486 492 Q 486 502 476 502 L 345 502 Q 335 502 335 492 L 335 449 Q 335 439 345 439 Z" opacity="0.2"/></g><g transform="translate(-198,-110) scale(1,1)"><path fill="#ffffff" stroke="none" d="M 338 432 L 469 432 Q 479 432 479 442 L 479 485 Q 479 495 469 495 L 338 495 Q 328 495 328 485 L 328 442 Q 328 432 338 432 Z"/></g><g transform="translate(-198,-110) scale(1,1)"><path fill="none" stroke="#000000" d="M 338 432 L 469 432 Q 479 432 479 442 L 479 485 Q 479 495 469 495 L 338 495 Q 328 495 328 485 L 328 442 Q 328 432 338 432 Z" stroke-miterlimit="10"/></g><g transform="translate(-198,-110) scale(1,1)"><path fill="none" stroke="#000000" d="M 328 457 L 479 457" stroke-miterlimit="10"/></g><g transform="translate(-198,-110) scale(1,1)"><g><path fill="none" stroke="none"/><text fill="#000000" stroke="none" font-family="Arial" font-size="13px" font-style="normal" font-weight="bold" text-decoration="none" x="342.806884765625" y="450">Encerrando serviço</text></g></g><g transform="translate(-198,-110) scale(1,1)"><g><path fill="none" stroke="none"/><text fill="#000000" stroke="none" font-family="Arial" font-size="13px" font-style="normal" font-weight="normal" text-decoration="none" x="333" y="473">do/encerraPedido</text></g></g><g transform="translate(-198,-110) scale(1,1)"><path fill="none" stroke="#000000" d="M 403 368 L 403 431" stroke-miterlimit="10"/></g><g transform="translate(-198,-110) scale(1,1)"><path fill="none" stroke="#000000" d="M 398.790482243984 420.83732514237585 L 403 431 L 407.209517756016 420.83732514237585" stroke-miterlimit="10"/></g><g transform="translate(-198,-110) scale(1,1)"><path fill="none" stroke="#000000" d="M 615 460 L 480 462" stroke-miterlimit="10"/></g><g transform="translate(-198,-110) scale(1,1)"><path fill="none" stroke="#000000" d="M 490.09920341220356 457.640402491177 L 480 462 L 490.2239161790842 466.0585142556187" stroke-miterlimit="10"/></g><g transform="translate(-198,-110) scale(1,1)"><path fill="#C0C0C0" stroke="none" d="M 399 643.5 C 399 636.59644 404.59644 631 411.5 631 C 418.40356 631 424 636.59644 424 643.5 C 424 650.40356 418.40356 656 411.5 656 C 404.59644 656 399 650.40356 399 643.5 Z" opacity="0.2"/></g><g transform="translate(-198,-110) scale(1,1)"><path fill="none" stroke="#000000" d="M 392 636.5 C 392 629.59644 397.59644 624 404.5 624 C 411.40356 624 417 629.59644 417 636.5 C 417 643.40356 411.40356 649 404.5 649 C 397.59644 649 392 643.40356 392 636.5 Z" stroke-miterlimit="10"/></g><g transform="translate(-198,-110) scale(1,1)"><path fill="#000000" stroke="none" d="M 397 636.5 C 397 632.357864 400.357864 629 404.5 629 C 408.642136 629 412 632.357864 412 636.5 C 412 640.642136 408.642136 644 404.5 644 C 400.357864 644 397 640.642136 397 636.5 Z"/></g><g transform="translate(-198,-110) scale(1,1)"><path fill="none" stroke="#000000" d="M 403 496 L 404 623" stroke-miterlimit="10"/></g><g transform="translate(-198,-110) scale(1,1)"><path fill="none" stroke="#000000" d="M 399.7105941518992 612.8707849529059 L 404 623 L 408.12936868544375 612.8044953896496" stroke-miterlimit="10"/></g><g transform="translate(-198,-110) scale(1,1)"><path fill="#ffffff" stroke="none" d="M 528 616 L 593.80810546875 616 L 603.80810546875 626 L 603.80810546875 654 L 528 654 L 528 616"/></g><g transform="translate(-198,-110) scale(1,1)"><path fill="none" stroke="#000000" d="M 528 616 L 593.80810546875 616 L 603.80810546875 626 L 603.80810546875 654 L 528 654 L 528 616 L 528 616" stroke-miterlimit="10"/></g><g transform="translate(-198,-110) scale(1,1)"><path fill="none" stroke="#000000" d="M 593.80810546875 616 L 593.80810546875 626 L 603.80810546875 626 L 593.80810546875 616" stroke-miterlimit="10"/></g><g transform="translate(-198,-110) scale(1,1)"><g><path fill="none" stroke="none"/><text fill="#000000" stroke="none" font-family="Arial" font-size="13px" font-style="normal" font-weight="normal" text-decoration="none" x="533" y="631">Pedido</text><text fill="#000000" stroke="none" font-family="Arial" font-size="13px" font-style="normal" font-weight="normal" text-decoration="none" x="533" y="644">terminado</text></g></g><g transform="translate(-198,-110) scale(1,1)"><path fill="none" stroke="#000000" d="M 418 636 L 527 635" stroke-miterlimit="10" stroke-dasharray="3"/></g></g></svg>