<svg version="1.1" xmlns="http://www.w3.org/2000/svg" xmlns:xlink="http://www.w3.org/1999/xlink" width="987" height="691"><defs/><g><text fill="#eeeeee" stroke="none" font-family="Arial" font-size="24px" font-style="normal" font-weight="normal" text-decoration="none" x="0" y="0">UNREGISTERED</text><text fill="#eeeeee" stroke="none" font-family="Arial" font-size="24px" font-style="normal" font-weight="normal" text-decoration="none" x="0" y="30">UNREGISTERED</text><text fill="#eeeeee" stroke="none" font-family="Arial" font-size="24px" font-style="normal" font-weight="normal" text-decoration="none" x="0" y="60">UNREGISTERED</text><text fill="#eeeeee" stroke="none" font-family="Arial" font-size="24px" font-style="normal" font-weight="normal" text-decoration="none" x="0" y="90">UNREGISTERED</text><text fill="#eeeeee" stroke="none" font-family="Arial" font-size="24px" font-style="normal" font-weight="normal" text-decoration="none" x="0" y="120">UNREGISTERED</text><text fill="#eeeeee" stroke="none" font-family="Arial" font-size="24px" font-style="normal" font-weight="normal" text-decoration="none" x="0" y="150">UNREGISTERED</text><text fill="#eeeeee" stroke="none" font-family="Arial" font-size="24px" font-style="normal" font-weight="normal" text-decoration="none" x="0" y="180">UNREGISTERED</text><text fill="#eeeeee" stroke="none" font-family="Arial" font-size="24px" font-style="normal" font-weight="normal" text-decoration="none" x="0" y="210">UNREGISTERED</text><text fill="#eeeeee" stroke="none" font-family="Arial" font-size="24px" font-style="normal" font-weight="normal" text-decoration="none" x="0" y="240">UNREGISTERED</text><text fill="#eeeeee" stroke="none" font-family="Arial" font-size="24px" font-style="normal" font-weight="normal" text-decoration="none" x="0" y="270">UNREGISTERED</text><text fill="#eeeeee" stroke="none" font-family="Arial" font-size="24px" font-style="normal" font-weight="normal" text-decoration="none" x="0" y="300">UNREGISTERED</text><text fill="#eeeeee" stroke="none" font-family="Arial" font-size="24px" font-style="normal" font-weight="normal" text-decoration="none" x="0" y="330">UNREGISTERED</text><text fill="#eeeeee" stroke="none" font-family="Arial" font-size="24px" font-style="normal" font-weight="normal" text-decoration="none" x="0" y="360">UNREGISTERED</text><text fill="#eeeeee" stroke="none" font-family="Arial" font-size="24px" font-style="normal" font-weight="normal" text-decoration="none" x="0" y="390">UNREGISTERED</text><text fill="#eeeeee" stroke="none" font-family="Arial" font-size="24px" font-style="normal" font-weight="normal" text-decoration="none" x="0" y="420">UNREGISTERED</text><text fill="#eeeeee" stroke="none" font-family="Arial" font-size="24px" font-style="normal" font-weight="normal" text-decoration="none" x="0" y="450">UNREGISTERED</text><text fill="#eeeeee" stroke="none" font-family="Arial" font-size="24px" font-style="normal" font-weight="normal" text-decoration="none" x="0" y="480">UNREGISTERED</text><text fill="#eeeeee" stroke="none" font-family="Arial" font-size="24px" font-style="normal" font-weight="normal" text-decoration="none" x="0" y="510">UNREGISTERED</text><text fill="#eeeeee" stroke="none" font-family="Arial" font-size="24px" font-style="normal" font-weight="normal" text-decoration="none" x="0" y="540">UNREGISTERED</text><text fill="#eeeeee" stroke="none" font-family="Arial" font-size="24px" font-style="normal" font-weight="normal" text-decoration="none" x="0" y="570">UNREGISTERED</text><text fill="#eeeeee" stroke="none" font-family="Arial" font-size="24px" font-style="normal" font-weight="normal" text-decoration="none" x="0" y="600">UNREGISTERED</text><text fill="#eeeeee" stroke="none" font-family="Arial" font-size="24px" font-style="normal" font-weight="normal" text-decoration="none" x="0" y="630">UNREGISTERED</text><text fill="#eeeeee" stroke="none" font-family="Arial" font-size="24px" font-style="normal" font-weight="normal" text-decoration="none" x="0" y="660">UNREGISTERED</text><text fill="#eeeeee" stroke="none" font-family="Arial" font-size="24px" font-style="normal" font-weight="normal" text-decoration="none" x="0" y="690">UNREGISTERED</text><text fill="#eeeeee" stroke="none" font-family="Arial" font-size="24px" font-style="normal" font-weight="normal" text-decoration="none" x="200" y="0">UNREGISTERED</text><text fill="#eeeeee" stroke="none" font-family="Arial" font-size="24px" font-style="normal" font-weight="normal" text-decoration="none" x="200" y="30">UNREGISTERED</text><text fill="#eeeeee" stroke="none" font-family="Arial" font-size="24px" font-style="normal" font-weight="normal" text-decoration="none" x="200" y="60">UNREGISTERED</text><text fill="#eeeeee" stroke="none" font-family="Arial" font-size="24px" font-style="normal" font-weight="normal" text-decoration="none" x="200" y="90">UNREGISTERED</text><text fill="#eeeeee" stroke="none" font-family="Arial" font-size="24px" font-style="normal" font-weight="normal" text-decoration="none" x="200" y="120">UNREGISTERED</text><text fill="#eeeeee" stroke="none" font-family="Arial" font-size="24px" font-style="normal" font-weight="normal" text-decoration="none" x="200" y="150">UNREGISTERED</text><text fill="#eeeeee" stroke="none" font-family="Arial" font-size="24px" font-style="normal" font-weight="normal" text-decoration="none" x="200" y="180">UNREGISTERED</text><text fill="#eeeeee" stroke="none" font-family="Arial" font-size="24px" font-style="normal" font-weight="normal" text-decoration="none" x="200" y="210">UNREGISTERED</text><text fill="#eeeeee" stroke="none" font-family="Arial" font-size="24px" font-style="normal" font-weight="normal" text-decoration="none" x="200" y="240">UNREGISTERED</text><text fill="#eeeeee" stroke="none" font-family="Arial" font-size="24px" font-style="normal" font-weight="normal" text-decoration="none" x="200" y="270">UNREGISTERED</text><text fill="#eeeeee" stroke="none" font-family="Arial" font-size="24px" font-style="normal" font-weight="normal" text-decoration="none" x="200" y="300">UNREGISTERED</text><text fill="#eeeeee" stroke="none" font-family="Arial" font-size="24px" font-style="normal" font-weight="normal" text-decoration="none" x="200" y="330">UNREGISTERED</text><text fill="#eeeeee" stroke="none" font-family="Arial" font-size="24px" font-style="normal" font-weight="normal" text-decoration="none" x="200" y="360">UNREGISTERED</text><text fill="#eeeeee" stroke="none" font-family="Arial" font-size="24px" font-style="normal" font-weight="normal" text-decoration="none" x="200" y="390">UNREGISTERED</text><text fill="#eeeeee" stroke="none" font-family="Arial" font-size="24px" font-style="normal" font-weight="normal" text-decoration="none" x="200" y="420">UNREGISTERED</text><text fill="#eeeeee" stroke="none" font-family="Arial" font-size="24px" font-style="normal" font-weight="normal" text-decoration="none" x="200" y="450">UNREGISTERED</text><text fill="#eeeeee" stroke="none" font-family="Arial" font-size="24px" font-style="normal" font-weight="normal" text-decoration="none" x="200" y="480">UNREGISTERED</text><text fill="#eeeeee" stroke="none" font-family="Arial" font-size="24px" font-style="normal" font-weight="normal" text-decoration="none" x="200" y="510">UNREGISTERED</text><text fill="#eeeeee" stroke="none" font-family="Arial" font-size="24px" font-style="normal" font-weight="normal" text-decoration="none" x="200" y="540">UNREGISTERED</text><text fill="#eeeeee" stroke="none" font-family="Arial" font-size="24px" font-style="normal" font-weight="normal" text-decoration="none" x="200" y="570">UNREGISTERED</text><text fill="#eeeeee" stroke="none" font-family="Arial" font-size="24px" font-style="normal" font-weight="normal" text-decoration="none" x="200" y="600">UNREGISTERED</text><text fill="#eeeeee" stroke="none" font-family="Arial" font-size="24px" font-style="normal" font-weight="normal" text-decoration="none" x="200" y="630">UNREGISTERED</text><text fill="#eeeeee" stroke="none" font-family="Arial" font-size="24px" font-style="normal" font-weight="normal" text-decoration="none" x="200" y="660">UNREGISTERED</text><text fill="#eeeeee" stroke="none" font-family="Arial" font-size="24px" font-style="normal" font-weight="normal" text-decoration="none" x="200" y="690">UNREGISTERED</text><text fill="#eeeeee" stroke="none" font-family="Arial" font-size="24px" font-style="normal" font-weight="normal" text-decoration="none" x="400" y="0">UNREGISTERED</text><text fill="#eeeeee" stroke="none" font-family="Arial" font-size="24px" font-style="normal" font-weight="normal" text-decoration="none" x="400" y="30">UNREGISTERED</text><text fill="#eeeeee" stroke="none" font-family="Arial" font-size="24px" font-style="normal" font-weight="normal" text-decoration="none" x="400" y="60">UNREGISTERED</text><text fill="#eeeeee" stroke="none" font-family="Arial" font-size="24px" font-style="normal" font-weight="normal" text-decoration="none" x="400" y="90">UNREGISTERED</text><text fill="#eeeeee" stroke="none" font-family="Arial" font-size="24px" font-style="normal" font-weight="normal" text-decoration="none" x="400" y="120">UNREGISTERED</text><text fill="#eeeeee" stroke="none" font-family="Arial" font-size="24px" font-style="normal" font-weight="normal" text-decoration="none" x="400" y="150">UNREGISTERED</text><text fill="#eeeeee" stroke="none" font-family="Arial" font-size="24px" font-style="normal" font-weight="normal" text-decoration="none" x="400" y="180">UNREGISTERED</text><text fill="#eeeeee" stroke="none" font-family="Arial" font-size="24px" font-style="normal" font-weight="normal" text-decoration="none" x="400" y="210">UNREGISTERED</text><text fill="#eeeeee" stroke="none" font-family="Arial" font-size="24px" font-style="normal" font-weight="normal" text-decoration="none" x="400" y="240">UNREGISTERED</text><text fill="#eeeeee" stroke="none" font-family="Arial" font-size="24px" font-style="normal" font-weight="normal" text-decoration="none" x="400" y="270">UNREGISTERED</text><text fill="#eeeeee" stroke="none" font-family="Arial" font-size="24px" font-style="normal" font-weight="normal" text-decoration="none" x="400" y="300">UNREGISTERED</text><text fill="#eeeeee" stroke="none" font-family="Arial" font-size="24px" font-style="normal" font-weight="normal" text-decoration="none" x="400" y="330">UNREGISTERED</text><text fill="#eeeeee" stroke="none" font-family="Arial" font-size="24px" font-style="normal" font-weight="normal" text-decoration="none" x="400" y="360">UNREGISTERED</text><text fill="#eeeeee" stroke="none" font-family="Arial" font-size="24px" font-style="normal" font-weight="normal" text-decoration="none" x="400" y="390">UNREGISTERED</text><text fill="#eeeeee" stroke="none" font-family="Arial" font-size="24px" font-style="normal" font-weight="normal" text-decoration="none" x="400" y="420">UNREGISTERED</text><text fill="#eeeeee" stroke="none" font-family="Arial" font-size="24px" font-style="normal" font-weight="normal" text-decoration="none" x="400" y="450">UNREGISTERED</text><text fill="#eeeeee" stroke="none" font-family="Arial" font-size="24px" font-style="normal" font-weight="normal" text-decoration="none" x="400" y="480">UNREGISTERED</text><text fill="#eeeeee" stroke="none" font-family="Arial" font-size="24px" font-style="normal" font-weight="normal" text-decoration="none" x="400" y="510">UNREGISTERED</text><text fill="#eeeeee" stroke="none" font-family="Arial" font-size="24px" font-style="normal" font-weight="normal" text-decoration="none" x="400" y="540">UNREGISTERED</text><text fill="#eeeeee" stroke="none" font-family="Arial" font-size="24px" font-style="normal" font-weight="normal" text-decoration="none" x="400" y="570">UNREGISTERED</text><text fill="#eeeeee" stroke="none" font-family="Arial" font-size="24px" font-style="normal" font-weight="normal" text-decoration="none" x="400" y="600">UNREGISTERED</text><text fill="#eeeeee" stroke="none" font-family="Arial" font-size="24px" font-style="normal" font-weight="normal" text-decoration="none" x="400" y="630">UNREGISTERED</text><text fill="#eeeeee" stroke="none" font-family="Arial" font-size="24px" font-style="normal" font-weight="normal" text-decoration="none" x="400" y="660">UNREGISTERED</text><text fill="#eeeeee" stroke="none" font-family="Arial" font-size="24px" font-style="normal" font-weight="normal" text-decoration="none" x="400" y="690">UNREGISTERED</text><text fill="#eeeeee" stroke="none" font-family="Arial" font-size="24px" font-style="normal" font-weight="normal" text-decoration="none" x="600" y="0">UNREGISTERED</text><text fill="#eeeeee" stroke="none" font-family="Arial" font-size="24px" font-style="normal" font-weight="normal" text-decoration="none" x="600" y="30">UNREGISTERED</text><text fill="#eeeeee" stroke="none" font-family="Arial" font-size="24px" font-style="normal" font-weight="normal" text-decoration="none" x="600" y="60">UNREGISTERED</text><text fill="#eeeeee" stroke="none" font-family="Arial" font-size="24px" font-style="normal" font-weight="normal" text-decoration="none" x="600" y="90">UNREGISTERED</text><text fill="#eeeeee" stroke="none" font-family="Arial" font-size="24px" font-style="normal" font-weight="normal" text-decoration="none" x="600" y="120">UNREGISTERED</text><text fill="#eeeeee" stroke="none" font-family="Arial" font-size="24px" font-style="normal" font-weight="normal" text-decoration="none" x="600" y="150">UNREGISTERED</text><text fill="#eeeeee" stroke="none" font-family="Arial" font-size="24px" font-style="normal" font-weight="normal" text-decoration="none" x="600" y="180">UNREGISTERED</text><text fill="#eeeeee" stroke="none" font-family="Arial" font-size="24px" font-style="normal" font-weight="normal" text-decoration="none" x="600" y="210">UNREGISTERED</text><text fill="#eeeeee" stroke="none" font-family="Arial" font-size="24px" font-style="normal" font-weight="normal" text-decoration="none" x="600" y="240">UNREGISTERED</text><text fill="#eeeeee" stroke="none" font-family="Arial" font-size="24px" font-style="normal" font-weight="normal" text-decoration="none" x="600" y="270">UNREGISTERED</text><text fill="#eeeeee" stroke="none" font-family="Arial" font-size="24px" font-style="normal" font-weight="normal" text-decoration="none" x="600" y="300">UNREGISTERED</text><text fill="#eeeeee" stroke="none" font-family="Arial" font-size="24px" font-style="normal" font-weight="normal" text-decoration="none" x="600" y="330">UNREGISTERED</text><text fill="#eeeeee" stroke="none" font-family="Arial" font-size="24px" font-style="normal" font-weight="normal" text-decoration="none" x="600" y="360">UNREGISTERED</text><text fill="#eeeeee" stroke="none" font-family="Arial" font-size="24px" font-style="normal" font-weight="normal" text-decoration="none" x="600" y="390">UNREGISTERED</text><text fill="#eeeeee" stroke="none" font-family="Arial" font-size="24px" font-style="normal" font-weight="normal" text-decoration="none" x="600" y="420">UNREGISTERED</text><text fill="#eeeeee" stroke="none" font-family="Arial" font-size="24px" font-style="normal" font-weight="normal" text-decoration="none" x="600" y="450">UNREGISTERED</text><text fill="#eeeeee" stroke="none" font-family="Arial" font-size="24px" font-style="normal" font-weight="normal" text-decoration="none" x="600" y="480">UNREGISTERED</text><text fill="#eeeeee" stroke="none" font-family="Arial" font-size="24px" font-style="normal" font-weight="normal" text-decoration="none" x="600" y="510">UNREGISTERED</text><text fill="#eeeeee" stroke="none" font-family="Arial" font-size="24px" font-style="normal" font-weight="normal" text-decoration="none" x="600" y="540">UNREGISTERED</text><text fill="#eeeeee" stroke="none" font-family="Arial" font-size="24px" font-style="normal" font-weight="normal" text-decoration="none" x="600" y="570">UNREGISTERED</text><text fill="#eeeeee" stroke="none" font-family="Arial" font-size="24px" font-style="normal" font-weight="normal" text-decoration="none" x="600" y="600">UNREGISTERED</text><text fill="#eeeeee" stroke="none" font-family="Arial" font-size="24px" font-style="normal" font-weight="normal" text-decoration="none" x="600" y="630">UNREGISTERED</text><text fill="#eeeeee" stroke="none" font-family="Arial" font-size="24px" font-style="normal" font-weight="normal" text-decoration="none" x="600" y="660">UNREGISTERED</text><text fill="#eeeeee" stroke="none" font-family="Arial" font-size="24px" font-style="normal" font-weight="normal" text-decoration="none" x="600" y="690">UNREGISTERED</text><text fill="#eeeeee" stroke="none" font-family="Arial" font-size="24px" font-style="normal" font-weight="normal" text-decoration="none" x="800" y="0">UNREGISTERED</text><text fill="#eeeeee" stroke="none" font-family="Arial" font-size="24px" font-style="normal" font-weight="normal" text-decoration="none" x="800" y="30">UNREGISTERED</text><text fill="#eeeeee" stroke="none" font-family="Arial" font-size="24px" font-style="normal" font-weight="normal" text-decoration="none" x="800" y="60">UNREGISTERED</text><text fill="#eeeeee" stroke="none" font-family="Arial" font-size="24px" font-style="normal" font-weight="normal" text-decoration="none" x="800" y="90">UNREGISTERED</text><text fill="#eeeeee" stroke="none" font-family="Arial" font-size="24px" font-style="normal" font-weight="normal" text-decoration="none" x="800" y="120">UNREGISTERED</text><text fill="#eeeeee" stroke="none" font-family="Arial" font-size="24px" font-style="normal" font-weight="normal" text-decoration="none" x="800" y="150">UNREGISTERED</text><text fill="#eeeeee" stroke="none" font-family="Arial" font-size="24px" font-style="normal" font-weight="normal" text-decoration="none" x="800" y="180">UNREGISTERED</text><text fill="#eeeeee" stroke="none" font-family="Arial" font-size="24px" font-style="normal" font-weight="normal" text-decoration="none" x="800" y="210">UNREGISTERED</text><text fill="#eeeeee" stroke="none" font-family="Arial" font-size="24px" font-style="normal" font-weight="normal" text-decoration="none" x="800" y="240">UNREGISTERED</text><text fill="#eeeeee" stroke="none" font-family="Arial" font-size="24px" font-style="normal" font-weight="normal" text-decoration="none" x="800" y="270">UNREGISTERED</text><text fill="#eeeeee" stroke="none" font-family="Arial" font-size="24px" font-style="normal" font-weight="normal" text-decoration="none" x="800" y="300">UNREGISTERED</text><text fill="#eeeeee" stroke="none" font-family="Arial" font-size="24px" font-style="normal" font-weight="normal" text-decoration="none" x="800" y="330">UNREGISTERED</text><text fill="#eeeeee" stroke="none" font-family="Arial" font-size="24px" font-style="normal" font-weight="normal" text-decoration="none" x="800" y="360">UNREGISTERED</text><text fill="#eeeeee" stroke="none" font-family="Arial" font-size="24px" font-style="normal" font-weight="normal" text-decoration="none" x="800" y="390">UNREGISTERED</text><text fill="#eeeeee" stroke="none" font-family="Arial" font-size="24px" font-style="normal" font-weight="normal" text-decoration="none" x="800" y="420">UNREGISTERED</text><text fill="#eeeeee" stroke="none" font-family="Arial" font-size="24px" font-style="normal" font-weight="normal" text-decoration="none" x="800" y="450">UNREGISTERED</text><text fill="#eeeeee" stroke="none" font-family="Arial" font-size="24px" font-style="normal" font-weight="normal" text-decoration="none" x="800" y="480">UNREGISTERED</text><text fill="#eeeeee" stroke="none" font-family="Arial" font-size="24px" font-style="normal" font-weight="normal" text-decoration="none" x="800" y="510">UNREGISTERED</text><text fill="#eeeeee" stroke="none" font-family="Arial" font-size="24px" font-style="normal" font-weight="normal" text-decoration="none" x="800" y="540">UNREGISTERED</text><text fill="#eeeeee" stroke="none" font-family="Arial" font-size="24px" font-style="normal" font-weight="normal" text-decoration="none" x="800" y="570">UNREGISTERED</text><text fill="#eeeeee" stroke="none" font-family="Arial" font-size="24px" font-style="normal" font-weight="normal" text-decoration="none" x="800" y="600">UNREGISTERED</text><text fill="#eeeeee" stroke="none" font-family="Arial" font-size="24px" font-style="normal" font-weight="normal" text-decoration="none" x="800" y="630">UNREGISTERED</text><text fill="#eeeeee" stroke="none" font-family="Arial" font-size="24px" font-style="normal" font-weight="normal" text-decoration="none" x="800" y="660">UNREGISTERED</text><text fill="#eeeeee" stroke="none" font-family="Arial" font-size="24px" font-style="normal" font-weight="normal" text-decoration="none" x="800" y="690">UNREGISTERED</text><g transform="translate(-166,2) scale(1,1)"><path fill="#C0C0C0" stroke="none" d="M 183 200.5 C 183 195.2532944 187.2532944 191 192.5 191 C 197.7467056 191 202 195.2532944 202 200.5 C 202 205.7467056 197.7467056 210 192.5 210 C 187.2532944 210 183 205.7467056 183 200.5 Z" opacity="0.2"/></g><g transform="translate(-166,2) scale(1,1)"><path fill="#000000" stroke="none" d="M 176 193.5 C 176 188.2532944 180.2532944 184 185.5 184 C 190.7467056 184 195 188.2532944 195 193.5 C 195 198.7467056 190.7467056 203 185.5 203 C 180.2532944 203 176 198.7467056 176 193.5 Z"/></g><g transform="translate(-166,2) scale(1,1)"><path fill="#C0C0C0" stroke="none" d="M 449 15 L 620 15 Q 630 15 630 25 L 630 84 Q 630 94 620 94 L 449 94 Q 439 94 439 84 L 439 25 Q 439 15 449 15 Z" opacity="0.2"/></g><g transform="translate(-166,2) scale(1,1)"><path fill="#ffffff" stroke="none" d="M 442 8 L 613 8 Q 623 8 623 18 L 623 77 Q 623 87 613 87 L 442 87 Q 432 87 432 77 L 432 18 Q 432 8 442 8 Z"/></g><g transform="translate(-166,2) scale(1,1)"><path fill="none" stroke="#000000" d="M 442 8 L 613 8 Q 623 8 623 18 L 623 77 Q 623 87 613 87 L 442 87 Q 432 87 432 77 L 432 18 Q 432 8 442 8 Z" stroke-miterlimit="10"/></g><g transform="translate(-166,2) scale(1,1)"><path fill="none" stroke="#000000" d="M 432 33 L 623 33" stroke-miterlimit="10"/></g><g transform="translate(-166,2) scale(1,1)"><g><path fill="none" stroke="none"/><text fill="#000000" stroke="none" font-family="Arial" font-size="13px" font-style="normal" font-weight="bold" text-decoration="none" x="440.457763671875" y="26">Adicionando conta bancaria</text></g></g><g transform="translate(-166,2) scale(1,1)"><g><path fill="none" stroke="none"/><text fill="#000000" stroke="none" font-family="Arial" font-size="13px" font-style="normal" font-weight="normal" text-decoration="none" x="437" y="49">do/adicionaConta</text></g></g><g transform="translate(-166,2) scale(1,1)"><path fill="#C0C0C0" stroke="none" d="M 335 200.5 L 346.5 191 L 357 200.5 L 346.5 209 L 335 200.5" opacity="0.2"/></g><g transform="translate(-166,2) scale(1,1)"><path fill="#ffffff" stroke="none" d="M 328 193 L 339 184 L 350 193 L 339 202 L 328 193"/></g><g transform="translate(-166,2) scale(1,1)"><path fill="none" stroke="#000000" d="M 328 193 L 339 184 L 350 193 L 339 202 L 328 193 L 328 193" stroke-miterlimit="10"/></g><g transform="translate(-166,2) scale(1,1)"><path fill="#C0C0C0" stroke="none" d="M 681 175 L 852 175 Q 862 175 862 185 L 862 212 Q 862 222 852 222 L 681 222 Q 671 222 671 212 L 671 185 Q 671 175 681 175 Z" opacity="0.2"/></g><g transform="translate(-166,2) scale(1,1)"><path fill="#ffffff" stroke="none" d="M 674 168 L 845 168 Q 855 168 855 178 L 855 205 Q 855 215 845 215 L 674 215 Q 664 215 664 205 L 664 178 Q 664 168 674 168 Z"/></g><g transform="translate(-166,2) scale(1,1)"><path fill="none" stroke="#000000" d="M 674 168 L 845 168 Q 855 168 855 178 L 855 205 Q 855 215 845 215 L 674 215 Q 664 215 664 205 L 664 178 Q 664 168 674 168 Z" stroke-miterlimit="10"/></g><g transform="translate(-166,2) scale(1,1)"><g><path fill="none" stroke="none"/><text fill="#000000" stroke="none" font-family="Arial" font-size="13px" font-style="normal" font-weight="bold" text-decoration="none" x="741.4345703125" y="186">Pagar</text></g></g><g transform="translate(-166,2) scale(1,1)"><path fill="none" stroke="#000000" d="M 196 193 L 327 193" stroke-miterlimit="10"/></g><g transform="translate(-166,2) scale(1,1)"><path fill="none" stroke="#000000" d="M 316.83732514237585 197.209517756016 L 327 193 L 316.83732514237585 188.790482243984" stroke-miterlimit="10"/></g><g transform="translate(-166,2) scale(1,1)"><path fill="none" stroke="#000000" d="M 351 193 L 663 191" stroke-miterlimit="10"/></g><g transform="translate(-166,2) scale(1,1)"><path fill="none" stroke="#000000" d="M 652.8645174689351 195.27457528445544 L 663 191 L 652.8105504013553 186.85571274201706" stroke-miterlimit="10"/></g><g transform="translate(-166,2) scale(1,1)"><g><path fill="none" stroke="none"/><text fill="#000000" stroke="none" font-family="Arial" font-size="13px" font-style="normal" font-weight="normal" text-decoration="none" x="411.5" y="182">Se já tiver uma conta adicionada</text></g></g><g transform="translate(-166,2) scale(1,1)"><path fill="none" stroke="#000000" d="M 351 184 L 474 88" stroke-miterlimit="10"/></g><g transform="translate(-166,2) scale(1,1)"><path fill="none" stroke="#000000" d="M 468.57859659788596 97.57122694076087 L 474 88 L 463.39860941673 90.93436836490473" stroke-miterlimit="10"/></g><g transform="translate(-166,2) scale(1,1)"><g><path fill="none" stroke="none"/><text fill="#000000" stroke="none" font-family="Arial" font-size="13px" font-style="normal" font-weight="normal" text-decoration="none" x="335.5" y="129">Se não tiver uma conta</text></g></g><g transform="translate(-166,2) scale(1,1)"><path fill="none" stroke="#000000" d="M 593 88 L 720 167" stroke-miterlimit="10"/></g><g transform="translate(-166,2) scale(1,1)"><path fill="none" stroke="#000000" d="M 709.1471912922215 165.2065276270967 L 720 167 L 713.59408184456 158.05772889105876" stroke-miterlimit="10"/></g><g transform="translate(-166,2) scale(1,1)"><path fill="#C0C0C0" stroke="none" d="M 969 175 L 1140 175 Q 1150 175 1150 185 L 1150 212 Q 1150 222 1140 222 L 969 222 Q 959 222 959 212 L 959 185 Q 959 175 969 175 Z" opacity="0.2"/></g><g transform="translate(-166,2) scale(1,1)"><path fill="#ffffff" stroke="none" d="M 962 168 L 1133 168 Q 1143 168 1143 178 L 1143 205 Q 1143 215 1133 215 L 962 215 Q 952 215 952 205 L 952 178 Q 952 168 962 168 Z"/></g><g transform="translate(-166,2) scale(1,1)"><path fill="none" stroke="#000000" d="M 962 168 L 1133 168 Q 1143 168 1143 178 L 1143 205 Q 1143 215 1133 215 L 962 215 Q 952 215 952 205 L 952 178 Q 952 168 962 168 Z" stroke-miterlimit="10"/></g><g transform="translate(-166,2) scale(1,1)"><path fill="none" stroke="#000000" d="M 952 193 L 1143 193" stroke-miterlimit="10"/></g><g transform="translate(-166,2) scale(1,1)"><g><path fill="none" stroke="none"/><text fill="#000000" stroke="none" font-family="Arial" font-size="13px" font-style="normal" font-weight="bold" text-decoration="none" x="1012.4609375" y="186">Verificando</text></g></g><g transform="translate(-166,2) scale(1,1)"><g><path fill="none" stroke="none"/><text fill="#000000" stroke="none" font-family="Arial" font-size="13px" font-style="normal" font-weight="normal" text-decoration="none" x="957" y="209">do/verificaPagamento</text></g></g><g transform="translate(-166,2) scale(1,1)"><path fill="none" stroke="#000000" d="M 856 191 L 951 191" stroke-miterlimit="10"/></g><g transform="translate(-166,2) scale(1,1)"><path fill="none" stroke="#000000" d="M 940.8373251423759 195.209517756016 L 951 191 L 940.8373251423758 186.790482243984" stroke-miterlimit="10"/></g><g transform="translate(-166,2) scale(1,1)"><path fill="#C0C0C0" stroke="none" d="M 1047 344.5 L 1058.5 335 L 1069 344.5 L 1058.5 353 L 1047 344.5" opacity="0.2"/></g><g transform="translate(-166,2) scale(1,1)"><path fill="#ffffff" stroke="none" d="M 1040 337 L 1051 328 L 1062 337 L 1051 346 L 1040 337"/></g><g transform="translate(-166,2) scale(1,1)"><path fill="none" stroke="#000000" d="M 1040 337 L 1051 328 L 1062 337 L 1051 346 L 1040 337 L 1040 337" stroke-miterlimit="10"/></g><g transform="translate(-166,2) scale(1,1)"><path fill="none" stroke="#000000" d="M 1048 216 L 1051 327" stroke-miterlimit="10"/></g><g transform="translate(-166,2) scale(1,1)"><path fill="none" stroke="#000000" d="M 1046.517452218431 316.95476404528245 L 1051 327 L 1054.9334145288594 316.72730560446007" stroke-miterlimit="10"/></g><g transform="translate(-166,2) scale(1,1)"><path fill="#C0C0C0" stroke="none" d="M 1047 539.5 C 1047 532.59644 1052.59644 527 1059.5 527 C 1066.40356 527 1072 532.59644 1072 539.5 C 1072 546.40356 1066.40356 552 1059.5 552 C 1052.59644 552 1047 546.40356 1047 539.5 Z" opacity="0.2"/></g><g transform="translate(-166,2) scale(1,1)"><path fill="none" stroke="#000000" d="M 1040 532.5 C 1040 525.59644 1045.59644 520 1052.5 520 C 1059.40356 520 1065 525.59644 1065 532.5 C 1065 539.40356 1059.40356 545 1052.5 545 C 1045.59644 545 1040 539.40356 1040 532.5 Z" stroke-miterlimit="10"/></g><g transform="translate(-166,2) scale(1,1)"><path fill="#000000" stroke="none" d="M 1045 532.5 C 1045 528.357864 1048.357864 525 1052.5 525 C 1056.642136 525 1060 528.357864 1060 532.5 C 1060 536.642136 1056.642136 540 1052.5 540 C 1048.357864 540 1045 536.642136 1045 532.5 Z"/></g><g transform="translate(-166,2) scale(1,1)"><path fill="none" stroke="#000000" d="M 1051 347 L 1052 519" stroke-miterlimit="10"/></g><g transform="translate(-166,2) scale(1,1)"><path fill="none" stroke="#000000" d="M 1047.7314690669937 508.86197042448737 L 1052 519 L 1056.1503622922814 508.81302337085197" stroke-miterlimit="10"/></g><g transform="translate(-166,2) scale(1,1)"><g><path fill="none" stroke="none"/><text fill="#000000" stroke="none" font-family="Arial" font-size="13px" font-style="normal" font-weight="normal" text-decoration="none" x="988.5" y="437">Se o pagamento for aceito</text></g></g><g transform="translate(-166,2) scale(1,1)"><path fill="#C0C0C0" stroke="none" d="M 593 319 L 701.17724609375 319 Q 711.17724609375 319 711.17724609375 329 L 711.17724609375 356 Q 711.17724609375 366 701.17724609375 366 L 593 366 Q 583 366 583 356 L 583 329 Q 583 319 593 319 Z" opacity="0.2"/></g><g transform="translate(-166,2) scale(1,1)"><path fill="#ffffff" stroke="none" d="M 586 312 L 694.17724609375 312 Q 704.17724609375 312 704.17724609375 322 L 704.17724609375 349 Q 704.17724609375 359 694.17724609375 359 L 586 359 Q 576 359 576 349 L 576 322 Q 576 312 586 312 Z"/></g><g transform="translate(-166,2) scale(1,1)"><path fill="none" stroke="#000000" d="M 586 312 L 694.17724609375 312 Q 704.17724609375 312 704.17724609375 322 L 704.17724609375 349 Q 704.17724609375 359 694.17724609375 359 L 586 359 Q 576 359 576 349 L 576 322 Q 576 312 586 312 Z" stroke-miterlimit="10"/></g><g transform="translate(-166,2) scale(1,1)"><path fill="none" stroke="#000000" d="M 576 337 L 704.17724609375 337" stroke-miterlimit="10"/></g><g transform="translate(-166,2) scale(1,1)"><g><path fill="none" stroke="none"/><text fill="#000000" stroke="none" font-family="Arial" font-size="13px" font-style="normal" font-weight="bold" text-decoration="none" x="580.5" y="330">Erro no pagamento</text></g></g><g transform="translate(-166,2) scale(1,1)"><g><path fill="none" stroke="none"/><text fill="#000000" stroke="none" font-family="Arial" font-size="13px" font-style="normal" font-weight="normal" text-decoration="none" x="581" y="353">do/erroPagamento</text></g></g><g transform="translate(-166,2) scale(1,1)"><path fill="none" stroke="#000000" d="M 1039 337 L 705 335" stroke-miterlimit="10"/></g><g transform="translate(-166,2) scale(1,1)"><path fill="none" stroke="#000000" d="M 715.1876989051506 330.85141096058015 L 705 335 L 715.1372864226487 339.2702955383887" stroke-miterlimit="10"/></g><g transform="translate(-166,2) scale(1,1)"><g><path fill="none" stroke="none"/><text fill="#000000" stroke="none" font-family="Arial" font-size="13px" font-style="normal" font-weight="normal" text-decoration="none" x="749.5" y="355">Se houver algum problema no pagamento</text></g></g><g transform="translate(-166,2) scale(1,1)"><path fill="#C0C0C0" stroke="none" d="M 273 319 L 404 319 Q 414 319 414 329 L 414 356 Q 414 366 404 366 L 273 366 Q 263 366 263 356 L 263 329 Q 263 319 273 319 Z" opacity="0.2"/></g><g transform="translate(-166,2) scale(1,1)"><path fill="#ffffff" stroke="none" d="M 266 312 L 397 312 Q 407 312 407 322 L 407 349 Q 407 359 397 359 L 266 359 Q 256 359 256 349 L 256 322 Q 256 312 266 312 Z"/></g><g transform="translate(-166,2) scale(1,1)"><path fill="none" stroke="#000000" d="M 266 312 L 397 312 Q 407 312 407 322 L 407 349 Q 407 359 397 359 L 266 359 Q 256 359 256 349 L 256 322 Q 256 312 266 312 Z" stroke-miterlimit="10"/></g><g transform="translate(-166,2) scale(1,1)"><path fill="none" stroke="#000000" d="M 256 337 L 407 337" stroke-miterlimit="10"/></g><g transform="translate(-166,2) scale(1,1)"><g><path fill="none" stroke="none"/><text fill="#000000" stroke="none" font-family="Arial" font-size="13px" font-style="normal" font-weight="bold" text-decoration="none" x="276.970458984375" y="330">Deletando pedido</text></g></g><g transform="translate(-166,2) scale(1,1)"><g><path fill="none" stroke="none"/><text fill="#000000" stroke="none" font-family="Arial" font-size="13px" font-style="normal" font-weight="normal" text-decoration="none" x="261" y="353">do/deletaPedido</text></g></g><g transform="translate(-166,2) scale(1,1)"><path fill="none" stroke="#000000" d="M 575 335 L 408 335" stroke-miterlimit="10"/></g><g transform="translate(-166,2) scale(1,1)"><path fill="none" stroke="#000000" d="M 418.16267485762415 330.790482243984 L 408 335 L 418.16267485762415 339.209517756016" stroke-miterlimit="10"/></g><g transform="translate(-166,2) scale(1,1)"><g><path fill="none" stroke="none"/><text fill="#000000" stroke="none" font-family="Arial" font-size="13px" font-style="normal" font-weight="normal" text-decoration="none" x="439.5" y="355">Deletando pedido</text></g></g><g transform="translate(-166,2) scale(1,1)"><path fill="#C0C0C0" stroke="none" d="M 327 539.5 C 327 532.59644 332.59644 527 339.5 527 C 346.40356 527 352 532.59644 352 539.5 C 352 546.40356 346.40356 552 339.5 552 C 332.59644 552 327 546.40356 327 539.5 Z" opacity="0.2"/></g><g transform="translate(-166,2) scale(1,1)"><path fill="none" stroke="#000000" d="M 320 532.5 C 320 525.59644 325.59644 520 332.5 520 C 339.40356 520 345 525.59644 345 532.5 C 345 539.40356 339.40356 545 332.5 545 C 325.59644 545 320 539.40356 320 532.5 Z" stroke-miterlimit="10"/></g><g transform="translate(-166,2) scale(1,1)"><path fill="#000000" stroke="none" d="M 325 532.5 C 325 528.357864 328.357864 525 332.5 525 C 336.642136 525 340 528.357864 340 532.5 C 340 536.642136 336.642136 540 332.5 540 C 328.357864 540 325 536.642136 325 532.5 Z"/></g><g transform="translate(-166,2) scale(1,1)"><path fill="none" stroke="#000000" d="M 331 360 L 332 519" stroke-miterlimit="10"/></g><g transform="translate(-166,2) scale(1,1)"><path fill="none" stroke="#000000" d="M 327.72665056609253 508.86400056157646 L 332 519 L 336.14551957391666 508.811051699892" stroke-miterlimit="10"/></g><g transform="translate(-166,2) scale(1,1)"><g><path fill="none" stroke="none"/><text fill="#000000" stroke="none" font-family="Arial" font-size="13px" font-style="normal" font-weight="normal" text-decoration="none" x="293.5" y="443">Pedido cancelado</text></g></g><g transform="translate(-166,2) scale(1,1)"><path fill="#ffffff" stroke="none" d="M 296 640 L 370.49169921875 640 L 380.49169921875 650 L 380.49169921875 678 L 296 678 L 296 640"/></g><g transform="translate(-166,2) scale(1,1)"><path fill="none" stroke="#000000" d="M 296 640 L 370.49169921875 640 L 380.49169921875 650 L 380.49169921875 678 L 296 678 L 296 640 L 296 640" stroke-miterlimit="10"/></g><g transform="translate(-166,2) scale(1,1)"><path fill="none" stroke="#000000" d="M 370.49169921875 640 L 370.49169921875 650 L 380.49169921875 650 L 370.49169921875 640" stroke-miterlimit="10"/></g><g transform="translate(-166,2) scale(1,1)"><g><path fill="none" stroke="none"/><text fill="#000000" stroke="none" font-family="Arial" font-size="13px" font-style="normal" font-weight="normal" text-decoration="none" x="301" y="655">Pagamento</text><text fill="#000000" stroke="none" font-family="Arial" font-size="13px" font-style="normal" font-weight="normal" text-decoration="none" x="301" y="668">recusado</text></g></g><g transform="translate(-166,2) scale(1,1)"><path fill="none" stroke="#000000" d="M 333 546 L 337 639" stroke-miterlimit="10" stroke-dasharray="3"/></g><g transform="translate(-166,2) scale(1,1)"><path fill="#ffffff" stroke="none" d="M 1000 624 L 1092 624 L 1102 634 L 1102 670 L 1000 670 L 1000 624"/></g><g transform="translate(-166,2) scale(1,1)"><path fill="none" stroke="#000000" d="M 1000 624 L 1092 624 L 1102 634 L 1102 670 L 1000 670 L 1000 624 L 1000 624" stroke-miterlimit="10"/></g><g transform="translate(-166,2) scale(1,1)"><path fill="none" stroke="#000000" d="M 1092 624 L 1092 634 L 1102 634 L 1092 624" stroke-miterlimit="10"/></g><g transform="translate(-166,2) scale(1,1)"><g><path fill="none" stroke="none"/><text fill="#000000" stroke="none" font-family="Arial" font-size="13px" font-style="normal" font-weight="normal" text-decoration="none" x="1005" y="639">Continuação do</text><text fill="#000000" stroke="none" font-family="Arial" font-size="13px" font-style="normal" font-weight="normal" text-decoration="none" x="1005" y="652">pedido</text></g></g><g transform="translate(-166,2) scale(1,1)"><path fill="none" stroke="#000000" d="M 1052 546 L 1051 623" stroke-miterlimit="10" stroke-dasharray="3"/></g></g></svg>