<svg version="1.1" xmlns="http://www.w3.org/2000/svg" xmlns:xlink="http://www.w3.org/1999/xlink" width="803" height="107"><defs/><g><text fill="#eeeeee" stroke="none" font-family="Arial" font-size="24px" font-style="normal" font-weight="normal" text-decoration="none" x="0" y="0">UNREGISTERED</text><text fill="#eeeeee" stroke="none" font-family="Arial" font-size="24px" font-style="normal" font-weight="normal" text-decoration="none" x="0" y="30">UNREGISTERED</text><text fill="#eeeeee" stroke="none" font-family="Arial" font-size="24px" font-style="normal" font-weight="normal" text-decoration="none" x="0" y="60">UNREGISTERED</text><text fill="#eeeeee" stroke="none" font-family="Arial" font-size="24px" font-style="normal" font-weight="normal" text-decoration="none" x="0" y="90">UNREGISTERED</text><text fill="#eeeeee" stroke="none" font-family="Arial" font-size="24px" font-style="normal" font-weight="normal" text-decoration="none" x="200" y="0">UNREGISTERED</text><text fill="#eeeeee" stroke="none" font-family="Arial" font-size="24px" font-style="normal" font-weight="normal" text-decoration="none" x="200" y="30">UNREGISTERED</text><text fill="#eeeeee" stroke="none" font-family="Arial" font-size="24px" font-style="normal" font-weight="normal" text-decoration="none" x="200" y="60">UNREGISTERED</text><text fill="#eeeeee" stroke="none" font-family="Arial" font-size="24px" font-style="normal" font-weight="normal" text-decoration="none" x="200" y="90">UNREGISTERED</text><text fill="#eeeeee" stroke="none" font-family="Arial" font-size="24px" font-style="normal" font-weight="normal" text-decoration="none" x="400" y="0">UNREGISTERED</text><text fill="#eeeeee" stroke="none" font-family="Arial" font-size="24px" font-style="normal" font-weight="normal" text-decoration="none" x="400" y="30">UNREGISTERED</text><text fill="#eeeeee" stroke="none" font-family="Arial" font-size="24px" font-style="normal" font-weight="normal" text-decoration="none" x="400" y="60">UNREGISTERED</text><text fill="#eeeeee" stroke="none" font-family="Arial" font-size="24px" font-style="normal" font-weight="normal" text-decoration="none" x="400" y="90">UNREGISTERED</text><text fill="#eeeeee" stroke="none" font-family="Arial" font-size="24px" font-style="normal" font-weight="normal" text-decoration="none" x="600" y="0">UNREGISTERED</text><text fill="#eeeeee" stroke="none" font-family="Arial" font-size="24px" font-style="normal" font-weight="normal" text-decoration="none" x="600" y="30">UNREGISTERED</text><text fill="#eeeeee" stroke="none" font-family="Arial" font-size="24px" font-style="normal" font-weight="normal" text-decoration="none" x="600" y="60">UNREGISTERED</text><text fill="#eeeeee" stroke="none" font-family="Arial" font-size="24px" font-style="normal" font-weight="normal" text-decoration="none" x="600" y="90">UNREGISTERED</text><text fill="#eeeeee" stroke="none" font-family="Arial" font-size="24px" font-style="normal" font-weight="normal" text-decoration="none" x="800" y="0">UNREGISTERED</text><text fill="#eeeeee" stroke="none" font-family="Arial" font-size="24px" font-style="normal" font-weight="normal" text-decoration="none" x="800" y="30">UNREGISTERED</text><text fill="#eeeeee" stroke="none" font-family="Arial" font-size="24px" font-style="normal" font-weight="normal" text-decoration="none" x="800" y="60">UNREGISTERED</text><text fill="#eeeeee" stroke="none" font-family="Arial" font-size="24px" font-style="normal" font-weight="normal" text-decoration="none" x="800" y="90">UNREGISTERED</text><g transform="translate(-270,-358) scale(1,1)"><path fill="#C0C0C0" stroke="none" d="M 287 393 L 435 393 L 435 461 L 287 461" opacity="0.2"/></g><g transform="translate(-270,-358) scale(1,1)"><path fill="#C0C0C0" stroke="none" d="M 287 393 L 297 383 L 445 383 L 435 393" opacity="0.2"/></g><g transform="translate(-270,-358) scale(1,1)"><path fill="#C0C0C0" stroke="none" d="M 445 383 L 435 393 L 435 461 L 445 451" opacity="0.2"/></g><g transform="translate(-270,-358) scale(1,1)"><path fill="#ffffff" stroke="none" d="M 280 386 L 428 386 L 428 454 L 280 454"/></g><g transform="translate(-270,-358) scale(1,1)"><path fill="#ffffff" stroke="none" d="M 280 386 L 290 376 L 438 376 L 428 386"/></g><g transform="translate(-270,-358) scale(1,1)"><path fill="#ffffff" stroke="none" d="M 438 376 L 428 386 L 428 454 L 438 444"/></g><g transform="translate(-270,-358) scale(1,1)"><path fill="none" stroke="#000000" d="M 280 386 L 428 386 L 428 454 L 280 454 L 280 386" stroke-miterlimit="10"/></g><g transform="translate(-270,-358) scale(1,1)"><path fill="none" stroke="#000000" d="M 280 386 L 290 376 L 438 376 L 428 386 L 280 386" stroke-miterlimit="10"/></g><g transform="translate(-270,-358) scale(1,1)"><path fill="none" stroke="#000000" d="M 438 376 L 428 386 L 428 454 L 438 444 L 438 376" stroke-miterlimit="10"/></g><g transform="translate(-270,-358) scale(1,1)"><g><path fill="none" stroke="none"/><text fill="#000000" stroke="none" font-family="Arial" font-size="13px" font-style="normal" font-weight="normal" text-decoration="none" x="328.48095703125" y="402">«device»</text></g></g><g transform="translate(-270,-358) scale(1,1)"><g><path fill="none" stroke="none"/><text fill="#000000" stroke="none" font-family="Arial" font-size="13px" font-style="normal" font-weight="bold" text-decoration="none" x="305.740478515625" y="417">Servidor Mobile</text></g></g><g transform="translate(-270,-358) scale(1,1)"><path fill="#C0C0C0" stroke="none" d="M 823 385 L 1059 385 L 1059 461 L 823 461" opacity="0.2"/></g><g transform="translate(-270,-358) scale(1,1)"><path fill="#C0C0C0" stroke="none" d="M 823 385 L 833 375 L 1069 375 L 1059 385" opacity="0.2"/></g><g transform="translate(-270,-358) scale(1,1)"><path fill="#C0C0C0" stroke="none" d="M 1069 375 L 1059 385 L 1059 461 L 1069 451" opacity="0.2"/></g><g transform="translate(-270,-358) scale(1,1)"><path fill="#ffffff" stroke="none" d="M 816 378 L 1052 378 L 1052 454 L 816 454"/></g><g transform="translate(-270,-358) scale(1,1)"><path fill="#ffffff" stroke="none" d="M 816 378 L 826 368 L 1062 368 L 1052 378"/></g><g transform="translate(-270,-358) scale(1,1)"><path fill="#ffffff" stroke="none" d="M 1062 368 L 1052 378 L 1052 454 L 1062 444"/></g><g transform="translate(-270,-358) scale(1,1)"><path fill="none" stroke="#000000" d="M 816 378 L 1052 378 L 1052 454 L 816 454 L 816 378" stroke-miterlimit="10"/></g><g transform="translate(-270,-358) scale(1,1)"><path fill="none" stroke="#000000" d="M 816 378 L 826 368 L 1062 368 L 1052 378 L 816 378" stroke-miterlimit="10"/></g><g transform="translate(-270,-358) scale(1,1)"><path fill="none" stroke="#000000" d="M 1062 368 L 1052 378 L 1052 454 L 1062 444 L 1062 368" stroke-miterlimit="10"/></g><g transform="translate(-270,-358) scale(1,1)"><g><path fill="none" stroke="none"/><text fill="#000000" stroke="none" font-family="Arial" font-size="13px" font-style="normal" font-weight="normal" text-decoration="none" x="908.48095703125" y="394">«device»</text></g></g><g transform="translate(-270,-358) scale(1,1)"><g><path fill="none" stroke="none"/><text fill="#000000" stroke="none" font-family="Arial" font-size="13px" font-style="normal" font-weight="bold" text-decoration="none" x="846.004150390625" y="409">Servidor de Banco de Dados</text></g></g><g transform="translate(-270,-358) scale(1,1)"><path fill="#C0C0C0" stroke="none" d="M 535 393 L 707 393 L 707 461 L 535 461" opacity="0.2"/></g><g transform="translate(-270,-358) scale(1,1)"><path fill="#C0C0C0" stroke="none" d="M 535 393 L 545 383 L 717 383 L 707 393" opacity="0.2"/></g><g transform="translate(-270,-358) scale(1,1)"><path fill="#C0C0C0" stroke="none" d="M 717 383 L 707 393 L 707 461 L 717 451" opacity="0.2"/></g><g transform="translate(-270,-358) scale(1,1)"><path fill="#ffffff" stroke="none" d="M 528 386 L 700 386 L 700 454 L 528 454"/></g><g transform="translate(-270,-358) scale(1,1)"><path fill="#ffffff" stroke="none" d="M 528 386 L 538 376 L 710 376 L 700 386"/></g><g transform="translate(-270,-358) scale(1,1)"><path fill="#ffffff" stroke="none" d="M 710 376 L 700 386 L 700 454 L 710 444"/></g><g transform="translate(-270,-358) scale(1,1)"><path fill="none" stroke="#000000" d="M 528 386 L 700 386 L 700 454 L 528 454 L 528 386" stroke-miterlimit="10"/></g><g transform="translate(-270,-358) scale(1,1)"><path fill="none" stroke="#000000" d="M 528 386 L 538 376 L 710 376 L 700 386 L 528 386" stroke-miterlimit="10"/></g><g transform="translate(-270,-358) scale(1,1)"><path fill="none" stroke="#000000" d="M 710 376 L 700 386 L 700 454 L 710 444 L 710 376" stroke-miterlimit="10"/></g><g transform="translate(-270,-358) scale(1,1)"><g><path fill="none" stroke="none"/><text fill="#000000" stroke="none" font-family="Arial" font-size="13px" font-style="normal" font-weight="normal" text-decoration="none" x="588.48095703125" y="402">«device»</text></g></g><g transform="translate(-270,-358) scale(1,1)"><g><path fill="none" stroke="none"/><text fill="#000000" stroke="none" font-family="Arial" font-size="13px" font-style="normal" font-weight="bold" text-decoration="none" x="546.224609375" y="417">Servidor de Aplicação</text></g></g><g transform="translate(-270,-358) scale(1,1)"><path fill="none" stroke="#000000" d="M 440 415 L 527 415" stroke-miterlimit="10"/></g><g transform="translate(-270,-358) scale(1,1)"><path fill="none" stroke="#000000" d="M 712 414 L 815 413" stroke-miterlimit="10"/></g></g></svg>