<svg version="1.1" xmlns="http://www.w3.org/2000/svg" xmlns:xlink="http://www.w3.org/1999/xlink" width="858.8125" height="531"><defs/><g><text fill="#eeeeee" stroke="none" font-family="Arial" font-size="24px" font-style="normal" font-weight="normal" text-decoration="none" x="0" y="0">UNREGISTERED</text><text fill="#eeeeee" stroke="none" font-family="Arial" font-size="24px" font-style="normal" font-weight="normal" text-decoration="none" x="0" y="30">UNREGISTERED</text><text fill="#eeeeee" stroke="none" font-family="Arial" font-size="24px" font-style="normal" font-weight="normal" text-decoration="none" x="0" y="60">UNREGISTERED</text><text fill="#eeeeee" stroke="none" font-family="Arial" font-size="24px" font-style="normal" font-weight="normal" text-decoration="none" x="0" y="90">UNREGISTERED</text><text fill="#eeeeee" stroke="none" font-family="Arial" font-size="24px" font-style="normal" font-weight="normal" text-decoration="none" x="0" y="120">UNREGISTERED</text><text fill="#eeeeee" stroke="none" font-family="Arial" font-size="24px" font-style="normal" font-weight="normal" text-decoration="none" x="0" y="150">UNREGISTERED</text><text fill="#eeeeee" stroke="none" font-family="Arial" font-size="24px" font-style="normal" font-weight="normal" text-decoration="none" x="0" y="180">UNREGISTERED</text><text fill="#eeeeee" stroke="none" font-family="Arial" font-size="24px" font-style="normal" font-weight="normal" text-decoration="none" x="0" y="210">UNREGISTERED</text><text fill="#eeeeee" stroke="none" font-family="Arial" font-size="24px" font-style="normal" font-weight="normal" text-decoration="none" x="0" y="240">UNREGISTERED</text><text fill="#eeeeee" stroke="none" font-family="Arial" font-size="24px" font-style="normal" font-weight="normal" text-decoration="none" x="0" y="270">UNREGISTERED</text><text fill="#eeeeee" stroke="none" font-family="Arial" font-size="24px" font-style="normal" font-weight="normal" text-decoration="none" x="0" y="300">UNREGISTERED</text><text fill="#eeeeee" stroke="none" font-family="Arial" font-size="24px" font-style="normal" font-weight="normal" text-decoration="none" x="0" y="330">UNREGISTERED</text><text fill="#eeeeee" stroke="none" font-family="Arial" font-size="24px" font-style="normal" font-weight="normal" text-decoration="none" x="0" y="360">UNREGISTERED</text><text fill="#eeeeee" stroke="none" font-family="Arial" font-size="24px" font-style="normal" font-weight="normal" text-decoration="none" x="0" y="390">UNREGISTERED</text><text fill="#eeeeee" stroke="none" font-family="Arial" font-size="24px" font-style="normal" font-weight="normal" text-decoration="none" x="0" y="420">UNREGISTERED</text><text fill="#eeeeee" stroke="none" font-family="Arial" font-size="24px" font-style="normal" font-weight="normal" text-decoration="none" x="0" y="450">UNREGISTERED</text><text fill="#eeeeee" stroke="none" font-family="Arial" font-size="24px" font-style="normal" font-weight="normal" text-decoration="none" x="0" y="480">UNREGISTERED</text><text fill="#eeeeee" stroke="none" font-family="Arial" font-size="24px" font-style="normal" font-weight="normal" text-decoration="none" x="0" y="510">UNREGISTERED</text><text fill="#eeeeee" stroke="none" font-family="Arial" font-size="24px" font-style="normal" font-weight="normal" text-decoration="none" x="200" y="0">UNREGISTERED</text><text fill="#eeeeee" stroke="none" font-family="Arial" font-size="24px" font-style="normal" font-weight="normal" text-decoration="none" x="200" y="30">UNREGISTERED</text><text fill="#eeeeee" stroke="none" font-family="Arial" font-size="24px" font-style="normal" font-weight="normal" text-decoration="none" x="200" y="60">UNREGISTERED</text><text fill="#eeeeee" stroke="none" font-family="Arial" font-size="24px" font-style="normal" font-weight="normal" text-decoration="none" x="200" y="90">UNREGISTERED</text><text fill="#eeeeee" stroke="none" font-family="Arial" font-size="24px" font-style="normal" font-weight="normal" text-decoration="none" x="200" y="120">UNREGISTERED</text><text fill="#eeeeee" stroke="none" font-family="Arial" font-size="24px" font-style="normal" font-weight="normal" text-decoration="none" x="200" y="150">UNREGISTERED</text><text fill="#eeeeee" stroke="none" font-family="Arial" font-size="24px" font-style="normal" font-weight="normal" text-decoration="none" x="200" y="180">UNREGISTERED</text><text fill="#eeeeee" stroke="none" font-family="Arial" font-size="24px" font-style="normal" font-weight="normal" text-decoration="none" x="200" y="210">UNREGISTERED</text><text fill="#eeeeee" stroke="none" font-family="Arial" font-size="24px" font-style="normal" font-weight="normal" text-decoration="none" x="200" y="240">UNREGISTERED</text><text fill="#eeeeee" stroke="none" font-family="Arial" font-size="24px" font-style="normal" font-weight="normal" text-decoration="none" x="200" y="270">UNREGISTERED</text><text fill="#eeeeee" stroke="none" font-family="Arial" font-size="24px" font-style="normal" font-weight="normal" text-decoration="none" x="200" y="300">UNREGISTERED</text><text fill="#eeeeee" stroke="none" font-family="Arial" font-size="24px" font-style="normal" font-weight="normal" text-decoration="none" x="200" y="330">UNREGISTERED</text><text fill="#eeeeee" stroke="none" font-family="Arial" font-size="24px" font-style="normal" font-weight="normal" text-decoration="none" x="200" y="360">UNREGISTERED</text><text fill="#eeeeee" stroke="none" font-family="Arial" font-size="24px" font-style="normal" font-weight="normal" text-decoration="none" x="200" y="390">UNREGISTERED</text><text fill="#eeeeee" stroke="none" font-family="Arial" font-size="24px" font-style="normal" font-weight="normal" text-decoration="none" x="200" y="420">UNREGISTERED</text><text fill="#eeeeee" stroke="none" font-family="Arial" font-size="24px" font-style="normal" font-weight="normal" text-decoration="none" x="200" y="450">UNREGISTERED</text><text fill="#eeeeee" stroke="none" font-family="Arial" font-size="24px" font-style="normal" font-weight="normal" text-decoration="none" x="200" y="480">UNREGISTERED</text><text fill="#eeeeee" stroke="none" font-family="Arial" font-size="24px" font-style="normal" font-weight="normal" text-decoration="none" x="200" y="510">UNREGISTERED</text><text fill="#eeeeee" stroke="none" font-family="Arial" font-size="24px" font-style="normal" font-weight="normal" text-decoration="none" x="400" y="0">UNREGISTERED</text><text fill="#eeeeee" stroke="none" font-family="Arial" font-size="24px" font-style="normal" font-weight="normal" text-decoration="none" x="400" y="30">UNREGISTERED</text><text fill="#eeeeee" stroke="none" font-family="Arial" font-size="24px" font-style="normal" font-weight="normal" text-decoration="none" x="400" y="60">UNREGISTERED</text><text fill="#eeeeee" stroke="none" font-family="Arial" font-size="24px" font-style="normal" font-weight="normal" text-decoration="none" x="400" y="90">UNREGISTERED</text><text fill="#eeeeee" stroke="none" font-family="Arial" font-size="24px" font-style="normal" font-weight="normal" text-decoration="none" x="400" y="120">UNREGISTERED</text><text fill="#eeeeee" stroke="none" font-family="Arial" font-size="24px" font-style="normal" font-weight="normal" text-decoration="none" x="400" y="150">UNREGISTERED</text><text fill="#eeeeee" stroke="none" font-family="Arial" font-size="24px" font-style="normal" font-weight="normal" text-decoration="none" x="400" y="180">UNREGISTERED</text><text fill="#eeeeee" stroke="none" font-family="Arial" font-size="24px" font-style="normal" font-weight="normal" text-decoration="none" x="400" y="210">UNREGISTERED</text><text fill="#eeeeee" stroke="none" font-family="Arial" font-size="24px" font-style="normal" font-weight="normal" text-decoration="none" x="400" y="240">UNREGISTERED</text><text fill="#eeeeee" stroke="none" font-family="Arial" font-size="24px" font-style="normal" font-weight="normal" text-decoration="none" x="400" y="270">UNREGISTERED</text><text fill="#eeeeee" stroke="none" font-family="Arial" font-size="24px" font-style="normal" font-weight="normal" text-decoration="none" x="400" y="300">UNREGISTERED</text><text fill="#eeeeee" stroke="none" font-family="Arial" font-size="24px" font-style="normal" font-weight="normal" text-decoration="none" x="400" y="330">UNREGISTERED</text><text fill="#eeeeee" stroke="none" font-family="Arial" font-size="24px" font-style="normal" font-weight="normal" text-decoration="none" x="400" y="360">UNREGISTERED</text><text fill="#eeeeee" stroke="none" font-family="Arial" font-size="24px" font-style="normal" font-weight="normal" text-decoration="none" x="400" y="390">UNREGISTERED</text><text fill="#eeeeee" stroke="none" font-family="Arial" font-size="24px" font-style="normal" font-weight="normal" text-decoration="none" x="400" y="420">UNREGISTERED</text><text fill="#eeeeee" stroke="none" font-family="Arial" font-size="24px" font-style="normal" font-weight="normal" text-decoration="none" x="400" y="450">UNREGISTERED</text><text fill="#eeeeee" stroke="none" font-family="Arial" font-size="24px" font-style="normal" font-weight="normal" text-decoration="none" x="400" y="480">UNREGISTERED</text><text fill="#eeeeee" stroke="none" font-family="Arial" font-size="24px" font-style="normal" font-weight="normal" text-decoration="none" x="400" y="510">UNREGISTERED</text><text fill="#eeeeee" stroke="none" font-family="Arial" font-size="24px" font-style="normal" font-weight="normal" text-decoration="none" x="600" y="0">UNREGISTERED</text><text fill="#eeeeee" stroke="none" font-family="Arial" font-size="24px" font-style="normal" font-weight="normal" text-decoration="none" x="600" y="30">UNREGISTERED</text><text fill="#eeeeee" stroke="none" font-family="Arial" font-size="24px" font-style="normal" font-weight="normal" text-decoration="none" x="600" y="60">UNREGISTERED</text><text fill="#eeeeee" stroke="none" font-family="Arial" font-size="24px" font-style="normal" font-weight="normal" text-decoration="none" x="600" y="90">UNREGISTERED</text><text fill="#eeeeee" stroke="none" font-family="Arial" font-size="24px" font-style="normal" font-weight="normal" text-decoration="none" x="600" y="120">UNREGISTERED</text><text fill="#eeeeee" stroke="none" font-family="Arial" font-size="24px" font-style="normal" font-weight="normal" text-decoration="none" x="600" y="150">UNREGISTERED</text><text fill="#eeeeee" stroke="none" font-family="Arial" font-size="24px" font-style="normal" font-weight="normal" text-decoration="none" x="600" y="180">UNREGISTERED</text><text fill="#eeeeee" stroke="none" font-family="Arial" font-size="24px" font-style="normal" font-weight="normal" text-decoration="none" x="600" y="210">UNREGISTERED</text><text fill="#eeeeee" stroke="none" font-family="Arial" font-size="24px" font-style="normal" font-weight="normal" text-decoration="none" x="600" y="240">UNREGISTERED</text><text fill="#eeeeee" stroke="none" font-family="Arial" font-size="24px" font-style="normal" font-weight="normal" text-decoration="none" x="600" y="270">UNREGISTERED</text><text fill="#eeeeee" stroke="none" font-family="Arial" font-size="24px" font-style="normal" font-weight="normal" text-decoration="none" x="600" y="300">UNREGISTERED</text><text fill="#eeeeee" stroke="none" font-family="Arial" font-size="24px" font-style="normal" font-weight="normal" text-decoration="none" x="600" y="330">UNREGISTERED</text><text fill="#eeeeee" stroke="none" font-family="Arial" font-size="24px" font-style="normal" font-weight="normal" text-decoration="none" x="600" y="360">UNREGISTERED</text><text fill="#eeeeee" stroke="none" font-family="Arial" font-size="24px" font-style="normal" font-weight="normal" text-decoration="none" x="600" y="390">UNREGISTERED</text><text fill="#eeeeee" stroke="none" font-family="Arial" font-size="24px" font-style="normal" font-weight="normal" text-decoration="none" x="600" y="420">UNREGISTERED</text><text fill="#eeeeee" stroke="none" font-family="Arial" font-size="24px" font-style="normal" font-weight="normal" text-decoration="none" x="600" y="450">UNREGISTERED</text><text fill="#eeeeee" stroke="none" font-family="Arial" font-size="24px" font-style="normal" font-weight="normal" text-decoration="none" x="600" y="480">UNREGISTERED</text><text fill="#eeeeee" stroke="none" font-family="Arial" font-size="24px" font-style="normal" font-weight="normal" text-decoration="none" x="600" y="510">UNREGISTERED</text><text fill="#eeeeee" stroke="none" font-family="Arial" font-size="24px" font-style="normal" font-weight="normal" text-decoration="none" x="800" y="0">UNREGISTERED</text><text fill="#eeeeee" stroke="none" font-family="Arial" font-size="24px" font-style="normal" font-weight="normal" text-decoration="none" x="800" y="30">UNREGISTERED</text><text fill="#eeeeee" stroke="none" font-family="Arial" font-size="24px" font-style="normal" font-weight="normal" text-decoration="none" x="800" y="60">UNREGISTERED</text><text fill="#eeeeee" stroke="none" font-family="Arial" font-size="24px" font-style="normal" font-weight="normal" text-decoration="none" x="800" y="90">UNREGISTERED</text><text fill="#eeeeee" stroke="none" font-family="Arial" font-size="24px" font-style="normal" font-weight="normal" text-decoration="none" x="800" y="120">UNREGISTERED</text><text fill="#eeeeee" stroke="none" font-family="Arial" font-size="24px" font-style="normal" font-weight="normal" text-decoration="none" x="800" y="150">UNREGISTERED</text><text fill="#eeeeee" stroke="none" font-family="Arial" font-size="24px" font-style="normal" font-weight="normal" text-decoration="none" x="800" y="180">UNREGISTERED</text><text fill="#eeeeee" stroke="none" font-family="Arial" font-size="24px" font-style="normal" font-weight="normal" text-decoration="none" x="800" y="210">UNREGISTERED</text><text fill="#eeeeee" stroke="none" font-family="Arial" font-size="24px" font-style="normal" font-weight="normal" text-decoration="none" x="800" y="240">UNREGISTERED</text><text fill="#eeeeee" stroke="none" font-family="Arial" font-size="24px" font-style="normal" font-weight="normal" text-decoration="none" x="800" y="270">UNREGISTERED</text><text fill="#eeeeee" stroke="none" font-family="Arial" font-size="24px" font-style="normal" font-weight="normal" text-decoration="none" x="800" y="300">UNREGISTERED</text><text fill="#eeeeee" stroke="none" font-family="Arial" font-size="24px" font-style="normal" font-weight="normal" text-decoration="none" x="800" y="330">UNREGISTERED</text><text fill="#eeeeee" stroke="none" font-family="Arial" font-size="24px" font-style="normal" font-weight="normal" text-decoration="none" x="800" y="360">UNREGISTERED</text><text fill="#eeeeee" stroke="none" font-family="Arial" font-size="24px" font-style="normal" font-weight="normal" text-decoration="none" x="800" y="390">UNREGISTERED</text><text fill="#eeeeee" stroke="none" font-family="Arial" font-size="24px" font-style="normal" font-weight="normal" text-decoration="none" x="800" y="420">UNREGISTERED</text><text fill="#eeeeee" stroke="none" font-family="Arial" font-size="24px" font-style="normal" font-weight="normal" text-decoration="none" x="800" y="450">UNREGISTERED</text><text fill="#eeeeee" stroke="none" font-family="Arial" font-size="24px" font-style="normal" font-weight="normal" text-decoration="none" x="800" y="480">UNREGISTERED</text><text fill="#eeeeee" stroke="none" font-family="Arial" font-size="24px" font-style="normal" font-weight="normal" text-decoration="none" x="800" y="510">UNREGISTERED</text><g transform="translate(-110,-86) scale(1,1)"><path fill="#C0C0C0" stroke="none" d="M 127 136.5 C 127 131.2532944 131.2532944 127 136.5 127 C 141.7467056 127 146 131.2532944 146 136.5 C 146 141.7467056 141.7467056 146 136.5 146 C 131.2532944 146 127 141.7467056 127 136.5 Z" opacity="0.2"/></g><g transform="translate(-110,-86) scale(1,1)"><path fill="#000000" stroke="none" d="M 120 129.5 C 120 124.2532944 124.2532944 120 129.5 120 C 134.7467056 120 139 124.2532944 139 129.5 C 139 134.7467056 134.7467056 139 129.5 139 C 124.2532944 139 120 134.7467056 120 129.5 Z"/></g><g transform="translate(-110,-86) scale(1,1)"><path fill="#C0C0C0" stroke="none" d="M 249 103 L 380 103 Q 390 103 390 113 L 390 156 Q 390 166 380 166 L 249 166 Q 239 166 239 156 L 239 113 Q 239 103 249 103 Z" opacity="0.2"/></g><g transform="translate(-110,-86) scale(1,1)"><path fill="#ffffff" stroke="none" d="M 242 96 L 373 96 Q 383 96 383 106 L 383 149 Q 383 159 373 159 L 242 159 Q 232 159 232 149 L 232 106 Q 232 96 242 96 Z"/></g><g transform="translate(-110,-86) scale(1,1)"><path fill="none" stroke="#000000" d="M 242 96 L 373 96 Q 383 96 383 106 L 383 149 Q 383 159 373 159 L 242 159 Q 232 159 232 149 L 232 106 Q 232 96 242 96 Z" stroke-miterlimit="10"/></g><g transform="translate(-110,-86) scale(1,1)"><path fill="none" stroke="#000000" d="M 232 121 L 383 121" stroke-miterlimit="10"/></g><g transform="translate(-110,-86) scale(1,1)"><g><path fill="none" stroke="none"/><text fill="#000000" stroke="none" font-family="Arial" font-size="13px" font-style="normal" font-weight="bold" text-decoration="none" x="251.50732421875" y="114">Buscando serviço</text></g></g><g transform="translate(-110,-86) scale(1,1)"><g><path fill="none" stroke="none"/><text fill="#000000" stroke="none" font-family="Arial" font-size="13px" font-style="normal" font-weight="normal" text-decoration="none" x="237" y="137">do/buscaServiço</text></g></g><g transform="translate(-110,-86) scale(1,1)"><path fill="none" stroke="#000000" d="M 140 129 L 231 128" stroke-miterlimit="10"/></g><g transform="translate(-110,-86) scale(1,1)"><path fill="none" stroke="#000000" d="M 220.88419434488017 132.32093461508566 L 231 128 L 220.7916830567088 123.90240739149029" stroke-miterlimit="10"/></g><g transform="translate(-110,-86) scale(1,1)"><path fill="#C0C0C0" stroke="none" d="M 607 136.5 L 618.5 127 L 629 136.5 L 618.5 145 L 607 136.5" opacity="0.2"/></g><g transform="translate(-110,-86) scale(1,1)"><path fill="#ffffff" stroke="none" d="M 600 129 L 611 120 L 622 129 L 611 138 L 600 129"/></g><g transform="translate(-110,-86) scale(1,1)"><path fill="none" stroke="#000000" d="M 600 129 L 611 120 L 622 129 L 611 138 L 600 129 L 600 129" stroke-miterlimit="10"/></g><g transform="translate(-110,-86) scale(1,1)"><path fill="none" stroke="#000000" d="M 384 128 L 599 129" stroke-miterlimit="10"/></g><g transform="translate(-110,-86) scale(1,1)"><path fill="none" stroke="#000000" d="M 588.8178561261911 133.1622044799668 L 599 129 L 588.8570140073431 124.74326003228221" stroke-miterlimit="10"/></g><g transform="translate(-110,-86) scale(1,1)"><g><path fill="none" stroke="none"/><text fill="#000000" stroke="none" font-family="Arial" font-size="13px" font-style="normal" font-weight="normal" text-decoration="none" x="397.5" y="115">Verifica se tem ou não o serviço</text></g></g><g transform="translate(-110,-86) scale(1,1)"><path fill="#C0C0C0" stroke="none" d="M 825 103 L 948 103 Q 958 103 958 113 L 958 156 Q 958 166 948 166 L 825 166 Q 815 166 815 156 L 815 113 Q 815 103 825 103 Z" opacity="0.2"/></g><g transform="translate(-110,-86) scale(1,1)"><path fill="#ffffff" stroke="none" d="M 818 96 L 941 96 Q 951 96 951 106 L 951 149 Q 951 159 941 159 L 818 159 Q 808 159 808 149 L 808 106 Q 808 96 818 96 Z"/></g><g transform="translate(-110,-86) scale(1,1)"><path fill="none" stroke="#000000" d="M 818 96 L 941 96 Q 951 96 951 106 L 951 149 Q 951 159 941 159 L 818 159 Q 808 159 808 149 L 808 106 Q 808 96 818 96 Z" stroke-miterlimit="10"/></g><g transform="translate(-110,-86) scale(1,1)"><path fill="none" stroke="#000000" d="M 808 121 L 951 121" stroke-miterlimit="10"/></g><g transform="translate(-110,-86) scale(1,1)"><g><path fill="none" stroke="none"/><text fill="#000000" stroke="none" font-family="Arial" font-size="13px" font-style="normal" font-weight="bold" text-decoration="none" x="840.141357421875" y="114">Adicionando</text></g></g><g transform="translate(-110,-86) scale(1,1)"><g><path fill="none" stroke="none"/><text fill="#000000" stroke="none" font-family="Arial" font-size="13px" font-style="normal" font-weight="normal" text-decoration="none" x="813" y="137">do/adicionaServico</text></g></g><g transform="translate(-110,-86) scale(1,1)"><path fill="none" stroke="#000000" d="M 623 129 L 807 128" stroke-miterlimit="10"/></g><g transform="translate(-110,-86) scale(1,1)"><path fill="none" stroke="#000000" d="M 796.860352701843 132.2646867023238 L 807 128 L 796.8145977497841 123.84577552348259" stroke-miterlimit="10"/></g><g transform="translate(-110,-86) scale(1,1)"><g><path fill="none" stroke="none"/><text fill="#000000" stroke="none" font-family="Arial" font-size="13px" font-style="normal" font-weight="normal" text-decoration="none" x="667.5" y="118">Possui o serviço</text></g></g><g transform="translate(-110,-86) scale(1,1)"><path fill="#C0C0C0" stroke="none" d="M 553 231 L 684 231 Q 694 231 694 241 L 694 284 Q 694 294 684 294 L 553 294 Q 543 294 543 284 L 543 241 Q 543 231 553 231 Z" opacity="0.2"/></g><g transform="translate(-110,-86) scale(1,1)"><path fill="#ffffff" stroke="none" d="M 546 224 L 677 224 Q 687 224 687 234 L 687 277 Q 687 287 677 287 L 546 287 Q 536 287 536 277 L 536 234 Q 536 224 546 224 Z"/></g><g transform="translate(-110,-86) scale(1,1)"><path fill="none" stroke="#000000" d="M 546 224 L 677 224 Q 687 224 687 234 L 687 277 Q 687 287 677 287 L 546 287 Q 536 287 536 277 L 536 234 Q 536 224 546 224 Z" stroke-miterlimit="10"/></g><g transform="translate(-110,-86) scale(1,1)"><path fill="none" stroke="#000000" d="M 536 249 L 687 249" stroke-miterlimit="10"/></g><g transform="translate(-110,-86) scale(1,1)"><g><path fill="none" stroke="none"/><text fill="#000000" stroke="none" font-family="Arial" font-size="13px" font-style="normal" font-weight="bold" text-decoration="none" x="586.944091796875" y="242">Criando</text></g></g><g transform="translate(-110,-86) scale(1,1)"><g><path fill="none" stroke="none"/><text fill="#000000" stroke="none" font-family="Arial" font-size="13px" font-style="normal" font-weight="normal" text-decoration="none" x="541" y="265">do/criaServico</text></g></g><g transform="translate(-110,-86) scale(1,1)"><path fill="none" stroke="#000000" d="M 611 139 L 611 223" stroke-miterlimit="10"/></g><g transform="translate(-110,-86) scale(1,1)"><path fill="none" stroke="#000000" d="M 606.790482243984 212.83732514237585 L 611 223 L 615.209517756016 212.83732514237585" stroke-miterlimit="10"/></g><g transform="translate(-110,-86) scale(1,1)"><g><path fill="none" stroke="none"/><text fill="#000000" stroke="none" font-family="Arial" font-size="13px" font-style="normal" font-weight="normal" text-decoration="none" x="564.5" y="185">Não possui o serviço</text></g></g><g transform="translate(-110,-86) scale(1,1)"><path fill="#C0C0C0" stroke="none" d="M 825 231 L 948 231 Q 958 231 958 241 L 958 284 Q 958 294 948 294 L 825 294 Q 815 294 815 284 L 815 241 Q 815 231 825 231 Z" opacity="0.2"/></g><g transform="translate(-110,-86) scale(1,1)"><path fill="#ffffff" stroke="none" d="M 818 224 L 941 224 Q 951 224 951 234 L 951 277 Q 951 287 941 287 L 818 287 Q 808 287 808 277 L 808 234 Q 808 224 818 224 Z"/></g><g transform="translate(-110,-86) scale(1,1)"><path fill="none" stroke="#000000" d="M 818 224 L 941 224 Q 951 224 951 234 L 951 277 Q 951 287 941 287 L 818 287 Q 808 287 808 277 L 808 234 Q 808 224 818 224 Z" stroke-miterlimit="10"/></g><g transform="translate(-110,-86) scale(1,1)"><path fill="none" stroke="#000000" d="M 808 249 L 951 249" stroke-miterlimit="10"/></g><g transform="translate(-110,-86) scale(1,1)"><g><path fill="none" stroke="none"/><text fill="#000000" stroke="none" font-family="Arial" font-size="13px" font-style="normal" font-weight="bold" text-decoration="none" x="850.970458984375" y="242">Confirma</text></g></g><g transform="translate(-110,-86) scale(1,1)"><g><path fill="none" stroke="none"/><text fill="#000000" stroke="none" font-family="Arial" font-size="13px" font-style="normal" font-weight="normal" text-decoration="none" x="813" y="265">do/confirmaServico</text></g></g><g transform="translate(-110,-86) scale(1,1)"><path fill="none" stroke="#000000" d="M 688 255 L 807 255" stroke-miterlimit="10"/></g><g transform="translate(-110,-86) scale(1,1)"><path fill="none" stroke="#000000" d="M 796.8373251423759 259.209517756016 L 807 255 L 796.8373251423758 250.790482243984" stroke-miterlimit="10"/></g><g transform="translate(-110,-86) scale(1,1)"><g><path fill="none" stroke="none"/><text fill="#000000" stroke="none" font-family="Arial" font-size="13px" font-style="normal" font-weight="normal" text-decoration="none" x="707.5" y="245">Pedido criado</text></g></g><g transform="translate(-110,-86) scale(1,1)"><path fill="none" stroke="#000000" d="M 879 160 L 879 223" stroke-miterlimit="10"/></g><g transform="translate(-110,-86) scale(1,1)"><path fill="none" stroke="#000000" d="M 874.790482243984 212.83732514237585 L 879 223 L 883.209517756016 212.83732514237585" stroke-miterlimit="10"/></g><g transform="translate(-110,-86) scale(1,1)"><g><path fill="none" stroke="none"/><text fill="#000000" stroke="none" font-family="Arial" font-size="13px" font-style="normal" font-weight="normal" text-decoration="none" x="839.5" y="195">Pedido adicionado</text></g></g><g transform="translate(-110,-86) scale(1,1)"><path fill="#C0C0C0" stroke="none" d="M 833 383 L 943.34814453125 383 Q 953.34814453125 383 953.34814453125 393 L 953.34814453125 428 Q 953.34814453125 438 943.34814453125 438 L 833 438 Q 823 438 823 428 L 823 393 Q 823 383 833 383 Z" opacity="0.2"/></g><g transform="translate(-110,-86) scale(1,1)"><path fill="#ffffff" stroke="none" d="M 826 376 L 936.34814453125 376 Q 946.34814453125 376 946.34814453125 386 L 946.34814453125 421 Q 946.34814453125 431 936.34814453125 431 L 826 431 Q 816 431 816 421 L 816 386 Q 816 376 826 376 Z"/></g><g transform="translate(-110,-86) scale(1,1)"><path fill="none" stroke="#000000" d="M 826 376 L 936.34814453125 376 Q 946.34814453125 376 946.34814453125 386 L 946.34814453125 421 Q 946.34814453125 431 936.34814453125 431 L 826 431 Q 816 431 816 421 L 816 386 Q 816 376 826 376 Z" stroke-miterlimit="10"/></g><g transform="translate(-110,-86) scale(1,1)"><g><path fill="none" stroke="none"/><text fill="#000000" stroke="none" font-family="Arial" font-size="13px" font-style="normal" font-weight="bold" text-decoration="none" x="820.5" y="394">Acompanha Pedido</text></g></g><g transform="translate(-110,-86) scale(1,1)"><path fill="none" stroke="#000000" d="M 879 288 L 881 375" stroke-miterlimit="10"/></g><g transform="translate(-110,-86) scale(1,1)"><path fill="none" stroke="#000000" d="M 876.5580311063362 364.9367543830172 L 881 375 L 884.974842889985 364.7432644569563" stroke-miterlimit="10"/></g><g transform="translate(-110,-86) scale(1,1)"><g><path fill="none" stroke="none"/><text fill="#000000" stroke="none" font-family="Arial" font-size="13px" font-style="normal" font-weight="normal" text-decoration="none" x="828.5" y="335">Pedido em andamento</text></g></g><g transform="translate(-110,-86) scale(1,1)"><path fill="#C0C0C0" stroke="none" d="M 631 408.5 L 642.5 399 L 653 408.5 L 642.5 417 L 631 408.5" opacity="0.2"/></g><g transform="translate(-110,-86) scale(1,1)"><path fill="#ffffff" stroke="none" d="M 624 401 L 635 392 L 646 401 L 635 410 L 624 401"/></g><g transform="translate(-110,-86) scale(1,1)"><path fill="none" stroke="#000000" d="M 624 401 L 635 392 L 646 401 L 635 410 L 624 401 L 624 401" stroke-miterlimit="10"/></g><g transform="translate(-110,-86) scale(1,1)"><path fill="none" stroke="#000000" d="M 815 402 L 647 401" stroke-miterlimit="10"/></g><g transform="translate(-110,-86) scale(1,1)"><path fill="none" stroke="#000000" d="M 657.187551035792 396.85104785600845 L 647 401 L 657.1374386169275 405.2699342252577" stroke-miterlimit="10"/></g><g transform="translate(-110,-86) scale(1,1)"><path fill="#C0C0C0" stroke="none" d="M 415 579.5 C 415 572.59644 420.59644 567 427.5 567 C 434.40356 567 440 572.59644 440 579.5 C 440 586.40356 434.40356 592 427.5 592 C 420.59644 592 415 586.40356 415 579.5 Z" opacity="0.2"/></g><g transform="translate(-110,-86) scale(1,1)"><path fill="none" stroke="#000000" d="M 408 572.5 C 408 565.59644 413.59644 560 420.5 560 C 427.40356 560 433 565.59644 433 572.5 C 433 579.40356 427.40356 585 420.5 585 C 413.59644 585 408 579.40356 408 572.5 Z" stroke-miterlimit="10"/></g><g transform="translate(-110,-86) scale(1,1)"><path fill="#000000" stroke="none" d="M 413 572.5 C 413 568.357864 416.357864 565 420.5 565 C 424.642136 565 428 568.357864 428 572.5 C 428 576.642136 424.642136 580 420.5 580 C 416.357864 580 413 576.642136 413 572.5 Z"/></g><g transform="translate(-110,-86) scale(1,1)"><path fill="#C0C0C0" stroke="none" d="M 585 551 L 700 551 Q 710 551 710 561 L 710 604 Q 710 614 700 614 L 585 614 Q 575 614 575 604 L 575 561 Q 575 551 585 551 Z" opacity="0.2"/></g><g transform="translate(-110,-86) scale(1,1)"><path fill="#ffffff" stroke="none" d="M 578 544 L 693 544 Q 703 544 703 554 L 703 597 Q 703 607 693 607 L 578 607 Q 568 607 568 597 L 568 554 Q 568 544 578 544 Z"/></g><g transform="translate(-110,-86) scale(1,1)"><path fill="none" stroke="#000000" d="M 578 544 L 693 544 Q 703 544 703 554 L 703 597 Q 703 607 693 607 L 578 607 Q 568 607 568 597 L 568 554 Q 568 544 578 544 Z" stroke-miterlimit="10"/></g><g transform="translate(-110,-86) scale(1,1)"><path fill="none" stroke="#000000" d="M 568 569 L 703 569" stroke-miterlimit="10"/></g><g transform="translate(-110,-86) scale(1,1)"><g><path fill="none" stroke="none"/><text fill="#000000" stroke="none" font-family="Arial" font-size="13px" font-style="normal" font-weight="bold" text-decoration="none" x="610.569580078125" y="562">Cancela</text></g></g><g transform="translate(-110,-86) scale(1,1)"><g><path fill="none" stroke="none"/><text fill="#000000" stroke="none" font-family="Arial" font-size="13px" font-style="normal" font-weight="normal" text-decoration="none" x="573" y="585">do/cancelaPedido</text></g></g><g transform="translate(-110,-86) scale(1,1)"><path fill="none" stroke="#000000" d="M 635 411 L 635 543" stroke-miterlimit="10"/></g><g transform="translate(-110,-86) scale(1,1)"><path fill="none" stroke="#000000" d="M 630.790482243984 532.8373251423759 L 635 543 L 639.209517756016 532.8373251423759" stroke-miterlimit="10"/></g><g transform="translate(-110,-86) scale(1,1)"><g><path fill="none" stroke="none"/><text fill="#000000" stroke="none" font-family="Arial" font-size="13px" font-style="normal" font-weight="normal" text-decoration="none" x="537.5" y="481">Caso haja desisntencia ou algo do tipo</text></g></g><g transform="translate(-110,-86) scale(1,1)"><path fill="none" stroke="#000000" d="M 567 574 L 434 572" stroke-miterlimit="10"/></g><g transform="translate(-110,-86) scale(1,1)"><path fill="none" stroke="#000000" d="M 444.2248198765219 567.9437630132495 L 434 572 L 444.09823215053063 576.3618467916687" stroke-miterlimit="10"/></g><g transform="translate(-110,-86) scale(1,1)"><path fill="#ffffff" stroke="none" d="M 232 552 L 299.26806640625 552 L 309.26806640625 562 L 309.26806640625 590 L 232 590 L 232 552"/></g><g transform="translate(-110,-86) scale(1,1)"><path fill="none" stroke="#000000" d="M 232 552 L 299.26806640625 552 L 309.26806640625 562 L 309.26806640625 590 L 232 590 L 232 552 L 232 552" stroke-miterlimit="10"/></g><g transform="translate(-110,-86) scale(1,1)"><path fill="none" stroke="#000000" d="M 299.26806640625 552 L 299.26806640625 562 L 309.26806640625 562 L 299.26806640625 552" stroke-miterlimit="10"/></g><g transform="translate(-110,-86) scale(1,1)"><g><path fill="none" stroke="none"/><text fill="#000000" stroke="none" font-family="Arial" font-size="13px" font-style="normal" font-weight="normal" text-decoration="none" x="237" y="567">Pedido</text><text fill="#000000" stroke="none" font-family="Arial" font-size="13px" font-style="normal" font-weight="normal" text-decoration="none" x="237" y="580">cancelado</text></g></g><g transform="translate(-110,-86) scale(1,1)"><path fill="none" stroke="#000000" d="M 311 571 L 407 572" stroke-miterlimit="10" stroke-dasharray="3"/></g><g transform="translate(-110,-86) scale(1,1)"><path fill="#C0C0C0" stroke="none" d="M 415 403.5 C 415 396.59644 420.59644 391 427.5 391 C 434.40356 391 440 396.59644 440 403.5 C 440 410.40356 434.40356 416 427.5 416 C 420.59644 416 415 410.40356 415 403.5 Z" opacity="0.2"/></g><g transform="translate(-110,-86) scale(1,1)"><path fill="none" stroke="#000000" d="M 408 396.5 C 408 389.59644 413.59644 384 420.5 384 C 427.40356 384 433 389.59644 433 396.5 C 433 403.40356 427.40356 409 420.5 409 C 413.59644 409 408 403.40356 408 396.5 Z" stroke-miterlimit="10"/></g><g transform="translate(-110,-86) scale(1,1)"><path fill="#000000" stroke="none" d="M 413 396.5 C 413 392.357864 416.357864 389 420.5 389 C 424.642136 389 428 392.357864 428 396.5 C 428 400.642136 424.642136 404 420.5 404 C 416.357864 404 413 400.642136 413 396.5 Z"/></g><g transform="translate(-110,-86) scale(1,1)"><path fill="none" stroke="#000000" d="M 623 401 L 434 396" stroke-miterlimit="10"/></g><g transform="translate(-110,-86) scale(1,1)"><path fill="none" stroke="#000000" d="M 444.2704444099555 392.0607143259198 L 434 396 L 444.04779650125215 400.47680527490587" stroke-miterlimit="10"/></g><g transform="translate(-110,-86) scale(1,1)"><g><path fill="none" stroke="none"/><text fill="#000000" stroke="none" font-family="Arial" font-size="13px" font-style="normal" font-weight="normal" text-decoration="none" x="447.5" y="417">Caso pedido seja finalizado</text></g></g><g transform="translate(-110,-86) scale(1,1)"><path fill="#ffffff" stroke="none" d="M 232 376 L 295.64990234375 376 L 305.64990234375 386 L 305.64990234375 414 L 232 414 L 232 376"/></g><g transform="translate(-110,-86) scale(1,1)"><path fill="none" stroke="#000000" d="M 232 376 L 295.64990234375 376 L 305.64990234375 386 L 305.64990234375 414 L 232 414 L 232 376 L 232 376" stroke-miterlimit="10"/></g><g transform="translate(-110,-86) scale(1,1)"><path fill="none" stroke="#000000" d="M 295.64990234375 376 L 295.64990234375 386 L 305.64990234375 386 L 295.64990234375 376" stroke-miterlimit="10"/></g><g transform="translate(-110,-86) scale(1,1)"><g><path fill="none" stroke="none"/><text fill="#000000" stroke="none" font-family="Arial" font-size="13px" font-style="normal" font-weight="normal" text-decoration="none" x="237" y="391">Pedido</text><text fill="#000000" stroke="none" font-family="Arial" font-size="13px" font-style="normal" font-weight="normal" text-decoration="none" x="237" y="404">concluído</text></g></g><g transform="translate(-110,-86) scale(1,1)"><path fill="none" stroke="#000000" d="M 308 395 L 407 396" stroke-miterlimit="10" stroke-dasharray="3"/></g></g></svg>