<svg version="1.1" xmlns="http://www.w3.org/2000/svg" xmlns:xlink="http://www.w3.org/1999/xlink" width="987" height="531"><defs/><g><text fill="#eeeeee" stroke="none" font-family="Arial" font-size="24px" font-style="normal" font-weight="normal" text-decoration="none" x="0" y="0">UNREGISTERED</text><text fill="#eeeeee" stroke="none" font-family="Arial" font-size="24px" font-style="normal" font-weight="normal" text-decoration="none" x="0" y="30">UNREGISTERED</text><text fill="#eeeeee" stroke="none" font-family="Arial" font-size="24px" font-style="normal" font-weight="normal" text-decoration="none" x="0" y="60">UNREGISTERED</text><text fill="#eeeeee" stroke="none" font-family="Arial" font-size="24px" font-style="normal" font-weight="normal" text-decoration="none" x="0" y="90">UNREGISTERED</text><text fill="#eeeeee" stroke="none" font-family="Arial" font-size="24px" font-style="normal" font-weight="normal" text-decoration="none" x="0" y="120">UNREGISTERED</text><text fill="#eeeeee" stroke="none" font-family="Arial" font-size="24px" font-style="normal" font-weight="normal" text-decoration="none" x="0" y="150">UNREGISTERED</text><text fill="#eeeeee" stroke="none" font-family="Arial" font-size="24px" font-style="normal" font-weight="normal" text-decoration="none" x="0" y="180">UNREGISTERED</text><text fill="#eeeeee" stroke="none" font-family="Arial" font-size="24px" font-style="normal" font-weight="normal" text-decoration="none" x="0" y="210">UNREGISTERED</text><text fill="#eeeeee" stroke="none" font-family="Arial" font-size="24px" font-style="normal" font-weight="normal" text-decoration="none" x="0" y="240">UNREGISTERED</text><text fill="#eeeeee" stroke="none" font-family="Arial" font-size="24px" font-style="normal" font-weight="normal" text-decoration="none" x="0" y="270">UNREGISTERED</text><text fill="#eeeeee" stroke="none" font-family="Arial" font-size="24px" font-style="normal" font-weight="normal" text-decoration="none" x="0" y="300">UNREGISTERED</text><text fill="#eeeeee" stroke="none" font-family="Arial" font-size="24px" font-style="normal" font-weight="normal" text-decoration="none" x="0" y="330">UNREGISTERED</text><text fill="#eeeeee" stroke="none" font-family="Arial" font-size="24px" font-style="normal" font-weight="normal" text-decoration="none" x="0" y="360">UNREGISTERED</text><text fill="#eeeeee" stroke="none" font-family="Arial" font-size="24px" font-style="normal" font-weight="normal" text-decoration="none" x="0" y="390">UNREGISTERED</text><text fill="#eeeeee" stroke="none" font-family="Arial" font-size="24px" font-style="normal" font-weight="normal" text-decoration="none" x="0" y="420">UNREGISTERED</text><text fill="#eeeeee" stroke="none" font-family="Arial" font-size="24px" font-style="normal" font-weight="normal" text-decoration="none" x="0" y="450">UNREGISTERED</text><text fill="#eeeeee" stroke="none" font-family="Arial" font-size="24px" font-style="normal" font-weight="normal" text-decoration="none" x="0" y="480">UNREGISTERED</text><text fill="#eeeeee" stroke="none" font-family="Arial" font-size="24px" font-style="normal" font-weight="normal" text-decoration="none" x="0" y="510">UNREGISTERED</text><text fill="#eeeeee" stroke="none" font-family="Arial" font-size="24px" font-style="normal" font-weight="normal" text-decoration="none" x="200" y="0">UNREGISTERED</text><text fill="#eeeeee" stroke="none" font-family="Arial" font-size="24px" font-style="normal" font-weight="normal" text-decoration="none" x="200" y="30">UNREGISTERED</text><text fill="#eeeeee" stroke="none" font-family="Arial" font-size="24px" font-style="normal" font-weight="normal" text-decoration="none" x="200" y="60">UNREGISTERED</text><text fill="#eeeeee" stroke="none" font-family="Arial" font-size="24px" font-style="normal" font-weight="normal" text-decoration="none" x="200" y="90">UNREGISTERED</text><text fill="#eeeeee" stroke="none" font-family="Arial" font-size="24px" font-style="normal" font-weight="normal" text-decoration="none" x="200" y="120">UNREGISTERED</text><text fill="#eeeeee" stroke="none" font-family="Arial" font-size="24px" font-style="normal" font-weight="normal" text-decoration="none" x="200" y="150">UNREGISTERED</text><text fill="#eeeeee" stroke="none" font-family="Arial" font-size="24px" font-style="normal" font-weight="normal" text-decoration="none" x="200" y="180">UNREGISTERED</text><text fill="#eeeeee" stroke="none" font-family="Arial" font-size="24px" font-style="normal" font-weight="normal" text-decoration="none" x="200" y="210">UNREGISTERED</text><text fill="#eeeeee" stroke="none" font-family="Arial" font-size="24px" font-style="normal" font-weight="normal" text-decoration="none" x="200" y="240">UNREGISTERED</text><text fill="#eeeeee" stroke="none" font-family="Arial" font-size="24px" font-style="normal" font-weight="normal" text-decoration="none" x="200" y="270">UNREGISTERED</text><text fill="#eeeeee" stroke="none" font-family="Arial" font-size="24px" font-style="normal" font-weight="normal" text-decoration="none" x="200" y="300">UNREGISTERED</text><text fill="#eeeeee" stroke="none" font-family="Arial" font-size="24px" font-style="normal" font-weight="normal" text-decoration="none" x="200" y="330">UNREGISTERED</text><text fill="#eeeeee" stroke="none" font-family="Arial" font-size="24px" font-style="normal" font-weight="normal" text-decoration="none" x="200" y="360">UNREGISTERED</text><text fill="#eeeeee" stroke="none" font-family="Arial" font-size="24px" font-style="normal" font-weight="normal" text-decoration="none" x="200" y="390">UNREGISTERED</text><text fill="#eeeeee" stroke="none" font-family="Arial" font-size="24px" font-style="normal" font-weight="normal" text-decoration="none" x="200" y="420">UNREGISTERED</text><text fill="#eeeeee" stroke="none" font-family="Arial" font-size="24px" font-style="normal" font-weight="normal" text-decoration="none" x="200" y="450">UNREGISTERED</text><text fill="#eeeeee" stroke="none" font-family="Arial" font-size="24px" font-style="normal" font-weight="normal" text-decoration="none" x="200" y="480">UNREGISTERED</text><text fill="#eeeeee" stroke="none" font-family="Arial" font-size="24px" font-style="normal" font-weight="normal" text-decoration="none" x="200" y="510">UNREGISTERED</text><text fill="#eeeeee" stroke="none" font-family="Arial" font-size="24px" font-style="normal" font-weight="normal" text-decoration="none" x="400" y="0">UNREGISTERED</text><text fill="#eeeeee" stroke="none" font-family="Arial" font-size="24px" font-style="normal" font-weight="normal" text-decoration="none" x="400" y="30">UNREGISTERED</text><text fill="#eeeeee" stroke="none" font-family="Arial" font-size="24px" font-style="normal" font-weight="normal" text-decoration="none" x="400" y="60">UNREGISTERED</text><text fill="#eeeeee" stroke="none" font-family="Arial" font-size="24px" font-style="normal" font-weight="normal" text-decoration="none" x="400" y="90">UNREGISTERED</text><text fill="#eeeeee" stroke="none" font-family="Arial" font-size="24px" font-style="normal" font-weight="normal" text-decoration="none" x="400" y="120">UNREGISTERED</text><text fill="#eeeeee" stroke="none" font-family="Arial" font-size="24px" font-style="normal" font-weight="normal" text-decoration="none" x="400" y="150">UNREGISTERED</text><text fill="#eeeeee" stroke="none" font-family="Arial" font-size="24px" font-style="normal" font-weight="normal" text-decoration="none" x="400" y="180">UNREGISTERED</text><text fill="#eeeeee" stroke="none" font-family="Arial" font-size="24px" font-style="normal" font-weight="normal" text-decoration="none" x="400" y="210">UNREGISTERED</text><text fill="#eeeeee" stroke="none" font-family="Arial" font-size="24px" font-style="normal" font-weight="normal" text-decoration="none" x="400" y="240">UNREGISTERED</text><text fill="#eeeeee" stroke="none" font-family="Arial" font-size="24px" font-style="normal" font-weight="normal" text-decoration="none" x="400" y="270">UNREGISTERED</text><text fill="#eeeeee" stroke="none" font-family="Arial" font-size="24px" font-style="normal" font-weight="normal" text-decoration="none" x="400" y="300">UNREGISTERED</text><text fill="#eeeeee" stroke="none" font-family="Arial" font-size="24px" font-style="normal" font-weight="normal" text-decoration="none" x="400" y="330">UNREGISTERED</text><text fill="#eeeeee" stroke="none" font-family="Arial" font-size="24px" font-style="normal" font-weight="normal" text-decoration="none" x="400" y="360">UNREGISTERED</text><text fill="#eeeeee" stroke="none" font-family="Arial" font-size="24px" font-style="normal" font-weight="normal" text-decoration="none" x="400" y="390">UNREGISTERED</text><text fill="#eeeeee" stroke="none" font-family="Arial" font-size="24px" font-style="normal" font-weight="normal" text-decoration="none" x="400" y="420">UNREGISTERED</text><text fill="#eeeeee" stroke="none" font-family="Arial" font-size="24px" font-style="normal" font-weight="normal" text-decoration="none" x="400" y="450">UNREGISTERED</text><text fill="#eeeeee" stroke="none" font-family="Arial" font-size="24px" font-style="normal" font-weight="normal" text-decoration="none" x="400" y="480">UNREGISTERED</text><text fill="#eeeeee" stroke="none" font-family="Arial" font-size="24px" font-style="normal" font-weight="normal" text-decoration="none" x="400" y="510">UNREGISTERED</text><text fill="#eeeeee" stroke="none" font-family="Arial" font-size="24px" font-style="normal" font-weight="normal" text-decoration="none" x="600" y="0">UNREGISTERED</text><text fill="#eeeeee" stroke="none" font-family="Arial" font-size="24px" font-style="normal" font-weight="normal" text-decoration="none" x="600" y="30">UNREGISTERED</text><text fill="#eeeeee" stroke="none" font-family="Arial" font-size="24px" font-style="normal" font-weight="normal" text-decoration="none" x="600" y="60">UNREGISTERED</text><text fill="#eeeeee" stroke="none" font-family="Arial" font-size="24px" font-style="normal" font-weight="normal" text-decoration="none" x="600" y="90">UNREGISTERED</text><text fill="#eeeeee" stroke="none" font-family="Arial" font-size="24px" font-style="normal" font-weight="normal" text-decoration="none" x="600" y="120">UNREGISTERED</text><text fill="#eeeeee" stroke="none" font-family="Arial" font-size="24px" font-style="normal" font-weight="normal" text-decoration="none" x="600" y="150">UNREGISTERED</text><text fill="#eeeeee" stroke="none" font-family="Arial" font-size="24px" font-style="normal" font-weight="normal" text-decoration="none" x="600" y="180">UNREGISTERED</text><text fill="#eeeeee" stroke="none" font-family="Arial" font-size="24px" font-style="normal" font-weight="normal" text-decoration="none" x="600" y="210">UNREGISTERED</text><text fill="#eeeeee" stroke="none" font-family="Arial" font-size="24px" font-style="normal" font-weight="normal" text-decoration="none" x="600" y="240">UNREGISTERED</text><text fill="#eeeeee" stroke="none" font-family="Arial" font-size="24px" font-style="normal" font-weight="normal" text-decoration="none" x="600" y="270">UNREGISTERED</text><text fill="#eeeeee" stroke="none" font-family="Arial" font-size="24px" font-style="normal" font-weight="normal" text-decoration="none" x="600" y="300">UNREGISTERED</text><text fill="#eeeeee" stroke="none" font-family="Arial" font-size="24px" font-style="normal" font-weight="normal" text-decoration="none" x="600" y="330">UNREGISTERED</text><text fill="#eeeeee" stroke="none" font-family="Arial" font-size="24px" font-style="normal" font-weight="normal" text-decoration="none" x="600" y="360">UNREGISTERED</text><text fill="#eeeeee" stroke="none" font-family="Arial" font-size="24px" font-style="normal" font-weight="normal" text-decoration="none" x="600" y="390">UNREGISTERED</text><text fill="#eeeeee" stroke="none" font-family="Arial" font-size="24px" font-style="normal" font-weight="normal" text-decoration="none" x="600" y="420">UNREGISTERED</text><text fill="#eeeeee" stroke="none" font-family="Arial" font-size="24px" font-style="normal" font-weight="normal" text-decoration="none" x="600" y="450">UNREGISTERED</text><text fill="#eeeeee" stroke="none" font-family="Arial" font-size="24px" font-style="normal" font-weight="normal" text-decoration="none" x="600" y="480">UNREGISTERED</text><text fill="#eeeeee" stroke="none" font-family="Arial" font-size="24px" font-style="normal" font-weight="normal" text-decoration="none" x="600" y="510">UNREGISTERED</text><text fill="#eeeeee" stroke="none" font-family="Arial" font-size="24px" font-style="normal" font-weight="normal" text-decoration="none" x="800" y="0">UNREGISTERED</text><text fill="#eeeeee" stroke="none" font-family="Arial" font-size="24px" font-style="normal" font-weight="normal" text-decoration="none" x="800" y="30">UNREGISTERED</text><text fill="#eeeeee" stroke="none" font-family="Arial" font-size="24px" font-style="normal" font-weight="normal" text-decoration="none" x="800" y="60">UNREGISTERED</text><text fill="#eeeeee" stroke="none" font-family="Arial" font-size="24px" font-style="normal" font-weight="normal" text-decoration="none" x="800" y="90">UNREGISTERED</text><text fill="#eeeeee" stroke="none" font-family="Arial" font-size="24px" font-style="normal" font-weight="normal" text-decoration="none" x="800" y="120">UNREGISTERED</text><text fill="#eeeeee" stroke="none" font-family="Arial" font-size="24px" font-style="normal" font-weight="normal" text-decoration="none" x="800" y="150">UNREGISTERED</text><text fill="#eeeeee" stroke="none" font-family="Arial" font-size="24px" font-style="normal" font-weight="normal" text-decoration="none" x="800" y="180">UNREGISTERED</text><text fill="#eeeeee" stroke="none" font-family="Arial" font-size="24px" font-style="normal" font-weight="normal" text-decoration="none" x="800" y="210">UNREGISTERED</text><text fill="#eeeeee" stroke="none" font-family="Arial" font-size="24px" font-style="normal" font-weight="normal" text-decoration="none" x="800" y="240">UNREGISTERED</text><text fill="#eeeeee" stroke="none" font-family="Arial" font-size="24px" font-style="normal" font-weight="normal" text-decoration="none" x="800" y="270">UNREGISTERED</text><text fill="#eeeeee" stroke="none" font-family="Arial" font-size="24px" font-style="normal" font-weight="normal" text-decoration="none" x="800" y="300">UNREGISTERED</text><text fill="#eeeeee" stroke="none" font-family="Arial" font-size="24px" font-style="normal" font-weight="normal" text-decoration="none" x="800" y="330">UNREGISTERED</text><text fill="#eeeeee" stroke="none" font-family="Arial" font-size="24px" font-style="normal" font-weight="normal" text-decoration="none" x="800" y="360">UNREGISTERED</text><text fill="#eeeeee" stroke="none" font-family="Arial" font-size="24px" font-style="normal" font-weight="normal" text-decoration="none" x="800" y="390">UNREGISTERED</text><text fill="#eeeeee" stroke="none" font-family="Arial" font-size="24px" font-style="normal" font-weight="normal" text-decoration="none" x="800" y="420">UNREGISTERED</text><text fill="#eeeeee" stroke="none" font-family="Arial" font-size="24px" font-style="normal" font-weight="normal" text-decoration="none" x="800" y="450">UNREGISTERED</text><text fill="#eeeeee" stroke="none" font-family="Arial" font-size="24px" font-style="normal" font-weight="normal" text-decoration="none" x="800" y="480">UNREGISTERED</text><text fill="#eeeeee" stroke="none" font-family="Arial" font-size="24px" font-style="normal" font-weight="normal" text-decoration="none" x="800" y="510">UNREGISTERED</text><g transform="translate(-222,-94) scale(1,1)"><path fill="#C0C0C0" stroke="none" d="M 239 152.5 C 239 147.2532944 243.2532944 143 248.5 143 C 253.7467056 143 258 147.2532944 258 152.5 C 258 157.7467056 253.7467056 162 248.5 162 C 243.2532944 162 239 157.7467056 239 152.5 Z" opacity="0.2"/></g><g transform="translate(-222,-94) scale(1,1)"><path fill="#000000" stroke="none" d="M 232 145.5 C 232 140.2532944 236.2532944 136 241.5 136 C 246.7467056 136 251 140.2532944 251 145.5 C 251 150.7467056 246.7467056 155 241.5 155 C 236.2532944 155 232 150.7467056 232 145.5 Z"/></g><g transform="translate(-222,-94) scale(1,1)"><path fill="#C0C0C0" stroke="none" d="M 441 111 L 564 111 Q 574 111 574 121 L 574 188 Q 574 198 564 198 L 441 198 Q 431 198 431 188 L 431 121 Q 431 111 441 111 Z" opacity="0.2"/></g><g transform="translate(-222,-94) scale(1,1)"><path fill="#ffffff" stroke="none" d="M 434 104 L 557 104 Q 567 104 567 114 L 567 181 Q 567 191 557 191 L 434 191 Q 424 191 424 181 L 424 114 Q 424 104 434 104 Z"/></g><g transform="translate(-222,-94) scale(1,1)"><path fill="none" stroke="#000000" d="M 434 104 L 557 104 Q 567 104 567 114 L 567 181 Q 567 191 557 191 L 434 191 Q 424 191 424 181 L 424 114 Q 424 104 434 104 Z" stroke-miterlimit="10"/></g><g transform="translate(-222,-94) scale(1,1)"><path fill="none" stroke="#000000" d="M 424 129 L 567 129" stroke-miterlimit="10"/></g><g transform="translate(-222,-94) scale(1,1)"><g><path fill="none" stroke="none"/><text fill="#000000" stroke="none" font-family="Arial" font-size="13px" font-style="normal" font-weight="bold" text-decoration="none" x="477.812255859375" y="122">Login</text></g></g><g transform="translate(-222,-94) scale(1,1)"><g><path fill="none" stroke="none"/><text fill="#000000" stroke="none" font-family="Arial" font-size="13px" font-style="normal" font-weight="normal" text-decoration="none" x="429" y="145">do/contaCliente</text></g></g><g transform="translate(-222,-94) scale(1,1)"><path fill="none" stroke="#000000" d="M 252 145 L 423 146" stroke-miterlimit="10"/></g><g transform="translate(-222,-94) scale(1,1)"><path fill="none" stroke="#000000" d="M 412.81288227034815 150.15001594722398 L 423 146 L 412.8621155543031 141.73112439093188" stroke-miterlimit="10"/></g><g transform="translate(-222,-94) scale(1,1)"><g><path fill="none" stroke="none"/><text fill="#000000" stroke="none" font-family="Arial" font-size="13px" font-style="normal" font-weight="normal" text-decoration="none" x="297.5" y="135">Conta Cliente</text></g></g><g transform="translate(-222,-94) scale(1,1)"><path fill="#C0C0C0" stroke="none" d="M 729 111 L 884 111 Q 894 111 894 121 L 894 196 Q 894 206 884 206 L 729 206 Q 719 206 719 196 L 719 121 Q 719 111 729 111 Z" opacity="0.2"/></g><g transform="translate(-222,-94) scale(1,1)"><path fill="#ffffff" stroke="none" d="M 722 104 L 877 104 Q 887 104 887 114 L 887 189 Q 887 199 877 199 L 722 199 Q 712 199 712 189 L 712 114 Q 712 104 722 104 Z"/></g><g transform="translate(-222,-94) scale(1,1)"><path fill="none" stroke="#000000" d="M 722 104 L 877 104 Q 887 104 887 114 L 887 189 Q 887 199 877 199 L 722 199 Q 712 199 712 189 L 712 114 Q 712 104 722 104 Z" stroke-miterlimit="10"/></g><g transform="translate(-222,-94) scale(1,1)"><path fill="none" stroke="#000000" d="M 712 129 L 887 129" stroke-miterlimit="10"/></g><g transform="translate(-222,-94) scale(1,1)"><g><path fill="none" stroke="none"/><text fill="#000000" stroke="none" font-family="Arial" font-size="13px" font-style="normal" font-weight="bold" text-decoration="none" x="753.990478515625" y="122">Realiza pedido</text></g></g><g transform="translate(-222,-94) scale(1,1)"><g><path fill="none" stroke="none"/><text fill="#000000" stroke="none" font-family="Arial" font-size="13px" font-style="normal" font-weight="normal" text-decoration="none" x="717" y="145">do/fazPedido</text></g></g><g transform="translate(-222,-94) scale(1,1)"><path fill="none" stroke="#000000" d="M 568 148 L 711 150" stroke-miterlimit="10"/></g><g transform="translate(-222,-94) scale(1,1)"><path fill="none" stroke="#000000" d="M 700.7794503329278 154.06698469420664 L 711 150 L 700.8971875667039 145.64877247921478" stroke-miterlimit="10"/></g><g transform="translate(-222,-94) scale(1,1)"><g><path fill="none" stroke="none"/><text fill="#000000" stroke="none" font-family="Arial" font-size="13px" font-style="normal" font-weight="normal" text-decoration="none" x="594.5" y="139">Procura pedido</text></g></g><g transform="translate(-222,-94) scale(1,1)"><path fill="#C0C0C0" stroke="none" d="M 1025 119 L 1196 119 Q 1206 119 1206 129 L 1206 183 Q 1206 193 1196 193 L 1025 193 Q 1015 193 1015 183 L 1015 129 Q 1015 119 1025 119 Z" opacity="0.2"/></g><g transform="translate(-222,-94) scale(1,1)"><path fill="#ffffff" stroke="none" d="M 1018 112 L 1189 112 Q 1199 112 1199 122 L 1199 176 Q 1199 186 1189 186 L 1018 186 Q 1008 186 1008 176 L 1008 122 Q 1008 112 1018 112 Z"/></g><g transform="translate(-222,-94) scale(1,1)"><path fill="none" stroke="#000000" d="M 1018 112 L 1189 112 Q 1199 112 1199 122 L 1199 176 Q 1199 186 1189 186 L 1018 186 Q 1008 186 1008 176 L 1008 122 Q 1008 112 1018 112 Z" stroke-miterlimit="10"/></g><g transform="translate(-222,-94) scale(1,1)"><path fill="none" stroke="#000000" d="M 1008 137 L 1199 137" stroke-miterlimit="10"/></g><g transform="translate(-222,-94) scale(1,1)"><g><path fill="none" stroke="none"/><text fill="#000000" stroke="none" font-family="Arial" font-size="13px" font-style="normal" font-weight="bold" text-decoration="none" x="1043.19091796875" y="130">Acompanha pedido</text></g></g><g transform="translate(-222,-94) scale(1,1)"><path fill="none" stroke="#000000" d="M 888 150 L 1007 150" stroke-miterlimit="10"/></g><g transform="translate(-222,-94) scale(1,1)"><path fill="none" stroke="#000000" d="M 996.8373251423759 154.209517756016 L 1007 150 L 996.8373251423758 145.790482243984" stroke-miterlimit="10"/></g><g transform="translate(-222,-94) scale(1,1)"><path fill="#C0C0C0" stroke="none" d="M 1103 328.5 L 1114.5 319 L 1125 328.5 L 1114.5 337 L 1103 328.5" opacity="0.2"/></g><g transform="translate(-222,-94) scale(1,1)"><path fill="#ffffff" stroke="none" d="M 1096 321 L 1107 312 L 1118 321 L 1107 330 L 1096 321"/></g><g transform="translate(-222,-94) scale(1,1)"><path fill="none" stroke="#000000" d="M 1096 321 L 1107 312 L 1118 321 L 1107 330 L 1096 321 L 1096 321" stroke-miterlimit="10"/></g><g transform="translate(-222,-94) scale(1,1)"><path fill="none" stroke="#000000" d="M 1104 187 L 1107 311" stroke-miterlimit="10"/></g><g transform="translate(-222,-94) scale(1,1)"><path fill="none" stroke="#000000" d="M 1102.5459144373935 300.9421114640805 L 1107 311 L 1110.9624870828632 300.7384847065288" stroke-miterlimit="10"/></g><g transform="translate(-222,-94) scale(1,1)"><path fill="#C0C0C0" stroke="none" d="M 713 295 L 868 295 Q 878 295 878 305 L 878 348 Q 878 358 868 358 L 713 358 Q 703 358 703 348 L 703 305 Q 703 295 713 295 Z" opacity="0.2"/></g><g transform="translate(-222,-94) scale(1,1)"><path fill="#ffffff" stroke="none" d="M 706 288 L 861 288 Q 871 288 871 298 L 871 341 Q 871 351 861 351 L 706 351 Q 696 351 696 341 L 696 298 Q 696 288 706 288 Z"/></g><g transform="translate(-222,-94) scale(1,1)"><path fill="none" stroke="#000000" d="M 706 288 L 861 288 Q 871 288 871 298 L 871 341 Q 871 351 861 351 L 706 351 Q 696 351 696 341 L 696 298 Q 696 288 706 288 Z" stroke-miterlimit="10"/></g><g transform="translate(-222,-94) scale(1,1)"><path fill="none" stroke="#000000" d="M 696 313 L 871 313" stroke-miterlimit="10"/></g><g transform="translate(-222,-94) scale(1,1)"><g><path fill="none" stroke="none"/><text fill="#000000" stroke="none" font-family="Arial" font-size="13px" font-style="normal" font-weight="bold" text-decoration="none" x="748.464111328125" y="306">Reembolso</text></g></g><g transform="translate(-222,-94) scale(1,1)"><g><path fill="none" stroke="none"/><text fill="#000000" stroke="none" font-family="Arial" font-size="13px" font-style="normal" font-weight="normal" text-decoration="none" x="701" y="329">do/Reembolso</text></g></g><g transform="translate(-222,-94) scale(1,1)"><path fill="none" stroke="#000000" d="M 1095 321 L 872 320" stroke-miterlimit="10"/></g><g transform="translate(-222,-94) scale(1,1)"><path fill="none" stroke="#000000" d="M 882.1814492500422 315.8360966427144 L 872 320 L 882.1436961071537 324.25504750686946" stroke-miterlimit="10"/></g><g transform="translate(-222,-94) scale(1,1)"><g><path fill="none" stroke="none"/><text fill="#000000" stroke="none" font-family="Arial" font-size="13px" font-style="normal" font-weight="normal" text-decoration="none" x="894.5" y="340">Caso o pedido seja cancelado</text></g></g><g transform="translate(-222,-94) scale(1,1)"><path fill="#C0C0C0" stroke="none" d="M 1103 443.5 C 1103 436.59644 1108.59644 431 1115.5 431 C 1122.40356 431 1128 436.59644 1128 443.5 C 1128 450.40356 1122.40356 456 1115.5 456 C 1108.59644 456 1103 450.40356 1103 443.5 Z" opacity="0.2"/></g><g transform="translate(-222,-94) scale(1,1)"><path fill="none" stroke="#000000" d="M 1096 436.5 C 1096 429.59644 1101.59644 424 1108.5 424 C 1115.40356 424 1121 429.59644 1121 436.5 C 1121 443.40356 1115.40356 449 1108.5 449 C 1101.59644 449 1096 443.40356 1096 436.5 Z" stroke-miterlimit="10"/></g><g transform="translate(-222,-94) scale(1,1)"><path fill="#000000" stroke="none" d="M 1101 436.5 C 1101 432.357864 1104.357864 429 1108.5 429 C 1112.642136 429 1116 432.357864 1116 436.5 C 1116 440.642136 1112.642136 444 1108.5 444 C 1104.357864 444 1101 440.642136 1101 436.5 Z"/></g><g transform="translate(-222,-94) scale(1,1)"><path fill="none" stroke="#000000" d="M 1107 331 L 1108 423" stroke-miterlimit="10"/></g><g transform="translate(-222,-94) scale(1,1)"><path fill="none" stroke="#000000" d="M 1103.6802735616266 412.88367836130067 L 1108 423 L 1112.098811773944 412.79217251116677" stroke-miterlimit="10"/></g><g transform="translate(-222,-94) scale(1,1)"><g><path fill="none" stroke="none"/><text fill="#000000" stroke="none" font-family="Arial" font-size="13px" font-style="normal" font-weight="normal" text-decoration="none" x="1071.5" y="381">Pedido concluído</text></g></g><g transform="translate(-222,-94) scale(1,1)"><path fill="#ffffff" stroke="none" d="M 704 528 L 852 528 L 862 538 L 862 614 L 704 614 L 704 528"/></g><g transform="translate(-222,-94) scale(1,1)"><path fill="none" stroke="#000000" d="M 704 528 L 852 528 L 862 538 L 862 614 L 704 614 L 704 528 L 704 528" stroke-miterlimit="10"/></g><g transform="translate(-222,-94) scale(1,1)"><path fill="none" stroke="#000000" d="M 852 528 L 852 538 L 862 538 L 852 528" stroke-miterlimit="10"/></g><g transform="translate(-222,-94) scale(1,1)"><g><path fill="none" stroke="none"/><text fill="#000000" stroke="none" font-family="Arial" font-size="13px" font-style="normal" font-weight="normal" text-decoration="none" x="709" y="543">Valor Reembolsado</text></g></g><g transform="translate(-222,-94) scale(1,1)"><path fill="#ffffff" stroke="none" d="M 1072 544 L 1135.64990234375 544 L 1145.64990234375 554 L 1145.64990234375 582 L 1072 582 L 1072 544"/></g><g transform="translate(-222,-94) scale(1,1)"><path fill="none" stroke="#000000" d="M 1072 544 L 1135.64990234375 544 L 1145.64990234375 554 L 1145.64990234375 582 L 1072 582 L 1072 544 L 1072 544" stroke-miterlimit="10"/></g><g transform="translate(-222,-94) scale(1,1)"><path fill="none" stroke="#000000" d="M 1135.64990234375 544 L 1135.64990234375 554 L 1145.64990234375 554 L 1135.64990234375 544" stroke-miterlimit="10"/></g><g transform="translate(-222,-94) scale(1,1)"><g><path fill="none" stroke="none"/><text fill="#000000" stroke="none" font-family="Arial" font-size="13px" font-style="normal" font-weight="normal" text-decoration="none" x="1077" y="559">Pedido</text><text fill="#000000" stroke="none" font-family="Arial" font-size="13px" font-style="normal" font-weight="normal" text-decoration="none" x="1077" y="572">concluído</text></g></g><g transform="translate(-222,-94) scale(1,1)"><path fill="none" stroke="#000000" d="M 1108 450 L 1109 543" stroke-miterlimit="10" stroke-dasharray="3"/></g><g transform="translate(-222,-94) scale(1,1)"><path fill="#C0C0C0" stroke="none" d="M 775 483.5 C 775 476.59644 780.59644 471 787.5 471 C 794.40356 471 800 476.59644 800 483.5 C 800 490.40356 794.40356 496 787.5 496 C 780.59644 496 775 490.40356 775 483.5 Z" opacity="0.2"/></g><g transform="translate(-222,-94) scale(1,1)"><path fill="none" stroke="#000000" d="M 768 476.5 C 768 469.59644 773.59644 464 780.5 464 C 787.40356 464 793 469.59644 793 476.5 C 793 483.40356 787.40356 489 780.5 489 C 773.59644 489 768 483.40356 768 476.5 Z" stroke-miterlimit="10"/></g><g transform="translate(-222,-94) scale(1,1)"><path fill="#000000" stroke="none" d="M 773 476.5 C 773 472.357864 776.357864 469 780.5 469 C 784.642136 469 788 472.357864 788 476.5 C 788 480.642136 784.642136 484 780.5 484 C 776.357864 484 773 480.642136 773 476.5 Z"/></g><g transform="translate(-222,-94) scale(1,1)"><path fill="none" stroke="#000000" d="M 782 352 L 780 463" stroke-miterlimit="10"/></g><g transform="translate(-222,-94) scale(1,1)"><path fill="none" stroke="#000000" d="M 775.9742469279515 452.763139533876 L 780 463 L 784.3919161570287 452.91480924971523" stroke-miterlimit="10"/></g><g transform="translate(-222,-94) scale(1,1)"><path fill="none" stroke="#000000" d="M 780 490 L 782 527" stroke-miterlimit="10" stroke-dasharray="3"/></g></g></svg>