<svg version="1.1" xmlns="http://www.w3.org/2000/svg" xmlns:xlink="http://www.w3.org/1999/xlink" width="639.13232421875" height="91"><defs/><g><text fill="#eeeeee" stroke="none" font-family="Arial" font-size="24px" font-style="normal" font-weight="normal" text-decoration="none" x="0" y="0">UNREGISTERED</text><text fill="#eeeeee" stroke="none" font-family="Arial" font-size="24px" font-style="normal" font-weight="normal" text-decoration="none" x="0" y="30">UNREGISTERED</text><text fill="#eeeeee" stroke="none" font-family="Arial" font-size="24px" font-style="normal" font-weight="normal" text-decoration="none" x="0" y="60">UNREGISTERED</text><text fill="#eeeeee" stroke="none" font-family="Arial" font-size="24px" font-style="normal" font-weight="normal" text-decoration="none" x="0" y="90">UNREGISTERED</text><text fill="#eeeeee" stroke="none" font-family="Arial" font-size="24px" font-style="normal" font-weight="normal" text-decoration="none" x="200" y="0">UNREGISTERED</text><text fill="#eeeeee" stroke="none" font-family="Arial" font-size="24px" font-style="normal" font-weight="normal" text-decoration="none" x="200" y="30">UNREGISTERED</text><text fill="#eeeeee" stroke="none" font-family="Arial" font-size="24px" font-style="normal" font-weight="normal" text-decoration="none" x="200" y="60">UNREGISTERED</text><text fill="#eeeeee" stroke="none" font-family="Arial" font-size="24px" font-style="normal" font-weight="normal" text-decoration="none" x="200" y="90">UNREGISTERED</text><text fill="#eeeeee" stroke="none" font-family="Arial" font-size="24px" font-style="normal" font-weight="normal" text-decoration="none" x="400" y="0">UNREGISTERED</text><text fill="#eeeeee" stroke="none" font-family="Arial" font-size="24px" font-style="normal" font-weight="normal" text-decoration="none" x="400" y="30">UNREGISTERED</text><text fill="#eeeeee" stroke="none" font-family="Arial" font-size="24px" font-style="normal" font-weight="normal" text-decoration="none" x="400" y="60">UNREGISTERED</text><text fill="#eeeeee" stroke="none" font-family="Arial" font-size="24px" font-style="normal" font-weight="normal" text-decoration="none" x="400" y="90">UNREGISTERED</text><text fill="#eeeeee" stroke="none" font-family="Arial" font-size="24px" font-style="normal" font-weight="normal" text-decoration="none" x="600" y="0">UNREGISTERED</text><text fill="#eeeeee" stroke="none" font-family="Arial" font-size="24px" font-style="normal" font-weight="normal" text-decoration="none" x="600" y="30">UNREGISTERED</text><text fill="#eeeeee" stroke="none" font-family="Arial" font-size="24px" font-style="normal" font-weight="normal" text-decoration="none" x="600" y="60">UNREGISTERED</text><text fill="#eeeeee" stroke="none" font-family="Arial" font-size="24px" font-style="normal" font-weight="normal" text-decoration="none" x="600" y="90">UNREGISTERED</text><g transform="translate(-182,-238) scale(1,1)"><path fill="#C0C0C0" stroke="none" d="M 199 288.5 C 199 283.2532944 203.2532944 279 208.5 279 C 213.7467056 279 218 283.2532944 218 288.5 C 218 293.7467056 213.7467056 298 208.5 298 C 203.2532944 298 199 293.7467056 199 288.5 Z" opacity="0.2"/></g><g transform="translate(-182,-238) scale(1,1)"><path fill="#000000" stroke="none" d="M 192 281.5 C 192 276.2532944 196.2532944 272 201.5 272 C 206.7467056 272 211 276.2532944 211 281.5 C 211 286.7467056 206.7467056 291 201.5 291 C 196.2532944 291 192 286.7467056 192 281.5 Z"/></g><g transform="translate(-182,-238) scale(1,1)"><path fill="#C0C0C0" stroke="none" d="M 607 291.5 C 607 284.59644 612.59644 279 619.5 279 C 626.40356 279 632 284.59644 632 291.5 C 632 298.40356 626.40356 304 619.5 304 C 612.59644 304 607 298.40356 607 291.5 Z" opacity="0.2"/></g><g transform="translate(-182,-238) scale(1,1)"><path fill="none" stroke="#000000" d="M 600 284.5 C 600 277.59644 605.59644 272 612.5 272 C 619.40356 272 625 277.59644 625 284.5 C 625 291.40356 619.40356 297 612.5 297 C 605.59644 297 600 291.40356 600 284.5 Z" stroke-miterlimit="10"/></g><g transform="translate(-182,-238) scale(1,1)"><path fill="#000000" stroke="none" d="M 605 284.5 C 605 280.357864 608.357864 277 612.5 277 C 616.642136 277 620 280.357864 620 284.5 C 620 288.642136 616.642136 292 612.5 292 C 608.357864 292 605 288.642136 605 284.5 Z"/></g><g transform="translate(-182,-238) scale(1,1)"><path fill="#C0C0C0" stroke="none" d="M 353 255 L 492 255 Q 502 255 502 265 L 502 316 Q 502 326 492 326 L 353 326 Q 343 326 343 316 L 343 265 Q 343 255 353 255 Z" opacity="0.2"/></g><g transform="translate(-182,-238) scale(1,1)"><path fill="#ffffff" stroke="none" d="M 346 248 L 485 248 Q 495 248 495 258 L 495 309 Q 495 319 485 319 L 346 319 Q 336 319 336 309 L 336 258 Q 336 248 346 248 Z"/></g><g transform="translate(-182,-238) scale(1,1)"><path fill="none" stroke="#000000" d="M 346 248 L 485 248 Q 495 248 495 258 L 495 309 Q 495 319 485 319 L 346 319 Q 336 319 336 309 L 336 258 Q 336 248 346 248 Z" stroke-miterlimit="10"/></g><g transform="translate(-182,-238) scale(1,1)"><path fill="none" stroke="#000000" d="M 336 273 L 495 273" stroke-miterlimit="10"/></g><g transform="translate(-182,-238) scale(1,1)"><g><path fill="none" stroke="none"/><text fill="#000000" stroke="none" font-family="Arial" font-size="13px" font-style="normal" font-weight="bold" text-decoration="none" x="385.389892578125" y="266">Avaliação</text></g></g><g transform="translate(-182,-238) scale(1,1)"><g><path fill="none" stroke="none"/><text fill="#000000" stroke="none" font-family="Arial" font-size="13px" font-style="normal" font-weight="normal" text-decoration="none" x="341" y="289">do/realizaAvaliacao</text></g></g><g transform="translate(-182,-238) scale(1,1)"><path fill="none" stroke="#000000" d="M 212 281 L 335 282" stroke-miterlimit="10"/></g><g transform="translate(-182,-238) scale(1,1)"><path fill="none" stroke="#000000" d="M 324.8034384025097 286.1267579997603 L 335 282 L 324.8718835836819 277.7080007155746" stroke-miterlimit="10"/></g><g transform="translate(-182,-238) scale(1,1)"><path fill="none" stroke="#000000" d="M 496 283 L 599 284" stroke-miterlimit="10"/></g><g transform="translate(-182,-238) scale(1,1)"><path fill="none" stroke="#000000" d="M 588.7969368948947 288.1106572799538 L 599 284 L 588.8786712517166 279.69201852729486" stroke-miterlimit="10"/></g><g transform="translate(-182,-238) scale(1,1)"><path fill="#ffffff" stroke="none" d="M 736 264 L 800.13232421875 264 L 810.13232421875 274 L 810.13232421875 302 L 736 302 L 736 264"/></g><g transform="translate(-182,-238) scale(1,1)"><path fill="none" stroke="#000000" d="M 736 264 L 800.13232421875 264 L 810.13232421875 274 L 810.13232421875 302 L 736 302 L 736 264 L 736 264" stroke-miterlimit="10"/></g><g transform="translate(-182,-238) scale(1,1)"><path fill="none" stroke="#000000" d="M 800.13232421875 264 L 800.13232421875 274 L 810.13232421875 274 L 800.13232421875 264" stroke-miterlimit="10"/></g><g transform="translate(-182,-238) scale(1,1)"><g><path fill="none" stroke="none"/><text fill="#000000" stroke="none" font-family="Arial" font-size="13px" font-style="normal" font-weight="normal" text-decoration="none" x="741" y="279">Avaliação</text><text fill="#000000" stroke="none" font-family="Arial" font-size="13px" font-style="normal" font-weight="normal" text-decoration="none" x="741" y="292">finalizada</text></g></g><g transform="translate(-182,-238) scale(1,1)"><path fill="none" stroke="#000000" d="M 626 284 L 735 283" stroke-miterlimit="10" stroke-dasharray="3"/></g></g></svg>